<?xml version="1.0" encoding="UTF-8" standalone="no"?>
<!-- Created with Inkscape (http://www.inkscape.org/) -->

<svg
   xmlns:dc="http://purl.org/dc/elements/1.1/"
   xmlns:cc="http://creativecommons.org/ns#"
   xmlns:rdf="http://www.w3.org/1999/02/22-rdf-syntax-ns#"
   xmlns:svg="http://www.w3.org/2000/svg"
   xmlns="http://www.w3.org/2000/svg"
   xmlns:sodipodi="http://sodipodi.sourceforge.net/DTD/sodipodi-0.dtd"
   xmlns:inkscape="http://www.inkscape.org/namespaces/inkscape"
   id="svg2"
   version="1.1"
   inkscape:version="0.91 r13725"
   xml:space="preserve"
   width="168"
   height="64"
   viewBox="0 0 168 64"
   sodipodi:docname="lema.svg"
   inkscape:export-filename="/home/luis/Imágenes/logo-carro/lema.png"
   inkscape:export-xdpi="365"
   inkscape:export-ydpi="365"><metadata
     id="metadata8"><rdf:RDF><cc:Work
         rdf:about=""><dc:format>image/svg+xml</dc:format><dc:type
           rdf:resource="http://purl.org/dc/dcmitype/StillImage" /><dc:title /></cc:Work></rdf:RDF></metadata><defs
     id="defs6"><clipPath
       clipPathUnits="userSpaceOnUse"
       id="clipPath92"><path
         d="m 2116.17,1814.36 c 0,-474.97 -385.03,-860.001 -860,-860.001 -474.963,0 -859.998,385.031 -859.998,860.001 0,474.96 385.035,860 859.998,860 474.97,0 860,-385.04 860,-860 z"
         id="path94"
         inkscape:connector-curvature="0" /></clipPath></defs><sodipodi:namedview
     pagecolor="#ffffff"
     bordercolor="#666666"
     borderopacity="1"
     objecttolerance="10"
     gridtolerance="10"
     guidetolerance="10"
     inkscape:pageopacity="0"
     inkscape:pageshadow="2"
     inkscape:window-width="1366"
     inkscape:window-height="715"
     id="namedview4"
     showgrid="false"
     inkscape:zoom="4.2721417"
     inkscape:cx="70.583067"
     inkscape:cy="23.151045"
     inkscape:window-x="0"
     inkscape:window-y="0"
     inkscape:window-maximized="1"
     inkscape:current-layer="g4199"
     fit-margin-top="0"
     fit-margin-left="0"
     fit-margin-right="0"
     fit-margin-bottom="0" /><g
     inkscape:groupmode="layer"
     id="layer1"
     inkscape:label="Fondo"
     style="display:none"><rect
       style="opacity:1;fill:#007b00;fill-opacity:1;fill-rule:evenodd;stroke:none;stroke-width:0.1;stroke-linecap:round;stroke-linejoin:round;stroke-miterlimit:4;stroke-dasharray:none;stroke-opacity:1"
       id="rect4145"
       width="169.47003"
       height="64.838676"
       x="-0.7022239"
       y="-0.13644941" /></g><g
     inkscape:groupmode="layer"
     id="layer2"
     inkscape:label="slogan"
     style="display:none"
     sodipodi:insensitive="true"><text
       y="46.775902"
       x="103.81598"
       style="font-style:normal;font-variant:normal;font-weight:normal;font-stretch:normal;font-size:11.8009243px;font-family:Banksia;-inkscape-font-specification:Banksia;writing-mode:lr-tb;display:inline;fill:#256bb7;fill-opacity:1;fill-rule:nonzero;stroke:none"
       id="text68-6"><tspan
         y="46.775902"
         x="103.81598"
         sodipodi:role="line"
         id="tspan70-2"
         style="font-style:normal;font-variant:normal;font-weight:normal;font-stretch:normal;font-size:7.5px;font-family:Banksia;-inkscape-font-specification:Banksia;text-align:end;text-anchor:end">Si te pesan los pies...</tspan><tspan
         id="tspan4482"
         y="56.150902"
         x="103.81598"
         sodipodi:role="line"
         style="font-style:normal;font-variant:normal;font-weight:normal;font-stretch:normal;font-size:7.5px;font-family:Banksia;-inkscape-font-specification:Banksia;text-align:end;text-anchor:end">nuestros autos son para ti...</tspan></text>
<path
       style="fill:#000000"
       d="m 122.94757,61.712711 c 0.5872,-0.0535 0.992,-0.4052 1.4357,-1.24751 0.1743,-0.33088 0.37041,-0.70272 0.4358,-0.82632 0.0654,-0.12359 0.14056,-0.23435 0.16705,-0.24612 0.0265,-0.0118 0.0482,-0.0508 0.0482,-0.0868 0,-0.0675 1.01809,-1.7928 1.0917,-1.85005 0.0227,-0.0177 0.062,-0.0754 0.0873,-0.12842 0.14415,-0.30186 1.02254,-1.60515 1.08185,-1.60515 0.0278,0 0.0506,-0.0301 0.0506,-0.0668 0,-0.076 0.26398,-0.46786 0.33708,-0.50035 0.0265,-0.0118 0.0482,-0.0623 0.0482,-0.11236 0,-0.05 0.0217,-0.091 0.0482,-0.0911 0.0265,-6e-5 0.13026,-0.13008 0.23062,-0.28892 0.10035,-0.15885 0.2087,-0.28882 0.24077,-0.28882 0.0321,0 0.0583,-0.0303 0.0583,-0.0673 0,-0.0793 1.01585,-1.43168 1.09891,-1.46298 0.0312,-0.0118 0.0568,-0.0479 0.0568,-0.0803 0,-0.0324 0.0506,-0.11187 0.11236,-0.17667 0.0618,-0.0648 0.1557,-0.18462 0.20867,-0.26626 0.053,-0.0816 0.17576,-0.23186 0.27288,-0.33383 0.0971,-0.10198 0.17656,-0.20258 0.17656,-0.22357 0,-0.021 0.0939,-0.14502 0.20867,-0.27563 0.21196,-0.24122 0.55445,-0.65351 1.17176,-1.41058 0.0706,-0.0866 0.22232,-0.2541 0.33709,-0.37219 0.11476,-0.11809 0.20867,-0.24023 0.20867,-0.27142 0,-0.0312 0.0255,-0.0663 0.0567,-0.0781 0.0312,-0.0118 0.26724,-0.26699 0.52452,-0.56715 0.25727,-0.30017 0.57845,-0.65407 0.71373,-0.78646 0.13527,-0.13238 0.24595,-0.25465 0.24595,-0.27171 0,-0.017 0.0939,-0.12829 0.20867,-0.2472 0.11477,-0.11891 0.46871,-0.50101 0.78653,-0.84911 0.59176,-0.64815 4.3899,-4.46383 5.22371,-5.24783 0.25501,-0.23978 0.49044,-0.50643 0.52319,-0.59256 0.15731,-0.41375 0.0659,-1.02115 -0.19704,-1.309 -0.10376,-0.11361 -0.18866,-0.21826 -0.18866,-0.23256 0,-0.0143 -0.0939,-0.12215 -0.20867,-0.23967 -0.11476,-0.11752 -0.32424,-0.35499 -0.46549,-0.52773 -0.50013,-0.61159 -0.48388,-0.59917 -0.68498,-0.52327 -0.1,0.0377 -0.1818,0.0912 -0.1818,0.11876 0,0.0276 -0.0321,0.0501 -0.0713,0.0501 -0.0392,0 -0.31051,0.14446 -0.60283,0.32103 -0.29231,0.17656 -0.56117,0.32103 -0.59747,0.32103 -0.0363,0 -0.0756,0.0217 -0.0874,0.0481 -0.0313,0.0703 -0.42298,0.33708 -0.495,0.33708 -0.0338,0 -0.0711,0.0217 -0.0829,0.0482 -0.0253,0.0569 -0.41674,0.33708 -0.47095,0.33708 -0.0206,0 -0.0723,0.0296 -0.11496,0.0657 -0.25581,0.21686 -1.21793,0.89735 -1.26873,0.89735 -0.0335,0 -0.0608,0.0233 -0.0608,0.0518 0,0.0285 -0.18871,0.19039 -0.41935,0.35974 -0.23065,0.16935 -0.46021,0.34876 -0.51013,0.39869 -0.0499,0.0499 -0.22961,0.19631 -0.39928,0.32529 -0.16967,0.12898 -0.38072,0.30061 -0.46901,0.38139 -0.18055,0.16521 -0.28044,0.25434 -0.99832,0.8908 -0.27882,0.24719 -0.65614,0.5939 -0.83848,0.77047 -0.18235,0.17657 -0.39985,0.38106 -0.48334,0.45442 -0.16553,0.14547 -1.72217,1.78315 -2.03973,2.14593 -0.10819,0.12359 -0.19717,0.25619 -0.19773,0.29466 -5.8e-4,0.0385 -0.0949,0.15759 -0.2097,0.26472 -0.11477,0.10713 -0.36758,0.37482 -0.5618,0.59487 -0.19423,0.22005 -0.40255,0.45371 -0.46294,0.51924 -0.0604,0.0655 -0.4719,0.60426 -0.91447,1.19717 -0.44257,0.59291 -0.83378,1.11291 -0.86934,1.15556 -0.0356,0.0427 -0.0647,0.10525 -0.0647,0.13911 0,0.0339 -0.0238,0.0712 -0.0529,0.083 -0.0642,0.026 -0.78624,1.08255 -1.13345,1.65866 -0.13834,0.22953 -0.27472,0.42697 -0.30307,0.43874 -0.0283,0.0118 -0.0515,0.0509 -0.0515,0.087 0,0.0361 -0.0867,0.19403 -0.19262,0.351 -0.10594,0.15697 -0.19261,0.31079 -0.19261,0.34181 0,0.031 -0.0365,0.0946 -0.081,0.14124 -0.0446,0.0467 -0.11581,0.15708 -0.15835,0.24536 -0.0425,0.0883 -0.16265,0.30498 -0.26692,0.48155 -0.10427,0.17656 -0.27109,0.47994 -0.3707,0.67416 -0.0996,0.19422 -0.19595,0.36758 -0.21407,0.38524 -0.0667,0.065 -0.89934,1.77903 -0.89934,1.85135 0,0.0412 -0.0258,0.0748 -0.0573,0.0748 -0.0315,0 -0.076,0.0746 -0.0989,0.16585 -0.0611,0.24333 -0.31604,0.6225 -0.55225,0.82125 -0.11365,0.0956 -0.18857,0.19196 -0.16648,0.21405 0.0221,0.0221 0.0402,0.0164 0.0402,-0.0126 0,-0.029 0.0578,-4.5e-4 0.12841,0.0635 0.0706,0.0639 0.12777,0.14785 0.12699,0.18652 -7.8e-4,0.0387 0.17133,0.24366 0.38245,0.45554 1.15369,1.15782 1.41674,1.43208 1.41674,1.47714 0,0.0273 0.0505,0.0866 0.11226,0.13173 0.0617,0.0451 0.0941,0.10027 0.0719,0.1225 -0.0222,0.0222 -0.0851,-0.004 -0.13977,-0.059 -0.0547,-0.0546 -0.11991,-0.0994 -0.14501,-0.0994 -0.0428,0 -0.80043,-0.59412 -0.99741,-0.78215 -0.0494,-0.0471 -0.15141,-0.12875 -0.2268,-0.18145 -0.0754,-0.0527 -0.4142,-0.31972 -0.75291,-0.5934 l -0.61585,-0.4976 -0.65962,-0.002 c -0.48341,-0.002 -0.75395,-0.0353 -1.01275,-0.12632 -0.19422,-0.0683 -0.39211,-0.12516 -0.43974,-0.12632 -0.0476,-0.001 -0.17765,-0.0411 -0.28893,-0.0889 -0.11127,-0.0477 -0.33234,-0.12119 -0.49125,-0.16322 -0.15891,-0.042 -0.43339,-0.12056 -0.60995,-0.1745 -0.17657,-0.054 -0.43661,-0.12662 -0.57786,-0.16149 -0.14125,-0.0349 -0.28427,-0.0906 -0.31782,-0.12393 -0.0335,-0.0333 -0.13031,-0.0605 -0.21502,-0.0605 -0.0847,0 -0.24506,-0.0397 -0.35634,-0.0882 -0.22201,-0.0968 -1.2084,-0.39944 -1.61486,-0.49547 -0.14125,-0.0334 -0.31461,-0.085 -0.38523,-0.11475 -0.0706,-0.0297 -0.30177,-0.10489 -0.51365,-0.16702 -0.39838,-0.11681 -0.83921,-0.24886 -1.28412,-0.38467 -0.14126,-0.0431 -0.43018,-0.12924 -0.64206,-0.19139 -0.21188,-0.0621 -0.50979,-0.15633 -0.66202,-0.20932 -0.15223,-0.053 -0.28746,-0.0857 -0.30052,-0.0726 -0.0235,0.0235 0.16277,0.2295 1.49605,1.65444 0.37752,0.40348 0.8742,0.93644 1.10374,1.18436 0.62504,0.67509 0.9744,1.00343 1.06769,1.00343 0.0252,0 0.0914,0.0386 0.14717,0.0857 0.11679,0.0988 1.04117,0.49423 1.5139,0.64768 0.17657,0.0573 0.37881,0.1284 0.44944,0.15796 0.0706,0.0296 0.30177,0.10457 0.51365,0.16667 0.21188,0.0621 0.47192,0.14098 0.57786,0.17526 0.48021,0.1554 1.75078,0.41299 2.66455,0.5402 1.14733,0.15972 3.13316,0.24619 3.94867,0.17193 z m -3.35848,-3.86314 c 0.28105,-0.0659 0.58155,-0.39326 0.83839,-0.9132 0.13243,-0.26808 0.24078,-0.52089 0.24078,-0.56181 0,-0.0409 0.0266,-0.0744 0.0591,-0.0744 0.0325,0 0.0781,-0.0867 0.10141,-0.19262 0.0233,-0.10594 0.0658,-0.19262 0.0944,-0.19262 0.0287,0 0.072,-0.0792 0.0963,-0.17592 0.0243,-0.0968 0.0636,-0.19066 0.0873,-0.20867 0.0237,-0.018 0.15171,-0.24944 0.28446,-0.51429 0.13275,-0.26485 0.34182,-0.65491 0.46461,-0.86679 0.12279,-0.21188 0.25535,-0.46469 0.29458,-0.5618 0.0392,-0.0971 0.0974,-0.17657 0.12926,-0.17657 0.0319,0 0.0579,-0.0318 0.0579,-0.0706 0,-0.0843 0.46064,-0.85111 0.5297,-0.88181 0.0265,-0.0118 0.0482,-0.0535 0.0482,-0.0928 0,-0.0984 1.80759,-2.80721 1.87327,-2.80721 0.0291,0 0.0529,-0.0279 0.0529,-0.0621 0,-0.0769 1.01843,-1.43859 1.09803,-1.46813 0.0317,-0.0118 0.0577,-0.0623 0.0577,-0.11236 0,-0.05 0.0239,-0.091 0.0531,-0.091 0.0292,0 0.17866,-0.17335 0.33216,-0.38523 0.15349,-0.21188 0.30297,-0.38524 0.33216,-0.38524 0.0292,0 0.0531,-0.0323 0.0531,-0.0718 0,-0.0792 0.14041,-0.24729 0.95682,-1.14555 0.64823,-0.71322 3.30701,-3.40551 3.36312,-3.40551 0.0212,0 0.16517,-0.12279 0.31996,-0.27287 0.31707,-0.30743 0.51564,-0.48068 0.97551,-0.85109 0.17512,-0.14106 0.36377,-0.30066 0.41923,-0.35467 0.0555,-0.054 0.23723,-0.19616 0.40392,-0.31587 0.1667,-0.11971 0.30308,-0.24165 0.30308,-0.27098 0,-0.0293 0.0409,-0.0533 0.091,-0.0533 0.05,0 0.10059,-0.0259 0.11236,-0.0577 0.0283,-0.0762 1.38956,-1.09803 1.46278,-1.09803 0.0312,0 0.0664,-0.0217 0.0782,-0.0481 0.0233,-0.0525 0.25887,-0.2234 0.85942,-0.62345 0.55487,-0.36962 0.62714,-0.41537 0.73503,-0.46523 0.053,-0.0245 0.1252,-0.0701 0.16051,-0.10138 0.0353,-0.0313 0.21746,-0.15048 0.40476,-0.2649 l 0.34055,-0.20802 -0.40476,-0.11124 c -0.22261,-0.0612 -0.54922,-0.15152 -0.72578,-0.20075 -0.60602,-0.16896 -1.45834,-0.39802 -2.15091,-0.57805 -0.22953,-0.0597 -0.54735,-0.14667 -0.70626,-0.19333 -0.15891,-0.0467 -0.3976,-0.1048 -0.53041,-0.12919 -0.13282,-0.0244 -0.25732,-0.07 -0.27667,-0.10127 -0.0193,-0.0313 -0.0959,-0.0569 -0.17021,-0.0569 -0.0743,0 -0.28204,-0.0424 -0.46171,-0.0941 -0.17967,-0.0518 -0.48558,-0.13681 -0.6798,-0.18897 -0.19423,-0.0522 -0.51909,-0.14041 -0.72192,-0.19608 -0.20283,-0.0557 -0.5351,-0.14538 -0.73837,-0.19934 -0.48029,-0.1275 -0.96191,-0.25878 -1.38127,-0.37651 -0.36452,-0.10233 -0.80494,-0.22009 -1.46025,-0.39044 -0.22954,-0.0597 -0.54736,-0.14604 -0.70627,-0.19194 -0.15891,-0.0459 -0.3891,-0.10443 -0.51154,-0.13007 -0.12244,-0.0256 -0.2669,-0.0684 -0.32103,-0.0951 -0.0541,-0.0267 -0.24288,-0.0838 -0.41945,-0.12698 -0.17656,-0.0432 -0.49438,-0.12246 -0.70626,-0.17616 -0.60693,-0.15381 -2.44745,-0.18293 -3.04979,-0.0482 -0.79112,0.17689 -1.9133,0.60387 -1.97969,0.75325 -0.0118,0.0265 -0.059,0.0482 -0.10496,0.0482 -0.0814,0 -0.99405,0.66275 -1.3952,1.01312 -1.21173,1.05836 -2.03732,1.92093 -3.3902,3.54207 -0.15891,0.19042 -0.33949,0.39911 -0.40129,0.46376 -0.0618,0.0646 -0.11236,0.14289 -0.11236,0.17388 0,0.031 -0.0406,0.09 -0.0902,0.13123 -0.0913,0.0757 -1.39375,2.01013 -1.47328,2.18805 -0.0237,0.053 -0.10009,0.18299 -0.1698,0.28893 -0.0697,0.10594 -0.15788,0.26426 -0.19593,0.35182 -0.038,0.0876 -0.0891,0.17425 -0.11355,0.19262 -0.0673,0.0507 -1.1033,2.15199 -1.1033,2.23784 0,0.0412 -0.0289,0.0749 -0.0642,0.0749 -0.0353,0 -0.0642,0.0461 -0.0642,0.10245 0,0.0563 -0.0407,0.17915 -0.0905,0.27288 -0.0498,0.0937 -0.15242,0.32933 -0.22816,0.52355 -0.0757,0.19423 -0.16158,0.41092 -0.19078,0.48155 -0.0292,0.0706 -0.10303,0.25843 -0.16409,0.41734 -0.061,0.15891 -0.1365,0.35475 -0.16765,0.43521 -0.15821,0.40859 -0.50718,1.50576 -0.50718,1.59459 0,0.0559 -0.0408,0.19274 -0.0906,0.30402 -0.0856,0.19123 -0.40835,1.33797 -0.45447,1.61485 -0.0118,0.0706 -0.0544,0.25843 -0.0948,0.41734 -0.19741,0.77675 -0.44552,2.19736 -0.49621,2.84112 -0.034,0.43238 -0.0337,0.43339 0.13234,0.43339 0.0916,0 0.27539,0.0405 0.40853,0.0901 0.35679,0.13281 0.89732,0.29513 0.98281,0.29513 0.041,0 0.16558,0.0391 0.27686,0.0868 0.11128,0.0478 0.31789,0.11679 0.45915,0.15342 0.42416,0.11001 1.40347,0.40659 1.54094,0.46666 0.0706,0.0309 0.22859,0.0759 0.35103,0.10012 0.12244,0.0242 0.2669,0.0656 0.32103,0.0921 0.0541,0.0264 0.27177,0.098 0.48365,0.15912 0.21188,0.0611 0.50081,0.14916 0.64206,0.19571 0.14126,0.0465 0.357,0.10497 0.47944,0.12981 0.12244,0.0248 0.2669,0.0668 0.32103,0.0932 0.0541,0.0264 0.27177,0.098 0.48365,0.15912 0.21188,0.0611 0.50178,0.15136 0.64421,0.20061 0.14244,0.0493 0.34133,0.0895 0.44199,0.0895 0.2006,0 0.69259,0.12962 0.74368,0.19593 0.0862,0.11186 0.37174,0.20465 0.68862,0.22378 0.21848,0.0132 0.39777,0.0633 0.47436,0.13262 0.0731,0.0662 0.2662,0.1233 0.47527,0.14064 0.19367,0.0161 0.35214,0.0545 0.35214,0.0855 0,0.0621 0.13419,0.0623 0.39757,5.2e-4 z m -1.64987,-3.56998 c -0.23984,-0.37184 -0.47415,-0.67608 -0.5207,-0.67608 -0.08,0 -0.37413,0.11495 -0.73104,0.28574 -0.0883,0.0422 -0.33387,0.13127 -0.54575,0.19783 -0.21188,0.0666 -0.42972,0.15731 -0.48408,0.20167 -0.0544,0.0444 -0.19882,0.0935 -0.32103,0.10931 -0.1222,0.0157 -0.30026,0.0589 -0.39568,0.0958 -0.14322,0.0555 -0.16723,0.0509 -0.1376,-0.0264 0.0197,-0.0515 0.0626,-0.0936 0.0952,-0.0936 0.0326,0 0.0783,-0.0506 0.10151,-0.11236 0.0577,-0.15366 0.21623,-0.26838 0.37436,-0.27083 0.0724,-10e-4 0.16387,-0.0343 0.20327,-0.0737 0.0877,-0.0877 0.33195,-0.23308 0.48374,-0.28796 0.0618,-0.0223 0.11236,-0.0661 0.11236,-0.0973 0,-0.0312 0.0361,-0.0577 0.0803,-0.059 0.0441,-10e-4 0.25935,-0.11137 0.47825,-0.24473 l 0.398,-0.24247 -0.18905,-0.28496 c -0.10398,-0.15674 -0.18918,-0.32109 -0.18933,-0.36523 -1.3e-4,-0.0441 -0.0263,-0.0803 -0.0582,-0.0803 -0.0319,0 -0.0897,-0.0795 -0.1286,-0.17656 -0.0389,-0.0971 -0.12681,-0.26325 -0.19541,-0.36919 -0.0686,-0.10594 -0.19128,-0.32263 -0.27262,-0.48154 -0.0814,-0.15891 -0.16238,-0.30338 -0.18006,-0.32103 -0.0177,-0.0177 -0.1038,-0.16935 -0.19134,-0.33709 -0.0875,-0.16773 -0.17423,-0.30498 -0.19262,-0.30499 -0.0717,-3e-5 -0.86996,0.2912 -0.90023,0.32844 -0.0177,0.0217 -0.10433,0.0595 -0.19261,0.084 -0.16781,0.0465 -0.53227,0.18566 -0.87649,0.33469 -0.11128,0.0482 -0.24681,0.0876 -0.30119,0.0876 -0.0544,0 -0.11453,0.0253 -0.13367,0.0563 -0.0191,0.031 -0.16649,0.0895 -0.32744,0.13 -0.16095,0.0405 -0.30865,0.11541 -0.32822,0.16639 -0.0309,0.0805 0.32896,1.30824 0.48941,1.6698 0.10563,0.23801 0.13484,0.40632 0.0767,0.44222 -0.0509,0.0314 -0.76431,-0.97876 -1.16258,-1.64609 -0.079,-0.13242 -0.16301,-0.23983 -0.18661,-0.23867 -0.0668,0.003 -0.67704,0.22053 -0.75163,0.26762 -0.14698,0.0928 -0.87533,0.31854 -0.91138,0.28249 -0.0212,-0.0212 0.01,-0.0386 0.0684,-0.0386 0.0589,0 0.10701,-0.0261 0.10701,-0.0581 0,-0.0865 0.98565,-0.64816 1.13744,-0.64816 0.20928,0 0.28892,-0.14431 0.17187,-0.31142 -0.0974,-0.139 -0.66336,-1.82521 -0.66594,-1.98395 -7.2e-4,-0.0441 0.0265,-0.0802 0.0606,-0.0802 0.0965,0 1.13806,1.63211 1.26028,1.97491 0.003,0.009 0.16885,-0.0703 0.36797,-0.17657 0.19912,-0.10625 0.40593,-0.19319 0.45957,-0.19319 0.0536,0 0.0975,-0.0266 0.0975,-0.0591 0,-0.0325 0.0867,-0.0781 0.19262,-0.10141 0.10594,-0.0233 0.19261,-0.0689 0.19261,-0.10141 0,-0.0325 0.0305,-0.0591 0.0677,-0.0591 0.0372,0 0.36226,-0.14094 0.72232,-0.3132 0.36006,-0.17226 0.71966,-0.33311 0.79911,-0.35746 0.0795,-0.0243 0.14447,-0.0695 0.14447,-0.10026 0,-0.0308 -0.12707,-0.31056 -0.28238,-0.62168 -0.15532,-0.31113 -0.3755,-0.76794 -0.4893,-1.01513 -0.1138,-0.24719 -0.29718,-0.63725 -0.4075,-0.86678 l -0.20059,-0.41734 -0.89922,0.30312 c -0.99314,0.33479 -1.35002,0.39442 -0.8029,0.13416 1.20343,-0.57247 1.40194,-0.662 1.46783,-0.662 0.0889,0 0.0959,-0.21698 0.012,-0.37006 -0.0336,-0.0613 -0.10347,-0.21261 -0.15526,-0.33621 -0.0518,-0.1236 -0.15268,-0.36196 -0.22422,-0.5297 -0.106,-0.24856 -0.11291,-0.30498 -0.0374,-0.30498 0.051,0 0.0927,0.0316 0.0927,0.0703 0,0.0672 0.51014,0.87623 0.6893,1.0931 0.0937,0.1134 0.18061,0.0935 0.78744,-0.18027 0.15891,-0.0717 0.43339,-0.19469 0.60995,-0.27332 0.17657,-0.0786 0.43661,-0.19638 0.57786,-0.26167 0.61318,-0.28338 1.01737,-0.44812 1.09949,-0.44812 0.0486,0 0.0883,-0.0289 0.0883,-0.0642 0,-0.0353 0.0361,-0.0644 0.0803,-0.0646 0.0441,-1.9e-4 0.15692,-0.0404 0.25062,-0.0893 0.0937,-0.0489 0.27427,-0.12318 0.40128,-0.1651 0.12701,-0.0419 0.23093,-0.11492 0.23093,-0.16224 0,-0.0473 -0.12387,-0.29788 -0.27527,-0.55682 -0.15141,-0.25894 -0.37533,-0.67305 -0.4976,-0.92024 -0.12228,-0.24719 -0.2417,-0.46418 -0.26539,-0.48219 -0.0237,-0.018 -0.0629,-0.11191 -0.0872,-0.20867 -0.0243,-0.0968 -0.0676,-0.17592 -0.0963,-0.17592 -0.0287,0 -0.0712,-0.0867 -0.0944,-0.19262 -0.0233,-0.10594 -0.0666,-0.19262 -0.0963,-0.19262 -0.0297,0 -0.073,-0.0867 -0.0963,-0.19262 -0.0484,-0.22028 -0.0768,-0.22862 -0.32974,-0.0967 -0.10115,0.0528 -0.22725,0.0965 -0.28022,0.0971 -0.053,6.8e-4 -0.27946,0.0586 -0.50332,0.12881 -0.5523,0.17313 -0.77152,0.16844 -0.39556,-0.008 0.15891,-0.0748 0.47673,-0.22426 0.70626,-0.33218 0.60012,-0.28216 0.58267,-0.25167 0.38409,-0.67137 -0.0961,-0.20308 -0.1962,-0.44147 -0.22248,-0.52975 l -0.0478,-0.16052 0.13571,0.14178 c 0.0746,0.078 0.1357,0.17188 0.1357,0.20867 0,0.0368 0.0217,0.0677 0.0482,0.0686 0.0265,9.5e-4 0.11826,0.11538 0.20393,0.25429 0.15112,0.24502 0.32577,0.38206 0.32577,0.25562 0,-0.0342 0.0361,-0.0624 0.0803,-0.0626 0.0441,-1.9e-4 0.16694,-0.0459 0.27288,-0.10157 0.10594,-0.0556 0.35806,-0.17111 0.56027,-0.25659 0.31503,-0.13319 0.67757,-0.29154 1.2375,-0.54055 0.0706,-0.0314 0.28732,-0.1196 0.48154,-0.19598 0.19423,-0.0764 0.43982,-0.17639 0.54576,-0.22224 0.10594,-0.0459 0.32263,-0.1333 0.48154,-0.19432 0.15891,-0.061 0.37997,-0.15036 0.49125,-0.19854 0.11128,-0.0482 0.24681,-0.0876 0.30119,-0.0876 0.0544,0 0.11535,-0.0267 0.1355,-0.0593 0.0201,-0.0326 0.12264,-0.0782 0.22777,-0.10125 0.10513,-0.0231 0.20796,-0.0692 0.2285,-0.10242 0.0351,-0.0568 -0.4028,-1.01505 -0.49625,-1.08604 -0.0237,-0.018 -0.063,-0.11191 -0.0872,-0.20867 -0.0243,-0.0968 -0.0676,-0.17592 -0.0963,-0.17592 -0.0287,0 -0.0712,-0.0867 -0.0945,-0.19262 -0.0233,-0.10594 -0.0689,-0.19262 -0.10141,-0.19262 -0.0325,0 -0.0591,-0.0329 -0.0591,-0.0732 0,-0.059 -0.2301,-0.58445 -0.30302,-0.692 -0.01,-0.0148 -0.0832,0.007 -0.16257,0.0486 -0.1458,0.0762 -0.49307,0.15968 -1.13956,0.27403 -0.19422,0.0344 -0.4687,0.0883 -0.60996,0.11998 -0.34632,0.0776 -0.41901,-0.0184 -0.1161,-0.15331 0.13448,-0.0599 0.32121,-0.15067 0.41494,-0.20171 0.0937,-0.0511 0.22519,-0.0928 0.29214,-0.0928 0.0669,0 0.14916,-0.0248 0.18271,-0.055 0.16828,-0.15181 2.23926,-0.67574 2.94975,-0.74624 0.35222,-0.035 0.37392,-0.03 0.25683,0.0585 -0.0704,0.0532 -0.15679,0.0977 -0.19211,0.0991 -0.0353,10e-4 -0.15088,0.0479 -0.25682,0.10347 -0.10594,0.0556 -0.36598,0.1591 -0.57786,0.23007 -0.21188,0.071 -0.50738,0.17347 -0.65666,0.22777 l -0.27143,0.0987 0.12142,0.1684 c 0.0668,0.0926 0.1817,0.23219 0.25537,0.31017 0.0737,0.078 0.13396,0.16147 0.13396,0.18554 0,0.0241 0.0396,0.0758 0.088,0.11505 0.12329,0.0999 1.06773,1.37985 1.06773,1.44704 0,0.1295 0.36123,0.13345 0.54576,0.006 0.0353,-0.0244 0.80097,-0.28478 1.70146,-0.57863 0.90049,-0.29385 1.71671,-0.5657 1.81382,-0.60411 0.17627,-0.0697 0.23017,-0.1904 0.11643,-0.26069 -0.0331,-0.0204 -0.10156,-0.11605 -0.15218,-0.21246 -0.83905,-1.59806 -0.83651,-1.61657 0.084,-0.61299 0.12363,0.13479 0.33636,0.38205 0.47274,0.54946 0.27099,0.33267 0.29196,0.33591 0.85475,0.13205 0.42275,-0.15314 0.47703,-0.0545 0.073,0.13275 -0.20079,0.0931 -0.39581,0.16919 -0.43339,0.16919 -0.0823,0 -0.092,0.17299 -0.0115,0.20332 0.0802,0.0302 0.52098,0.61915 0.52098,0.69612 0,0.035 0.0242,0.0636 0.0537,0.0636 0.047,0 0.24558,0.28877 0.90503,1.31623 0.0907,0.14125 0.22263,0.37239 0.29325,0.51365 0.0706,0.14125 0.15328,0.27495 0.18368,0.29711 0.0685,0.0499 0.26457,0.008 0.54118,-0.1151 0.11617,-0.0518 0.26063,-0.0828 0.32103,-0.069 0.10855,0.0249 -0.53738,0.3685 -0.69268,0.3685 -0.0398,0 0.0448,0.21981 0.18802,0.48845 0.14322,0.26865 0.24512,0.51317 0.22645,0.54337 -0.0187,0.0302 -0.14125,-0.0664 -0.2724,-0.21471 -0.13115,-0.1483 -0.3091,-0.34365 -0.39544,-0.43412 l -0.15699,-0.16448 -0.35666,0.17626 c -0.33079,0.16348 -0.52594,0.25248 -1.38396,0.63115 -0.17656,0.0779 -0.47994,0.21417 -0.67416,0.30278 -0.63622,0.29023 -0.86317,0.39159 -1.12361,0.50181 -0.14125,0.0598 -0.36055,0.15633 -0.48733,0.21455 l -0.23052,0.10585 0.29032,0.57785 c 0.43775,0.87133 0.46544,0.93099 0.4321,0.93099 -0.0455,0 -0.30666,-0.27843 -0.45401,-0.48406 -0.0706,-0.0986 -0.16453,-0.21571 -0.20867,-0.26032 -0.0441,-0.0446 -0.0803,-0.0976 -0.0803,-0.11782 0,-0.0202 -0.0545,-0.0912 -0.12117,-0.15785 -0.0666,-0.0666 -0.15137,-0.17499 -0.1883,-0.24078 -0.0644,-0.11476 -0.0749,-0.11505 -0.25792,-0.007 -0.10493,0.0618 -0.22307,0.11236 -0.26252,0.11236 -0.0394,0 -0.17946,0.0703 -0.31112,0.15617 -0.23197,0.15133 -0.80404,0.38562 -1.3309,0.54507 -0.14126,0.0427 -0.31461,0.10313 -0.38524,0.13418 -0.39884,0.17535 -0.7428,0.31648 -1.0273,0.42151 -0.17656,0.0652 -0.39326,0.15558 -0.48154,0.20087 -0.0883,0.0453 -0.2053,0.0825 -0.26004,0.0828 -0.0547,1.9e-4 -0.12696,0.0235 -0.16051,0.0518 -0.0335,0.0283 -0.23435,0.11945 -0.44623,0.20266 -0.21188,0.0832 -0.39559,0.15952 -0.40823,0.16958 -0.0126,0.0101 0.0758,0.18613 0.19654,0.39125 0.12074,0.20512 0.27555,0.48852 0.34402,0.62977 0.0685,0.14126 0.14046,0.27127 0.15999,0.28893 0.0195,0.0177 0.1553,0.26852 0.30173,0.55747 0.40903,0.80717 0.39251,0.78778 0.5877,0.68975 0.26272,-0.13194 0.63052,-0.28413 0.68669,-0.28413 0.0609,0 1.06185,-0.36234 1.35156,-0.48924 0.11128,-0.0487 0.23077,-0.0886 0.26554,-0.0886 0.0348,0 0.14597,-0.0432 0.24712,-0.0959 0.10115,-0.0528 0.24314,-0.0961 0.31553,-0.0963 0.0724,-1.9e-4 0.15907,-0.0247 0.19262,-0.0544 0.0867,-0.0767 0.9317,-0.3487 0.96865,-0.31175 0.0169,0.0169 -0.0576,0.0698 -0.1656,0.11759 -0.10797,0.0478 -0.19631,0.10644 -0.19631,0.13033 0,0.0239 -0.0867,0.0625 -0.19261,0.0857 -0.10594,0.0233 -0.19262,0.0666 -0.19262,0.0963 0,0.0297 -0.0867,0.0731 -0.19262,0.0963 -0.10594,0.0233 -0.19262,0.0666 -0.19262,0.0963 0,0.0297 -0.0867,0.073 -0.19262,0.0963 -0.10594,0.0233 -0.19261,0.0666 -0.19261,0.0963 0,0.0297 -0.0867,0.073 -0.19262,0.0963 -0.10594,0.0233 -0.19262,0.0666 -0.19262,0.0963 0,0.0297 -0.0867,0.073 -0.19262,0.0963 -0.10594,0.0233 -0.19262,0.0689 -0.19262,0.10141 0,0.0325 -0.0322,0.0591 -0.0716,0.0591 -0.0839,0 -1.52495,0.70442 -1.56073,0.7629 -0.0134,0.0218 0.0879,0.27082 0.22499,0.55333 0.13709,0.2825 0.24979,0.54735 0.25044,0.58855 6.5e-4,0.0412 0.0279,0.0845 0.0606,0.0963 0.0327,0.0118 0.0783,0.10808 0.10123,0.21402 l 0.0418,0.19262 -0.19581,-0.22472 c -0.10769,-0.1236 -0.19658,-0.26084 -0.19753,-0.30498 -9.5e-4,-0.0441 -0.0266,-0.0803 -0.057,-0.0803 -0.0304,0 -0.1782,-0.19009 -0.32846,-0.42243 -0.23529,-0.36382 -0.29388,-0.41725 -0.42227,-0.38502 -0.14041,0.0352 -0.48636,0.18605 -1.42534,0.62134 -0.2208,0.10236 -0.41381,0.18611 -0.42891,0.18611 -0.0151,0 -0.22449,0.0885 -0.46532,0.1967 -0.6452,0.28982 -0.66407,0.29792 -1.04783,0.45011 -0.19422,0.077 -0.45445,0.18704 -0.57828,0.24448 l -0.22514,0.10443 0.14013,0.25656 c 0.17799,0.32589 1.01727,2.06517 1.21735,2.52279 0.005,0.0105 0.22127,-0.0801 0.48155,-0.20114 0.26028,-0.12108 0.6177,-0.2829 0.79426,-0.3596 0.17657,-0.0767 0.37882,-0.16628 0.44945,-0.19908 0.53423,-0.24811 2.20119,-0.80335 2.25382,-0.75072 0.0565,0.0565 -1.68082,1.15344 -2.31803,1.46358 -0.17657,0.0859 -0.33577,0.17565 -0.35378,0.19937 -0.018,0.0237 -0.11191,0.063 -0.20867,0.0873 -0.0968,0.0243 -0.17592,0.0668 -0.17592,0.0944 0,0.0277 -0.0752,0.0692 -0.1672,0.0922 -0.092,0.0231 -0.23485,0.0863 -0.31751,0.14045 -0.16355,0.10716 -0.16215,0.11787 0.0872,0.66821 0.5783,1.27633 0.53843,1.35386 -0.14853,0.28882 z m -1.94611,-4.96544 c 0.0183,-0.0405 0.63037,-0.30847 1.11171,-0.48682 0.10594,-0.0393 0.20706,-0.0861 0.22472,-0.10408 0.0177,-0.018 0.20546,-0.1 0.41734,-0.18219 0.21188,-0.0822 0.44302,-0.17426 0.51365,-0.20456 0.55951,-0.24 0.74637,-0.31643 1.0273,-0.42014 0.17656,-0.0652 0.39326,-0.15558 0.48154,-0.20087 0.0883,-0.0453 0.19663,-0.0825 0.24077,-0.0828 0.11462,-5.8e-4 0.0994,-0.0871 -0.0482,-0.27474 -0.0706,-0.0898 -0.12841,-0.19481 -0.12841,-0.23338 0,-0.0386 -0.0217,-0.0703 -0.0482,-0.0705 -0.0461,-3.9e-4 -0.15583,-0.16684 -0.41446,-0.62841 -0.0652,-0.11631 -0.20444,-0.33011 -0.30948,-0.47513 -0.10505,-0.14501 -0.19099,-0.30266 -0.19099,-0.35033 0,-0.0477 -0.0236,-0.0867 -0.0523,-0.0867 -0.0288,0 -0.10157,-0.1033 -0.16178,-0.22955 -0.0995,-0.2087 -0.12723,-0.22564 -0.30514,-0.18657 -0.10762,0.0236 -0.27319,0.0834 -0.36792,0.13284 -0.0947,0.0494 -0.2211,0.09 -0.28082,0.0903 -0.0597,1.9e-4 -0.12445,0.0261 -0.14385,0.0575 -0.0194,0.0314 -0.11502,0.0762 -0.21246,0.0996 -0.17897,0.0429 -1.15987,0.38718 -1.39709,0.49027 -0.17054,0.0741 -0.67368,0.25172 -0.83468,0.29464 -0.0706,0.0188 -0.21946,0.0747 -0.33073,0.12416 -0.11128,0.0495 -0.25988,0.0899 -0.33022,0.0899 -0.12482,0 -0.24594,0.16438 -0.15069,0.20452 0.0684,0.0288 0.52271,0.79313 0.52271,0.87933 0,0.0395 0.0235,0.0719 0.0523,0.0719 0.0288,0 0.10007,0.0939 0.15845,0.20867 0.0584,0.11476 0.22438,0.41091 0.3689,0.65811 0.14452,0.24719 0.29595,0.52812 0.33652,0.62429 0.0726,0.17218 0.21192,0.27784 0.25142,0.19073 z m 3.06999,-5.26173 c 0.1236,-0.0535 0.28251,-0.12072 0.35314,-0.14928 0.0706,-0.0286 0.25843,-0.10619 0.41734,-0.1725 0.15891,-0.0663 0.41894,-0.17198 0.57785,-0.23482 0.15891,-0.0628 0.33875,-0.13997 0.39965,-0.17139 0.0609,-0.0314 0.29204,-0.11985 0.51365,-0.19649 0.22161,-0.0766 0.53002,-0.20687 0.68537,-0.2894 0.15534,-0.0825 0.32869,-0.15104 0.38523,-0.15224 0.0565,-10e-4 0.21837,-0.058 0.35962,-0.12623 0.14126,-0.0682 0.32184,-0.12504 0.40129,-0.12624 0.0795,-10e-4 0.14447,-0.0256 0.14447,-0.0542 0,-0.0286 0.17314,-0.10392 0.38476,-0.16731 l 0.38477,-0.11526 -0.14167,-0.20187 c -0.0779,-0.11103 -0.16439,-0.21151 -0.19215,-0.22328 -0.0278,-0.0118 -0.0505,-0.0599 -0.0505,-0.10701 0,-0.0471 -0.0217,-0.0952 -0.0482,-0.10701 -0.0703,-0.0313 -0.33708,-0.42298 -0.33708,-0.495 0,-0.0338 -0.0217,-0.0711 -0.0482,-0.0829 -0.0731,-0.0325 -0.33708,-0.42433 -0.33708,-0.50035 0,-0.0368 -0.0289,-0.0668 -0.0642,-0.0668 -0.0353,0 -0.0642,-0.0362 -0.0642,-0.0805 0,-0.0443 -0.10113,-0.2227 -0.22472,-0.39654 -0.1236,-0.17384 -0.22473,-0.35433 -0.22473,-0.40108 0,-0.0959 -0.29336,-0.11752 -0.35008,-0.0257 -0.0201,0.0326 -0.13008,0.0798 -0.2443,0.10488 -0.19761,0.0434 -0.28015,0.0745 -0.82785,0.31204 -0.12894,0.0559 -0.26287,0.10167 -0.29764,0.10167 -0.0348,0 -0.14598,0.0432 -0.24712,0.0959 -0.10115,0.0528 -0.23486,0.0961 -0.29714,0.0963 -0.0623,1.9e-4 -0.1634,0.0293 -0.22472,0.0646 -0.15762,0.0908 -2.60934,0.89888 -2.72717,0.89888 -0.19091,0 -0.2492,0.16013 -0.11192,0.30747 0.07,0.0751 0.12725,0.16429 0.12725,0.19814 0,0.0339 0.0217,0.0712 0.0482,0.0829 0.0703,0.0313 0.33708,0.42298 0.33708,0.495 0,0.0338 0.0217,0.0711 0.0481,0.0829 0.0703,0.0312 0.33708,0.42298 0.33708,0.49499 0,0.0338 0.0222,0.0711 0.0494,0.0829 0.0272,0.0118 0.21964,0.30428 0.42771,0.65003 0.20807,0.34574 0.39531,0.63842 0.4161,0.65039 0.0208,0.012 0.13891,-0.022 0.2625,-0.0756 z m 5.87108,-2.29697 c 0.0686,-0.0519 0.18556,-0.0943 0.26004,-0.0943 0.0745,0 0.16285,-0.0262 0.19639,-0.0582 0.0335,-0.032 0.16212,-0.0885 0.28572,-0.12539 0.24596,-0.0735 1.14519,-0.39544 1.43277,-0.51297 0.0994,-0.0406 0.23494,-0.0739 0.30119,-0.0739 0.0662,0 0.13692,-0.0267 0.15707,-0.0593 0.0201,-0.0326 0.12492,-0.0787 0.23283,-0.10236 0.10792,-0.0237 0.27372,-0.0835 0.36845,-0.13296 0.0947,-0.0494 0.21705,-0.09 0.2718,-0.0903 0.16293,-6.5e-4 0.44515,-0.15464 0.44569,-0.24319 2.6e-4,-0.0453 -0.0428,-0.0989 -0.0958,-0.11923 -0.053,-0.0203 -0.0963,-0.0772 -0.0963,-0.12639 0,-0.0492 -0.0233,-0.0894 -0.0518,-0.0894 -0.0285,0 -0.19038,-0.18871 -0.35973,-0.41936 -0.16935,-0.23064 -0.34106,-0.45534 -0.38157,-0.49933 -0.17226,-0.18704 -0.90244,-1.26106 -0.95876,-1.41024 -0.074,-0.1959 -0.21966,-0.19331 -0.65342,0.0116 -0.23106,0.10917 -0.43246,0.19849 -0.44756,0.19849 -0.0151,0 -0.22449,0.0887 -0.46532,0.19709 -1.05229,0.47363 -1.29546,0.57339 -1.39779,0.57339 -0.0488,0 -0.0984,0.0217 -0.11018,0.0482 -0.0186,0.0418 -0.50284,0.24952 -0.84003,0.36033 -0.13779,0.0453 -0.1456,0.19027 -0.016,0.29778 0.053,0.044 0.0963,0.11733 0.0963,0.16303 0,0.0457 0.0217,0.0927 0.0482,0.1045 0.056,0.0249 0.33708,0.41636 0.33708,0.46952 0,0.0198 0.0789,0.1582 0.17526,0.30758 0.25919,0.40168 0.29144,0.45666 0.46674,0.79584 0.0883,0.17074 0.18035,0.32547 0.20466,0.34385 0.0243,0.0184 0.0742,0.11228 0.11083,0.20867 0.0756,0.19894 0.27921,0.23133 0.48337,0.0769 z m 7.50811,-3.0317 c -0.26323,-0.24279 -0.66638,-0.75176 -0.66638,-0.84129 0,-0.0405 -0.0233,-0.0736 -0.0519,-0.0736 -0.0285,0 -0.0985,-0.10834 -0.15549,-0.24077 -0.35033,-0.81385 -0.34475,-0.94167 0.025,-0.57348 0.49089,0.48879 0.71554,0.83178 1.04434,1.59443 0.16303,0.37814 0.10876,0.41553 -0.19564,0.13476 z m 9.22136,2.09229 c 0.15891,-0.0754 0.39005,-0.18051 0.51364,-0.23358 0.1236,-0.0531 0.30142,-0.13544 0.39515,-0.18305 0.0937,-0.0476 0.21652,-0.0866 0.27287,-0.0866 0.0564,0 0.10246,-0.0289 0.10246,-0.0642 0,-0.0353 0.0347,-0.0642 0.0771,-0.0642 0.10107,0 3.33237,-1.61129 3.44273,-1.71671 0.0467,-0.0446 0.11064,-0.0811 0.14218,-0.0811 0.0315,0 0.2715,-0.13002 0.53325,-0.28893 0.26174,-0.15891 0.50836,-0.28893 0.54803,-0.28893 0.0397,0 0.0721,-0.0226 0.0721,-0.0501 0,-0.0276 0.0795,-0.0848 0.17657,-0.12726 0.0971,-0.0424 0.26325,-0.135 0.36919,-0.20574 0.10594,-0.0707 0.2504,-0.15505 0.32103,-0.18735 0.0706,-0.0323 0.23804,-0.13386 0.37203,-0.22567 0.134,-0.0918 0.27124,-0.16695 0.30498,-0.16695 0.0337,0 0.0614,-0.0269 0.0614,-0.0599 0,-0.0329 0.065,-0.0802 0.14446,-0.10496 0.0795,-0.0248 0.15891,-0.0629 0.17657,-0.0846 0.0661,-0.0813 0.44658,-0.32843 0.50569,-0.32843 0.0338,0 0.0711,-0.0217 0.0829,-0.0482 0.0313,-0.0703 0.42298,-0.33708 0.495,-0.33708 0.0338,0 0.0711,-0.0217 0.0829,-0.0482 0.0258,-0.058 0.41724,-0.33708 0.47283,-0.33708 0.0216,0 0.077,-0.0361 0.12314,-0.0803 0.0461,-0.0441 0.14859,-0.1236 0.2277,-0.17657 0.0791,-0.053 0.32956,-0.23355 0.55655,-0.40129 0.22699,-0.16774 0.43788,-0.30498 0.46864,-0.30498 0.0308,0 0.0656,-0.0258 0.0773,-0.0573 0.0118,-0.0315 0.23477,-0.21844 0.49555,-0.41541 0.26078,-0.19696 0.51523,-0.41678 0.56544,-0.48847 0.0502,-0.0717 0.12091,-0.13034 0.15711,-0.13034 0.0523,0 0.55114,-0.3674 0.69738,-0.51365 0.0177,-0.0177 0.17657,-0.14588 0.35313,-0.28494 0.17657,-0.13905 0.36789,-0.29796 0.42517,-0.35313 0.0573,-0.0552 0.33175,-0.30255 0.60995,-0.54974 0.67294,-0.59793 2.84475,-2.76796 3.36565,-3.36291 0.22808,-0.26049 0.45983,-0.52053 0.51499,-0.57785 0.0552,-0.0573 0.21407,-0.24869 0.35313,-0.42525 0.13906,-0.17657 0.26798,-0.33548 0.28648,-0.35314 0.0185,-0.0177 0.19164,-0.23435 0.38475,-0.48154 0.19312,-0.2472 0.39958,-0.50297 0.45881,-0.56838 0.0592,-0.0654 0.18799,-0.24599 0.28615,-0.40129 0.0982,-0.15529 0.20161,-0.28235 0.22988,-0.28235 0.0283,0 0.0514,-0.0398 0.0514,-0.0884 0,-0.0487 0.041,-0.12248 0.0911,-0.16409 0.11138,-0.0924 1.16033,-1.66013 1.26604,-1.89214 0.0418,-0.0917 0.0969,-0.16674 0.12238,-0.16674 0.0255,0 0.0639,-0.0506 0.0853,-0.11236 0.0214,-0.0618 0.0967,-0.19904 0.16732,-0.30498 0.0707,-0.10594 0.16431,-0.26485 0.20811,-0.35313 0.0438,-0.0883 0.0953,-0.17497 0.11435,-0.19262 0.0191,-0.0177 0.0692,-0.10434 0.11138,-0.19262 0.0422,-0.0883 0.16845,-0.31943 0.28063,-0.51365 0.35782,-0.61947 1.02652,-1.98265 1.46457,-2.985579 0.0617,-0.14126 0.16037,-0.36615 0.2193,-0.49978 0.12218,-0.27709 0.13892,-0.53239 0.039,-0.59417 -0.0375,-0.0232 -0.0952,-0.10433 -0.12826,-0.18036 -0.064,-0.14724 -0.19904,-0.37403 -0.25432,-0.42715 -0.0184,-0.0177 -0.0693,-0.10434 -0.11305,-0.19262 -0.0438,-0.0883 -0.13679,-0.24719 -0.20665,-0.35313 -0.0699,-0.10594 -0.14734,-0.23596 -0.17217,-0.28893 -0.0248,-0.053 -0.21294,-0.37471 -0.41804,-0.71497 -0.2051,-0.34027 -0.37291,-0.64846 -0.37291,-0.68487 0,-0.0364 -0.0217,-0.0758 -0.0482,-0.0876 -0.0691,-0.0307 -0.5297,-0.797541 -0.5297,-0.881811 0,-0.0388 -0.0261,-0.0706 -0.0579,-0.0706 -0.0319,0 -0.0897,-0.0795 -0.1286,-0.176567 -0.0389,-0.0971 -0.12795,-0.26325 -0.19795,-0.36919 -0.07,-0.10594 -0.15369,-0.2504 -0.186,-0.32103 -0.0323,-0.0706 -0.12803,-0.22953 -0.21273,-0.35313 -0.0847,-0.1236 -0.17465,-0.26806 -0.19989,-0.32103 -0.0252,-0.053 -0.13317,-0.24077 -0.23983,-0.41734 -0.10667,-0.17657 -0.22577,-0.38445 -0.26468,-0.46196 -0.0916,-0.18246 -0.2458,-0.24369 -0.24643,-0.0978 -5.8e-4,0.12686 -0.41797,1.40295 -0.51361,1.57017 -0.0351,0.0613 -0.0638,0.16414 -0.0638,0.2285 0,0.0643 -0.0424,0.17309 -0.0943,0.24164 -0.0519,0.0686 -0.0952,0.16551 -0.0963,0.21548 -0.002,0.0857 -0.29828,0.901148 -0.48034,1.321688 -0.0459,0.10594 -0.13303,0.32263 -0.1937,0.48154 -0.14039,0.36774 -0.27764,0.68909 -0.39297,0.92014 -0.0499,0.1 -0.0907,0.20769 -0.0907,0.23937 0,0.0317 -0.10269,0.28214 -0.22819,0.5566 -0.12551,0.27445 -0.2525,0.55679 -0.2822,0.62741 -0.0944,0.22451 -0.45715,1.01134 -0.68348,1.482609 -0.12027,0.25041 -0.21866,0.48878 -0.21866,0.5297 0,0.0409 -0.0266,0.0744 -0.0591,0.0744 -0.0325,0 -0.0781,0.0867 -0.10141,0.19262 -0.0233,0.10594 -0.0666,0.19262 -0.0963,0.19262 -0.0297,0 -0.073,0.0867 -0.0963,0.19262 -0.0233,0.10594 -0.0658,0.19262 -0.0944,0.19262 -0.0287,0 -0.072,0.0792 -0.0963,0.17592 -0.0243,0.0968 -0.0636,0.19066 -0.0873,0.20867 -0.0238,0.018 -0.19687,0.33612 -0.3847,0.70691 -0.18783,0.37079 -0.44245,0.84752 -0.56583,1.0594 -0.12339,0.21188 -0.25769,0.46469 -0.29846,0.5618 -0.0408,0.0971 -0.0967,0.17657 -0.12426,0.17657 -0.0276,0 -0.0501,0.0318 -0.0501,0.0706 0,0.0843 -0.46064,0.85112 -0.5297,0.88181 -0.0265,0.0118 -0.0481,0.0507 -0.0481,0.0866 0,0.0805 -0.46321,0.84691 -0.5297,0.87646 -0.0265,0.0118 -0.0482,0.0491 -0.0482,0.0829 0,0.072 -0.26675,0.46374 -0.33708,0.495 -0.0265,0.0118 -0.0482,0.0554 -0.0482,0.0969 0,0.10039 -1.01041,1.59352 -1.10756,1.6367 -0.0265,0.0118 -0.0482,0.0464 -0.0482,0.0769 0,0.0441 -0.65033,0.9637 -0.88401,1.25004 -0.0288,0.0353 -0.20664,0.26645 -0.39515,0.51364 -0.18851,0.2472 -0.36134,0.46389 -0.38406,0.48155 -0.0227,0.0177 -0.19909,0.23435 -0.39193,0.48155 -0.19284,0.24719 -0.42329,0.5247 -0.51212,0.61668 -0.0888,0.092 -0.29151,0.31989 -0.45042,0.50646 -0.97923,1.14972 -2.27528,2.44621 -3.46642,3.46759 -0.18532,0.15891 -0.40376,0.35071 -0.48543,0.42622 -0.0817,0.0755 -0.28049,0.2321 -0.44184,0.34797 -0.16134,0.11587 -0.29335,0.23467 -0.29335,0.26399 0,0.0293 -0.0409,0.0533 -0.091,0.0533 -0.05,0 -0.10059,0.0256 -0.11236,0.0569 -0.0302,0.0802 -0.61915,0.52099 -0.69612,0.52099 -0.035,0 -0.0637,0.024 -0.0637,0.0534 0,0.0612 -1.86648,1.31317 -2.183,1.46431 -0.053,0.0253 -0.11076,0.0631 -0.12841,0.0841 -0.0177,0.021 -0.10434,0.0748 -0.19262,0.11963 -0.0883,0.0448 -0.33387,0.1801 -0.54575,0.30056 -0.21188,0.12047 -0.60886,0.32878 -0.88216,0.46292 -0.27331,0.13413 -0.49723,0.27999 -0.4976,0.32414 -3.9e-4,0.0441 0.0228,0.0802 0.0515,0.0802 0.0287,0 0.11801,0.15079 0.19848,0.33508 0.12374,0.28339 0.14293,0.42203 0.12439,0.89891 -0.012,0.31012 -0.0219,0.56343 -0.0219,0.56292 0,-5.1e-4 0.13002,-0.0626 0.28893,-0.13801 z m -0.93099,-2.65777 c 0.17656,-0.0837 0.35714,-0.15329 0.40129,-0.15455 0.0441,-10e-4 0.0802,-0.0252 0.0802,-0.0531 0,-0.028 0.16614,-0.13047 0.36919,-0.22778 0.20305,-0.0973 0.51365,-0.26321 0.69021,-0.36866 0.17657,-0.10545 0.39327,-0.22628 0.48155,-0.26851 0.0883,-0.0422 0.17496,-0.0947 0.19262,-0.11664 0.0176,-0.0219 0.10433,-0.0771 0.19262,-0.12273 0.15845,-0.0818 1.43872,-0.92917 1.5697,-1.03891 0.0371,-0.0311 0.34203,-0.25951 0.67751,-0.5075 0.33548,-0.248 0.61959,-0.47836 0.63136,-0.51192 0.0118,-0.0336 0.0479,-0.061 0.0803,-0.061 0.0324,0 0.11123,-0.0506 0.17524,-0.11236 0.064,-0.0618 0.25705,-0.22793 0.42896,-0.36918 0.17191,-0.14126 0.41406,-0.34351 0.53812,-0.44945 0.28763,-0.24561 2.8331,-2.77827 2.8331,-2.81883 0,-0.0167 0.0891,-0.1261 0.19801,-0.24304 0.10891,-0.11695 0.30357,-0.34265 0.43259,-0.50156 0.12902,-0.15891 0.29362,-0.34672 0.36579,-0.41734 0.0722,-0.0706 0.28564,-0.33066 0.47438,-0.57786 0.18874,-0.24719 0.36842,-0.45907 0.39929,-0.47084 0.0309,-0.0118 0.0561,-0.0623 0.0561,-0.11236 0,-0.05 0.025,-0.091 0.0555,-0.091 0.0305,0 0.13886,-0.1228 0.24077,-0.27288 0.10192,-0.15008 0.25031,-0.34481 0.32976,-0.43273 0.0795,-0.0879 0.14447,-0.17741 0.14447,-0.19885 0,-0.0342 0.081,-0.14191 0.31984,-0.42511 0.036,-0.0426 0.0654,-0.10412 0.0654,-0.1366 0,-0.0325 0.0411,-0.0932 0.0914,-0.1349 0.11181,-0.0928 1.54406,-2.23503 1.65055,-2.46876 0.0421,-0.0923 0.0973,-0.16777 0.12286,-0.16777 0.0255,0 0.0639,-0.0506 0.0852,-0.11236 0.0214,-0.0618 0.0967,-0.19904 0.16733,-0.30498 0.0707,-0.10594 0.16431,-0.26485 0.20811,-0.35314 0.0438,-0.0883 0.0947,-0.17496 0.11304,-0.19261 0.0459,-0.0441 0.15576,-0.23064 0.35926,-0.60996 0.0947,-0.17657 0.19056,-0.33548 0.21298,-0.35314 0.0224,-0.0177 0.11949,-0.19101 0.2157,-0.38523 0.0962,-0.19423 0.26539,-0.51205 0.37595,-0.70627 0.11056,-0.19422 0.36372,-0.67095 0.56257,-1.0594 0.19885,-0.38845 0.38321,-0.7159 0.4097,-0.72767 0.0265,-0.0118 0.0482,-0.0599 0.0482,-0.10689 0,-0.047 0.1702,-0.42744 0.37821,-0.84538 0.37183,-0.747069 0.43785,-0.887809 0.83842,-1.787189 0.1101,-0.24719 0.22811,-0.49961 0.26225,-0.56093 0.0341,-0.0613 0.0621,-0.1407 0.0621,-0.1764 0,-0.0357 0.0822,-0.24556 0.1826,-0.46636 0.10042,-0.2208 0.2331,-0.53148 0.29484,-0.69039 0.0617,-0.15891 0.14929,-0.3756 0.19456,-0.48154 0.0453,-0.10594 0.13195,-0.32264 0.19261,-0.48155 0.0607,-0.158911 0.14649,-0.375601 0.19072,-0.481541 0.0826,-0.198 0.12635,-0.318697 0.39526,-1.091507 0.086,-0.24719 0.18487,-0.49961 0.21968,-0.56093 0.0348,-0.0613 0.0635,-0.16244 0.0637,-0.22472 1.9e-4,-0.0623 0.0436,-0.19599 0.0963,-0.29714 0.0528,-0.10115 0.0959,-0.22538 0.0959,-0.27606 0,-0.0507 0.0399,-0.17018 0.0887,-0.26554 0.0488,-0.0954 0.10912,-0.29617 0.13405,-0.44625 l 0.0453,-0.27288 -3.30487,0 -3.30487,0 -0.1037,0.15826 c -0.057,0.087 -0.10387,0.20983 -0.10408,0.27287 -2e-4,0.063 -0.0436,0.19738 -0.0963,0.29853 -0.0528,0.10115 -0.0959,0.2268 -0.0959,0.27922 0,0.0524 -0.0386,0.18636 -0.0857,0.29764 -0.0472,0.11128 -0.12035,0.30345 -0.16264,0.42704 -0.34042,0.99495 -0.41502,1.19527 -0.46507,1.24881 -0.0314,0.0335 -0.057,0.10142 -0.057,0.15081 0,0.0494 -0.0394,0.180867 -0.0876,0.292137 -0.0482,0.11128 -0.13751,0.33234 -0.19853,0.491251 -0.061,0.15891 -0.14799,0.37561 -0.19326,0.48155 -0.0453,0.10594 -0.13195,0.32263 -0.19262,0.48154 -0.0607,0.15891 -0.14885,0.37561 -0.19596,0.48155 -0.0471,0.10594 -0.13425,0.30819 -0.19365,0.44944 -0.2377,0.56529 -0.27821,0.65754 -0.46533,1.0594 -0.10688,0.22954 -0.30122,0.64848 -0.43186,0.93099 -0.20905,0.45205 -0.4946,1.028909 -1.20773,2.439829 -0.10709,0.21188 -0.21133,0.39968 -0.23164,0.41734 -0.0203,0.0177 -0.14697,0.2488 -0.28146,0.51365 -0.13449,0.26485 -0.30052,0.56822 -0.36896,0.67416 -0.0684,0.10594 -0.15623,0.27208 -0.1951,0.36919 -0.0389,0.0971 -0.0967,0.17656 -0.12861,0.17656 -0.0319,0 -0.0579,0.0318 -0.0579,0.0706 0,0.0843 -0.46064,0.85112 -0.5297,0.88181 -0.0265,0.0118 -0.0481,0.058 -0.0481,0.10273 0,0.0447 -0.086,0.19997 -0.191,0.34499 -0.10504,0.14501 -0.24431,0.35882 -0.30948,0.47512 -0.25863,0.46157 -0.36841,0.62802 -0.41446,0.62841 -0.0265,1.9e-4 -0.0482,0.0305 -0.0482,0.0672 0,0.076 -0.26398,0.46786 -0.33708,0.50035 -0.0265,0.0118 -0.0482,0.049 -0.0482,0.0828 0,0.0639 -0.22524,0.40175 -0.37486,0.56238 -0.0472,0.0507 -0.16024,0.21042 -0.25107,0.35486 -0.23565,0.37473 -1.86632,2.52546 -2.08233,2.74642 -0.0996,0.10185 -0.18102,0.21308 -0.18102,0.24718 0,0.0341 -0.0229,0.062 -0.051,0.062 -0.0281,0 -0.1653,0.14997 -0.30498,0.33328 -0.13968,0.1833 -0.34064,0.42646 -0.44658,0.54035 -0.10594,0.11388 -0.3651,0.40452 -0.57591,0.64586 -0.49559,0.56735 -2.69792,2.76973 -3.26574,3.26581 -0.2413,0.21081 -0.50968,0.44797 -0.59642,0.52702 -0.0867,0.079 -0.36603,0.31007 -0.62067,0.51338 -0.25464,0.20331 -0.47743,0.38795 -0.49509,0.4103 -0.0755,0.0956 -0.64873,0.50564 -0.70682,0.50564 -0.035,0 -0.0636,0.0368 -0.0636,0.0817 0,0.0799 0.28638,0.1754 0.93099,0.31038 0.17656,0.037 0.34847,0.0939 0.38202,0.12649 0.0335,0.0326 0.13968,0.0593 0.23584,0.0593 0.18322,0 0.33067,0.12445 0.80677,0.68089 0.14791,0.17287 0.3646,0.41997 0.48154,0.54911 l 0.21263,0.23481 0.32103,-0.15226 z"
       id="path4147"
       inkscape:connector-curvature="0" /></g><g
     inkscape:label="slogan mas claro"
     id="g4199"
     inkscape:groupmode="layer"><text
       id="text4201"
       style="font-style:normal;font-variant:normal;font-weight:normal;font-stretch:normal;font-size:11.64960766px;font-family:Banksia;-inkscape-font-specification:Banksia;writing-mode:lr-tb;display:inline;fill:#000000;fill-opacity:1;fill-rule:nonzero;stroke:none"
       x="109.20531"
       y="46.176121"
       transform="scale(0.9871776,1.0129889)"><tspan
         style="font-style:normal;font-variant:normal;font-weight:normal;font-stretch:normal;font-size:8.63780403px;font-family:Banksia;-inkscape-font-specification:Banksia;text-align:end;text-anchor:end;fill:#000000;fill-opacity:1"
         id="tspan4203"
         sodipodi:role="line"
         x="109.20531"
         y="46.176121">Si te pesan los pies...</tspan><tspan
         style="font-style:normal;font-variant:normal;font-weight:normal;font-stretch:normal;font-size:8.63780403px;font-family:Banksia;-inkscape-font-specification:Banksia;text-align:end;text-anchor:end;fill:#000000;fill-opacity:1"
         sodipodi:role="line"
         x="109.20531"
         y="57.113621"
         id="tspan4205">nuestros autos son para ti...</tspan></text>
<path
       inkscape:connector-curvature="0"
       id="path4207"
       d="m 124.94757,61.712711 c 0.5872,-0.0535 0.992,-0.4052 1.4357,-1.24751 0.1743,-0.33088 0.37041,-0.70272 0.4358,-0.82632 0.0654,-0.12359 0.14056,-0.23435 0.16705,-0.24612 0.0265,-0.0118 0.0482,-0.0508 0.0482,-0.0868 0,-0.0675 1.01809,-1.7928 1.0917,-1.85005 0.0227,-0.0177 0.062,-0.0754 0.0873,-0.12842 0.14415,-0.30186 1.02254,-1.60515 1.08185,-1.60515 0.0278,0 0.0506,-0.0301 0.0506,-0.0668 0,-0.076 0.26398,-0.46786 0.33708,-0.50035 0.0265,-0.0118 0.0482,-0.0623 0.0482,-0.11236 0,-0.05 0.0217,-0.091 0.0482,-0.0911 0.0265,-6e-5 0.13026,-0.13008 0.23062,-0.28892 0.10035,-0.15885 0.2087,-0.28882 0.24077,-0.28882 0.0321,0 0.0583,-0.0303 0.0583,-0.0673 0,-0.0793 1.01585,-1.43168 1.09891,-1.46298 0.0312,-0.0118 0.0568,-0.0479 0.0568,-0.0803 0,-0.0324 0.0506,-0.11187 0.11236,-0.17667 0.0618,-0.0648 0.1557,-0.18462 0.20867,-0.26626 0.053,-0.0816 0.17576,-0.23186 0.27288,-0.33383 0.0971,-0.10198 0.17656,-0.20258 0.17656,-0.22357 0,-0.021 0.0939,-0.14502 0.20867,-0.27563 0.21196,-0.24122 0.55445,-0.65351 1.17176,-1.41058 0.0706,-0.0866 0.22232,-0.2541 0.33709,-0.37219 0.11476,-0.11809 0.20867,-0.24023 0.20867,-0.27142 0,-0.0312 0.0255,-0.0663 0.0567,-0.0781 0.0312,-0.0118 0.26724,-0.26699 0.52452,-0.56715 0.25727,-0.30017 0.57845,-0.65407 0.71373,-0.78646 0.13527,-0.13238 0.24595,-0.25465 0.24595,-0.27171 0,-0.017 0.0939,-0.12829 0.20867,-0.2472 0.11477,-0.11891 0.46871,-0.50101 0.78653,-0.84911 0.59176,-0.64815 4.3899,-4.46383 5.22371,-5.24783 0.25501,-0.23978 0.49044,-0.50643 0.52319,-0.59256 0.15731,-0.41375 0.0659,-1.02115 -0.19704,-1.309 -0.10376,-0.11361 -0.18866,-0.21826 -0.18866,-0.23256 0,-0.0143 -0.0939,-0.12215 -0.20867,-0.23967 -0.11476,-0.11752 -0.32424,-0.35499 -0.46549,-0.52773 -0.50013,-0.61159 -0.48388,-0.59917 -0.68498,-0.52327 -0.1,0.0377 -0.1818,0.0912 -0.1818,0.11876 0,0.0276 -0.0321,0.0501 -0.0713,0.0501 -0.0392,0 -0.31051,0.14446 -0.60283,0.32103 -0.29231,0.17656 -0.56117,0.32103 -0.59747,0.32103 -0.0363,0 -0.0756,0.0217 -0.0874,0.0481 -0.0313,0.0703 -0.42298,0.33708 -0.495,0.33708 -0.0338,0 -0.0711,0.0217 -0.0829,0.0482 -0.0253,0.0569 -0.41674,0.33708 -0.47095,0.33708 -0.0206,0 -0.0723,0.0296 -0.11496,0.0657 -0.25581,0.21686 -1.21793,0.89735 -1.26873,0.89735 -0.0335,0 -0.0608,0.0233 -0.0608,0.0518 0,0.0285 -0.18871,0.19039 -0.41935,0.35974 -0.23065,0.16935 -0.46021,0.34876 -0.51013,0.39869 -0.0499,0.0499 -0.22961,0.19631 -0.39928,0.32529 -0.16967,0.12898 -0.38072,0.30061 -0.46901,0.38139 -0.18055,0.16521 -0.28044,0.25434 -0.99832,0.8908 -0.27882,0.24719 -0.65614,0.5939 -0.83848,0.77047 -0.18235,0.17657 -0.39985,0.38106 -0.48334,0.45442 -0.16553,0.14547 -1.72217,1.78315 -2.03973,2.14593 -0.10819,0.12359 -0.19717,0.25619 -0.19773,0.29466 -5.8e-4,0.0385 -0.0949,0.15759 -0.2097,0.26472 -0.11477,0.10713 -0.36758,0.37482 -0.5618,0.59487 -0.19423,0.22005 -0.40255,0.45371 -0.46294,0.51924 -0.0604,0.0655 -0.4719,0.60426 -0.91447,1.19717 -0.44257,0.59291 -0.83378,1.11291 -0.86934,1.15556 -0.0356,0.0427 -0.0647,0.10525 -0.0647,0.13911 0,0.0339 -0.0238,0.0712 -0.0529,0.083 -0.0642,0.026 -0.78624,1.08255 -1.13345,1.65866 -0.13834,0.22953 -0.27472,0.42697 -0.30307,0.43874 -0.0283,0.0118 -0.0515,0.0509 -0.0515,0.087 0,0.0361 -0.0867,0.19403 -0.19262,0.351 -0.10594,0.15697 -0.19261,0.31079 -0.19261,0.34181 0,0.031 -0.0365,0.0946 -0.081,0.14124 -0.0446,0.0467 -0.11581,0.15708 -0.15835,0.24536 -0.0425,0.0883 -0.16265,0.30498 -0.26692,0.48155 -0.10427,0.17656 -0.27109,0.47994 -0.3707,0.67416 -0.0996,0.19422 -0.19595,0.36758 -0.21407,0.38524 -0.0667,0.065 -0.89934,1.77903 -0.89934,1.85135 0,0.0412 -0.0258,0.0748 -0.0573,0.0748 -0.0315,0 -0.076,0.0746 -0.0989,0.16585 -0.0611,0.24333 -0.31604,0.6225 -0.55225,0.82125 -0.11365,0.0956 -0.18857,0.19196 -0.16648,0.21405 0.0221,0.0221 0.0402,0.0164 0.0402,-0.0126 0,-0.029 0.0578,-4.5e-4 0.12841,0.0635 0.0706,0.0639 0.12777,0.14785 0.12699,0.18652 -7.8e-4,0.0387 0.17133,0.24366 0.38245,0.45554 1.15369,1.15782 1.41674,1.43208 1.41674,1.47714 0,0.0273 0.0505,0.0866 0.11226,0.13173 0.0617,0.0451 0.0941,0.10027 0.0719,0.1225 -0.0222,0.0222 -0.0851,-0.004 -0.13977,-0.059 -0.0547,-0.0546 -0.11991,-0.0994 -0.14501,-0.0994 -0.0428,0 -0.80043,-0.59412 -0.99741,-0.78215 -0.0494,-0.0471 -0.15141,-0.12875 -0.2268,-0.18145 -0.0754,-0.0527 -0.4142,-0.31972 -0.75291,-0.5934 l -0.61585,-0.4976 -0.65962,-0.002 c -0.48341,-0.002 -0.75395,-0.0353 -1.01275,-0.12632 -0.19422,-0.0683 -0.39211,-0.12516 -0.43974,-0.12632 -0.0476,-0.001 -0.17765,-0.0411 -0.28893,-0.0889 -0.11127,-0.0477 -0.33234,-0.12119 -0.49125,-0.16322 -0.15891,-0.042 -0.43339,-0.12056 -0.60995,-0.1745 -0.17657,-0.054 -0.43661,-0.12662 -0.57786,-0.16149 -0.14125,-0.0349 -0.28427,-0.0906 -0.31782,-0.12393 -0.0335,-0.0333 -0.13031,-0.0605 -0.21502,-0.0605 -0.0847,0 -0.24506,-0.0397 -0.35634,-0.0882 -0.22201,-0.0968 -1.2084,-0.39944 -1.61486,-0.49547 -0.14125,-0.0334 -0.31461,-0.085 -0.38523,-0.11475 -0.0706,-0.0297 -0.30177,-0.10489 -0.51365,-0.16702 -0.39838,-0.11681 -0.83921,-0.24886 -1.28412,-0.38467 -0.14126,-0.0431 -0.43018,-0.12924 -0.64206,-0.19139 -0.21188,-0.0621 -0.50979,-0.15633 -0.66202,-0.20932 -0.15223,-0.053 -0.28746,-0.0857 -0.30052,-0.0726 -0.0235,0.0235 0.16277,0.2295 1.49605,1.65444 0.37752,0.40348 0.8742,0.93644 1.10374,1.18436 0.62504,0.67509 0.9744,1.00343 1.06769,1.00343 0.0252,0 0.0914,0.0386 0.14717,0.0857 0.11679,0.0988 1.04117,0.49423 1.5139,0.64768 0.17657,0.0573 0.37881,0.1284 0.44944,0.15796 0.0706,0.0296 0.30177,0.10457 0.51365,0.16667 0.21188,0.0621 0.47192,0.14098 0.57786,0.17526 0.48021,0.1554 1.75078,0.41299 2.66455,0.5402 1.14733,0.15972 3.13316,0.24619 3.94867,0.17193 z m -3.35848,-3.86314 c 0.28105,-0.0659 0.58155,-0.39326 0.83839,-0.9132 0.13243,-0.26808 0.24078,-0.52089 0.24078,-0.56181 0,-0.0409 0.0266,-0.0744 0.0591,-0.0744 0.0325,0 0.0781,-0.0867 0.10141,-0.19262 0.0233,-0.10594 0.0658,-0.19262 0.0944,-0.19262 0.0287,0 0.072,-0.0792 0.0963,-0.17592 0.0243,-0.0968 0.0636,-0.19066 0.0873,-0.20867 0.0237,-0.018 0.15171,-0.24944 0.28446,-0.51429 0.13275,-0.26485 0.34182,-0.65491 0.46461,-0.86679 0.12279,-0.21188 0.25535,-0.46469 0.29458,-0.5618 0.0392,-0.0971 0.0974,-0.17657 0.12926,-0.17657 0.0319,0 0.0579,-0.0318 0.0579,-0.0706 0,-0.0843 0.46064,-0.85111 0.5297,-0.88181 0.0265,-0.0118 0.0482,-0.0535 0.0482,-0.0928 0,-0.0984 1.80759,-2.80721 1.87327,-2.80721 0.0291,0 0.0529,-0.0279 0.0529,-0.0621 0,-0.0769 1.01843,-1.43859 1.09803,-1.46813 0.0317,-0.0118 0.0577,-0.0623 0.0577,-0.11236 0,-0.05 0.0239,-0.091 0.0531,-0.091 0.0292,0 0.17866,-0.17335 0.33216,-0.38523 0.15349,-0.21188 0.30297,-0.38524 0.33216,-0.38524 0.0292,0 0.0531,-0.0323 0.0531,-0.0718 0,-0.0792 0.14041,-0.24729 0.95682,-1.14555 0.64823,-0.71322 3.30701,-3.40551 3.36312,-3.40551 0.0212,0 0.16517,-0.12279 0.31996,-0.27287 0.31707,-0.30743 0.51564,-0.48068 0.97551,-0.85109 0.17512,-0.14106 0.36377,-0.30066 0.41923,-0.35467 0.0555,-0.054 0.23723,-0.19616 0.40392,-0.31587 0.1667,-0.11971 0.30308,-0.24165 0.30308,-0.27098 0,-0.0293 0.0409,-0.0533 0.091,-0.0533 0.05,0 0.10059,-0.0259 0.11236,-0.0577 0.0283,-0.0762 1.38956,-1.09803 1.46278,-1.09803 0.0312,0 0.0664,-0.0217 0.0782,-0.0481 0.0233,-0.0525 0.25887,-0.2234 0.85942,-0.62345 0.55487,-0.36962 0.62714,-0.41537 0.73503,-0.46523 0.053,-0.0245 0.1252,-0.0701 0.16051,-0.10138 0.0353,-0.0313 0.21746,-0.15048 0.40476,-0.2649 l 0.34055,-0.20802 -0.40476,-0.11124 c -0.22261,-0.0612 -0.54922,-0.15152 -0.72578,-0.20075 -0.60602,-0.16896 -1.45834,-0.39802 -2.15091,-0.57805 -0.22953,-0.0597 -0.54735,-0.14667 -0.70626,-0.19333 -0.15891,-0.0467 -0.3976,-0.1048 -0.53041,-0.12919 -0.13282,-0.0244 -0.25732,-0.07 -0.27667,-0.10127 -0.0193,-0.0313 -0.0959,-0.0569 -0.17021,-0.0569 -0.0743,0 -0.28204,-0.0424 -0.46171,-0.0941 -0.17967,-0.0518 -0.48558,-0.13681 -0.6798,-0.18897 -0.19423,-0.0522 -0.51909,-0.14041 -0.72192,-0.19608 -0.20283,-0.0557 -0.5351,-0.14538 -0.73837,-0.19934 -0.48029,-0.1275 -0.96191,-0.25878 -1.38127,-0.37651 -0.36452,-0.10233 -0.80494,-0.22009 -1.46025,-0.39044 -0.22954,-0.0597 -0.54736,-0.14604 -0.70627,-0.19194 -0.15891,-0.0459 -0.3891,-0.10443 -0.51154,-0.13007 -0.12244,-0.0256 -0.2669,-0.0684 -0.32103,-0.0951 -0.0541,-0.0267 -0.24288,-0.0838 -0.41945,-0.12698 -0.17656,-0.0432 -0.49438,-0.12246 -0.70626,-0.17616 -0.60693,-0.15381 -2.44745,-0.18293 -3.04979,-0.0482 -0.79112,0.17689 -1.9133,0.60387 -1.97969,0.75325 -0.0118,0.0265 -0.059,0.0482 -0.10496,0.0482 -0.0814,0 -0.99405,0.66275 -1.3952,1.01312 -1.21173,1.05836 -2.03732,1.92093 -3.3902,3.54207 -0.15891,0.19042 -0.33949,0.39911 -0.40129,0.46376 -0.0618,0.0646 -0.11236,0.14289 -0.11236,0.17388 0,0.031 -0.0406,0.09 -0.0902,0.13123 -0.0913,0.0757 -1.39375,2.01013 -1.47328,2.18805 -0.0237,0.053 -0.10009,0.18299 -0.1698,0.28893 -0.0697,0.10594 -0.15788,0.26426 -0.19593,0.35182 -0.038,0.0876 -0.0891,0.17425 -0.11355,0.19262 -0.0673,0.0507 -1.1033,2.15199 -1.1033,2.23784 0,0.0412 -0.0289,0.0749 -0.0642,0.0749 -0.0353,0 -0.0642,0.0461 -0.0642,0.10245 0,0.0563 -0.0407,0.17915 -0.0905,0.27288 -0.0498,0.0937 -0.15242,0.32933 -0.22816,0.52355 -0.0757,0.19423 -0.16158,0.41092 -0.19078,0.48155 -0.0292,0.0706 -0.10303,0.25843 -0.16409,0.41734 -0.061,0.15891 -0.1365,0.35475 -0.16765,0.43521 -0.15821,0.40859 -0.50718,1.50576 -0.50718,1.59459 0,0.0559 -0.0408,0.19274 -0.0906,0.30402 -0.0856,0.19123 -0.40835,1.33797 -0.45447,1.61485 -0.0118,0.0706 -0.0544,0.25843 -0.0948,0.41734 -0.19741,0.77675 -0.44552,2.19736 -0.49621,2.84112 -0.034,0.43238 -0.0337,0.43339 0.13234,0.43339 0.0916,0 0.27539,0.0405 0.40853,0.0901 0.35679,0.13281 0.89732,0.29513 0.98281,0.29513 0.041,0 0.16558,0.0391 0.27686,0.0868 0.11128,0.0478 0.31789,0.11679 0.45915,0.15342 0.42416,0.11001 1.40347,0.40659 1.54094,0.46666 0.0706,0.0309 0.22859,0.0759 0.35103,0.10012 0.12244,0.0242 0.2669,0.0656 0.32103,0.0921 0.0541,0.0264 0.27177,0.098 0.48365,0.15912 0.21188,0.0611 0.50081,0.14916 0.64206,0.19571 0.14126,0.0465 0.357,0.10497 0.47944,0.12981 0.12244,0.0248 0.2669,0.0668 0.32103,0.0932 0.0541,0.0264 0.27177,0.098 0.48365,0.15912 0.21188,0.0611 0.50178,0.15136 0.64421,0.20061 0.14244,0.0493 0.34133,0.0895 0.44199,0.0895 0.2006,0 0.69259,0.12962 0.74368,0.19593 0.0862,0.11186 0.37174,0.20465 0.68862,0.22378 0.21848,0.0132 0.39777,0.0633 0.47436,0.13262 0.0731,0.0662 0.2662,0.1233 0.47527,0.14064 0.19367,0.0161 0.35214,0.0545 0.35214,0.0855 0,0.0621 0.13419,0.0623 0.39757,5.2e-4 z m -1.64987,-3.56998 c -0.23984,-0.37184 -0.47415,-0.67608 -0.5207,-0.67608 -0.08,0 -0.37413,0.11495 -0.73104,0.28574 -0.0883,0.0422 -0.33387,0.13127 -0.54575,0.19783 -0.21188,0.0666 -0.42972,0.15731 -0.48408,0.20167 -0.0544,0.0444 -0.19882,0.0935 -0.32103,0.10931 -0.1222,0.0157 -0.30026,0.0589 -0.39568,0.0958 -0.14322,0.0555 -0.16723,0.0509 -0.1376,-0.0264 0.0197,-0.0515 0.0626,-0.0936 0.0952,-0.0936 0.0326,0 0.0783,-0.0506 0.10151,-0.11236 0.0577,-0.15366 0.21623,-0.26838 0.37436,-0.27083 0.0724,-10e-4 0.16387,-0.0343 0.20327,-0.0737 0.0877,-0.0877 0.33195,-0.23308 0.48374,-0.28796 0.0618,-0.0223 0.11236,-0.0661 0.11236,-0.0973 0,-0.0312 0.0361,-0.0577 0.0803,-0.059 0.0441,-10e-4 0.25935,-0.11137 0.47825,-0.24473 l 0.398,-0.24247 -0.18905,-0.28496 c -0.10398,-0.15674 -0.18918,-0.32109 -0.18933,-0.36523 -1.3e-4,-0.0441 -0.0263,-0.0803 -0.0582,-0.0803 -0.0319,0 -0.0897,-0.0795 -0.1286,-0.17656 -0.0389,-0.0971 -0.12681,-0.26325 -0.19541,-0.36919 -0.0686,-0.10594 -0.19128,-0.32263 -0.27262,-0.48154 -0.0814,-0.15891 -0.16238,-0.30338 -0.18006,-0.32103 -0.0177,-0.0177 -0.1038,-0.16935 -0.19134,-0.33709 -0.0875,-0.16773 -0.17423,-0.30498 -0.19262,-0.30499 -0.0717,-3e-5 -0.86996,0.2912 -0.90023,0.32844 -0.0177,0.0217 -0.10433,0.0595 -0.19261,0.084 -0.16781,0.0465 -0.53227,0.18566 -0.87649,0.33469 -0.11128,0.0482 -0.24681,0.0876 -0.30119,0.0876 -0.0544,0 -0.11453,0.0253 -0.13367,0.0563 -0.0191,0.031 -0.16649,0.0895 -0.32744,0.13 -0.16095,0.0405 -0.30865,0.11541 -0.32822,0.16639 -0.0309,0.0805 0.32896,1.30824 0.48941,1.6698 0.10563,0.23801 0.13484,0.40632 0.0767,0.44222 -0.0509,0.0314 -0.76431,-0.97876 -1.16258,-1.64609 -0.079,-0.13242 -0.16301,-0.23983 -0.18661,-0.23867 -0.0668,0.003 -0.67704,0.22053 -0.75163,0.26762 -0.14698,0.0928 -0.87533,0.31854 -0.91138,0.28249 -0.0212,-0.0212 0.01,-0.0386 0.0684,-0.0386 0.0589,0 0.10701,-0.0261 0.10701,-0.0581 0,-0.0865 0.98565,-0.64816 1.13744,-0.64816 0.20928,0 0.28892,-0.14431 0.17187,-0.31142 -0.0974,-0.139 -0.66336,-1.82521 -0.66594,-1.98395 -7.2e-4,-0.0441 0.0265,-0.0802 0.0606,-0.0802 0.0965,0 1.13806,1.63211 1.26028,1.97491 0.003,0.009 0.16885,-0.0703 0.36797,-0.17657 0.19912,-0.10625 0.40593,-0.19319 0.45957,-0.19319 0.0536,0 0.0975,-0.0266 0.0975,-0.0591 0,-0.0325 0.0867,-0.0781 0.19262,-0.10141 0.10594,-0.0233 0.19261,-0.0689 0.19261,-0.10141 0,-0.0325 0.0305,-0.0591 0.0677,-0.0591 0.0372,0 0.36226,-0.14094 0.72232,-0.3132 0.36006,-0.17226 0.71966,-0.33311 0.79911,-0.35746 0.0795,-0.0243 0.14447,-0.0695 0.14447,-0.10026 0,-0.0308 -0.12707,-0.31056 -0.28238,-0.62168 -0.15532,-0.31113 -0.3755,-0.76794 -0.4893,-1.01513 -0.1138,-0.24719 -0.29718,-0.63725 -0.4075,-0.86678 l -0.20059,-0.41734 -0.89922,0.30312 c -0.99314,0.33479 -1.35002,0.39442 -0.8029,0.13416 1.20343,-0.57247 1.40194,-0.662 1.46783,-0.662 0.0889,0 0.0959,-0.21698 0.012,-0.37006 -0.0336,-0.0613 -0.10347,-0.21261 -0.15526,-0.33621 -0.0518,-0.1236 -0.15268,-0.36196 -0.22422,-0.5297 -0.106,-0.24856 -0.11291,-0.30498 -0.0374,-0.30498 0.051,0 0.0927,0.0316 0.0927,0.0703 0,0.0672 0.51014,0.87623 0.6893,1.0931 0.0937,0.1134 0.18061,0.0935 0.78744,-0.18027 0.15891,-0.0717 0.43339,-0.19469 0.60995,-0.27332 0.17657,-0.0786 0.43661,-0.19638 0.57786,-0.26167 0.61318,-0.28338 1.01737,-0.44812 1.09949,-0.44812 0.0486,0 0.0883,-0.0289 0.0883,-0.0642 0,-0.0353 0.0361,-0.0644 0.0803,-0.0646 0.0441,-1.9e-4 0.15692,-0.0404 0.25062,-0.0893 0.0937,-0.0489 0.27427,-0.12318 0.40128,-0.1651 0.12701,-0.0419 0.23093,-0.11492 0.23093,-0.16224 0,-0.0473 -0.12387,-0.29788 -0.27527,-0.55682 -0.15141,-0.25894 -0.37533,-0.67305 -0.4976,-0.92024 -0.12228,-0.24719 -0.2417,-0.46418 -0.26539,-0.48219 -0.0237,-0.018 -0.0629,-0.11191 -0.0872,-0.20867 -0.0243,-0.0968 -0.0676,-0.17592 -0.0963,-0.17592 -0.0287,0 -0.0712,-0.0867 -0.0944,-0.19262 -0.0233,-0.10594 -0.0666,-0.19262 -0.0963,-0.19262 -0.0297,0 -0.073,-0.0867 -0.0963,-0.19262 -0.0484,-0.22028 -0.0768,-0.22862 -0.32974,-0.0967 -0.10115,0.0528 -0.22725,0.0965 -0.28022,0.0971 -0.053,6.8e-4 -0.27946,0.0586 -0.50332,0.12881 -0.5523,0.17313 -0.77152,0.16844 -0.39556,-0.008 0.15891,-0.0748 0.47673,-0.22426 0.70626,-0.33218 0.60012,-0.28216 0.58267,-0.25167 0.38409,-0.67137 -0.0961,-0.20308 -0.1962,-0.44147 -0.22248,-0.52975 l -0.0478,-0.16052 0.13571,0.14178 c 0.0746,0.078 0.1357,0.17188 0.1357,0.20867 0,0.0368 0.0217,0.0677 0.0482,0.0686 0.0265,9.5e-4 0.11826,0.11538 0.20393,0.25429 0.15112,0.24502 0.32577,0.38206 0.32577,0.25562 0,-0.0342 0.0361,-0.0624 0.0803,-0.0626 0.0441,-1.9e-4 0.16694,-0.0459 0.27288,-0.10157 0.10594,-0.0556 0.35806,-0.17111 0.56027,-0.25659 0.31503,-0.13319 0.67757,-0.29154 1.2375,-0.54055 0.0706,-0.0314 0.28732,-0.1196 0.48154,-0.19598 0.19423,-0.0764 0.43982,-0.17639 0.54576,-0.22224 0.10594,-0.0459 0.32263,-0.1333 0.48154,-0.19432 0.15891,-0.061 0.37997,-0.15036 0.49125,-0.19854 0.11128,-0.0482 0.24681,-0.0876 0.30119,-0.0876 0.0544,0 0.11535,-0.0267 0.1355,-0.0593 0.0201,-0.0326 0.12264,-0.0782 0.22777,-0.10125 0.10513,-0.0231 0.20796,-0.0692 0.2285,-0.10242 0.0351,-0.0568 -0.4028,-1.01505 -0.49625,-1.08604 -0.0237,-0.018 -0.063,-0.11191 -0.0872,-0.20867 -0.0243,-0.0968 -0.0676,-0.17592 -0.0963,-0.17592 -0.0287,0 -0.0712,-0.0867 -0.0945,-0.19262 -0.0233,-0.10594 -0.0689,-0.19262 -0.10141,-0.19262 -0.0325,0 -0.0591,-0.0329 -0.0591,-0.0732 0,-0.059 -0.2301,-0.58445 -0.30302,-0.692 -0.01,-0.0148 -0.0832,0.007 -0.16257,0.0486 -0.1458,0.0762 -0.49307,0.15968 -1.13956,0.27403 -0.19422,0.0344 -0.4687,0.0883 -0.60996,0.11998 -0.34632,0.0776 -0.41901,-0.0184 -0.1161,-0.15331 0.13448,-0.0599 0.32121,-0.15067 0.41494,-0.20171 0.0937,-0.0511 0.22519,-0.0928 0.29214,-0.0928 0.0669,0 0.14916,-0.0248 0.18271,-0.055 0.16828,-0.15181 2.23926,-0.67574 2.94975,-0.74624 0.35222,-0.035 0.37392,-0.03 0.25683,0.0585 -0.0704,0.0532 -0.15679,0.0977 -0.19211,0.0991 -0.0353,10e-4 -0.15088,0.0479 -0.25682,0.10347 -0.10594,0.0556 -0.36598,0.1591 -0.57786,0.23007 -0.21188,0.071 -0.50738,0.17347 -0.65666,0.22777 l -0.27143,0.0987 0.12142,0.1684 c 0.0668,0.0926 0.1817,0.23219 0.25537,0.31017 0.0737,0.078 0.13396,0.16147 0.13396,0.18554 0,0.0241 0.0396,0.0758 0.088,0.11505 0.12329,0.0999 1.06773,1.37985 1.06773,1.44704 0,0.1295 0.36123,0.13345 0.54576,0.006 0.0353,-0.0244 0.80097,-0.28478 1.70146,-0.57863 0.90049,-0.29385 1.71671,-0.5657 1.81382,-0.60411 0.17627,-0.0697 0.23017,-0.1904 0.11643,-0.26069 -0.0331,-0.0204 -0.10156,-0.11605 -0.15218,-0.21246 -0.83905,-1.59806 -0.83651,-1.61657 0.084,-0.61299 0.12363,0.13479 0.33636,0.38205 0.47274,0.54946 0.27099,0.33267 0.29196,0.33591 0.85475,0.13205 0.42275,-0.15314 0.47703,-0.0545 0.073,0.13275 -0.20079,0.0931 -0.39581,0.16919 -0.43339,0.16919 -0.0823,0 -0.092,0.17299 -0.0115,0.20332 0.0802,0.0302 0.52098,0.61915 0.52098,0.69612 0,0.035 0.0242,0.0636 0.0537,0.0636 0.047,0 0.24558,0.28877 0.90503,1.31623 0.0907,0.14125 0.22263,0.37239 0.29325,0.51365 0.0706,0.14125 0.15328,0.27495 0.18368,0.29711 0.0685,0.0499 0.26457,0.008 0.54118,-0.1151 0.11617,-0.0518 0.26063,-0.0828 0.32103,-0.069 0.10855,0.0249 -0.53738,0.3685 -0.69268,0.3685 -0.0398,0 0.0448,0.21981 0.18802,0.48845 0.14322,0.26865 0.24512,0.51317 0.22645,0.54337 -0.0187,0.0302 -0.14125,-0.0664 -0.2724,-0.21471 -0.13115,-0.1483 -0.3091,-0.34365 -0.39544,-0.43412 l -0.15699,-0.16448 -0.35666,0.17626 c -0.33079,0.16348 -0.52594,0.25248 -1.38396,0.63115 -0.17656,0.0779 -0.47994,0.21417 -0.67416,0.30278 -0.63622,0.29023 -0.86317,0.39159 -1.12361,0.50181 -0.14125,0.0598 -0.36055,0.15633 -0.48733,0.21455 l -0.23052,0.10585 0.29032,0.57785 c 0.43775,0.87133 0.46544,0.93099 0.4321,0.93099 -0.0455,0 -0.30666,-0.27843 -0.45401,-0.48406 -0.0706,-0.0986 -0.16453,-0.21571 -0.20867,-0.26032 -0.0441,-0.0446 -0.0803,-0.0976 -0.0803,-0.11782 0,-0.0202 -0.0545,-0.0912 -0.12117,-0.15785 -0.0666,-0.0666 -0.15137,-0.17499 -0.1883,-0.24078 -0.0644,-0.11476 -0.0749,-0.11505 -0.25792,-0.007 -0.10493,0.0618 -0.22307,0.11236 -0.26252,0.11236 -0.0394,0 -0.17946,0.0703 -0.31112,0.15617 -0.23197,0.15133 -0.80404,0.38562 -1.3309,0.54507 -0.14126,0.0427 -0.31461,0.10313 -0.38524,0.13418 -0.39884,0.17535 -0.7428,0.31648 -1.0273,0.42151 -0.17656,0.0652 -0.39326,0.15558 -0.48154,0.20087 -0.0883,0.0453 -0.2053,0.0825 -0.26004,0.0828 -0.0547,1.9e-4 -0.12696,0.0235 -0.16051,0.0518 -0.0335,0.0283 -0.23435,0.11945 -0.44623,0.20266 -0.21188,0.0832 -0.39559,0.15952 -0.40823,0.16958 -0.0126,0.0101 0.0758,0.18613 0.19654,0.39125 0.12074,0.20512 0.27555,0.48852 0.34402,0.62977 0.0685,0.14126 0.14046,0.27127 0.15999,0.28893 0.0195,0.0177 0.1553,0.26852 0.30173,0.55747 0.40903,0.80717 0.39251,0.78778 0.5877,0.68975 0.26272,-0.13194 0.63052,-0.28413 0.68669,-0.28413 0.0609,0 1.06185,-0.36234 1.35156,-0.48924 0.11128,-0.0487 0.23077,-0.0886 0.26554,-0.0886 0.0348,0 0.14597,-0.0432 0.24712,-0.0959 0.10115,-0.0528 0.24314,-0.0961 0.31553,-0.0963 0.0724,-1.9e-4 0.15907,-0.0247 0.19262,-0.0544 0.0867,-0.0767 0.9317,-0.3487 0.96865,-0.31175 0.0169,0.0169 -0.0576,0.0698 -0.1656,0.11759 -0.10797,0.0478 -0.19631,0.10644 -0.19631,0.13033 0,0.0239 -0.0867,0.0625 -0.19261,0.0857 -0.10594,0.0233 -0.19262,0.0666 -0.19262,0.0963 0,0.0297 -0.0867,0.0731 -0.19262,0.0963 -0.10594,0.0233 -0.19262,0.0666 -0.19262,0.0963 0,0.0297 -0.0867,0.073 -0.19262,0.0963 -0.10594,0.0233 -0.19261,0.0666 -0.19261,0.0963 0,0.0297 -0.0867,0.073 -0.19262,0.0963 -0.10594,0.0233 -0.19262,0.0666 -0.19262,0.0963 0,0.0297 -0.0867,0.073 -0.19262,0.0963 -0.10594,0.0233 -0.19262,0.0689 -0.19262,0.10141 0,0.0325 -0.0322,0.0591 -0.0716,0.0591 -0.0839,0 -1.52495,0.70442 -1.56073,0.7629 -0.0134,0.0218 0.0879,0.27082 0.22499,0.55333 0.13709,0.2825 0.24979,0.54735 0.25044,0.58855 6.5e-4,0.0412 0.0279,0.0845 0.0606,0.0963 0.0327,0.0118 0.0783,0.10808 0.10123,0.21402 l 0.0418,0.19262 -0.19581,-0.22472 c -0.10769,-0.1236 -0.19658,-0.26084 -0.19753,-0.30498 -9.5e-4,-0.0441 -0.0266,-0.0803 -0.057,-0.0803 -0.0304,0 -0.1782,-0.19009 -0.32846,-0.42243 -0.23529,-0.36382 -0.29388,-0.41725 -0.42227,-0.38502 -0.14041,0.0352 -0.48636,0.18605 -1.42534,0.62134 -0.2208,0.10236 -0.41381,0.18611 -0.42891,0.18611 -0.0151,0 -0.22449,0.0885 -0.46532,0.1967 -0.6452,0.28982 -0.66407,0.29792 -1.04783,0.45011 -0.19422,0.077 -0.45445,0.18704 -0.57828,0.24448 l -0.22514,0.10443 0.14013,0.25656 c 0.17799,0.32589 1.01727,2.06517 1.21735,2.52279 0.005,0.0105 0.22127,-0.0801 0.48155,-0.20114 0.26028,-0.12108 0.6177,-0.2829 0.79426,-0.3596 0.17657,-0.0767 0.37882,-0.16628 0.44945,-0.19908 0.53423,-0.24811 2.20119,-0.80335 2.25382,-0.75072 0.0565,0.0565 -1.68082,1.15344 -2.31803,1.46358 -0.17657,0.0859 -0.33577,0.17565 -0.35378,0.19937 -0.018,0.0237 -0.11191,0.063 -0.20867,0.0873 -0.0968,0.0243 -0.17592,0.0668 -0.17592,0.0944 0,0.0277 -0.0752,0.0692 -0.1672,0.0922 -0.092,0.0231 -0.23485,0.0863 -0.31751,0.14045 -0.16355,0.10716 -0.16215,0.11787 0.0872,0.66821 0.5783,1.27633 0.53843,1.35386 -0.14853,0.28882 z m -1.94611,-4.96544 c 0.0183,-0.0405 0.63037,-0.30847 1.11171,-0.48682 0.10594,-0.0393 0.20706,-0.0861 0.22472,-0.10408 0.0177,-0.018 0.20546,-0.1 0.41734,-0.18219 0.21188,-0.0822 0.44302,-0.17426 0.51365,-0.20456 0.55951,-0.24 0.74637,-0.31643 1.0273,-0.42014 0.17656,-0.0652 0.39326,-0.15558 0.48154,-0.20087 0.0883,-0.0453 0.19663,-0.0825 0.24077,-0.0828 0.11462,-5.8e-4 0.0994,-0.0871 -0.0482,-0.27474 -0.0706,-0.0898 -0.12841,-0.19481 -0.12841,-0.23338 0,-0.0386 -0.0217,-0.0703 -0.0482,-0.0705 -0.0461,-3.9e-4 -0.15583,-0.16684 -0.41446,-0.62841 -0.0652,-0.11631 -0.20444,-0.33011 -0.30948,-0.47513 -0.10505,-0.14501 -0.19099,-0.30266 -0.19099,-0.35033 0,-0.0477 -0.0236,-0.0867 -0.0523,-0.0867 -0.0288,0 -0.10157,-0.1033 -0.16178,-0.22955 -0.0995,-0.2087 -0.12723,-0.22564 -0.30514,-0.18657 -0.10762,0.0236 -0.27319,0.0834 -0.36792,0.13284 -0.0947,0.0494 -0.2211,0.09 -0.28082,0.0903 -0.0597,1.9e-4 -0.12445,0.0261 -0.14385,0.0575 -0.0194,0.0314 -0.11502,0.0762 -0.21246,0.0996 -0.17897,0.0429 -1.15987,0.38718 -1.39709,0.49027 -0.17054,0.0741 -0.67368,0.25172 -0.83468,0.29464 -0.0706,0.0188 -0.21946,0.0747 -0.33073,0.12416 -0.11128,0.0495 -0.25988,0.0899 -0.33022,0.0899 -0.12482,0 -0.24594,0.16438 -0.15069,0.20452 0.0684,0.0288 0.52271,0.79313 0.52271,0.87933 0,0.0395 0.0235,0.0719 0.0523,0.0719 0.0288,0 0.10007,0.0939 0.15845,0.20867 0.0584,0.11476 0.22438,0.41091 0.3689,0.65811 0.14452,0.24719 0.29595,0.52812 0.33652,0.62429 0.0726,0.17218 0.21192,0.27784 0.25142,0.19073 z m 3.06999,-5.26173 c 0.1236,-0.0535 0.28251,-0.12072 0.35314,-0.14928 0.0706,-0.0286 0.25843,-0.10619 0.41734,-0.1725 0.15891,-0.0663 0.41894,-0.17198 0.57785,-0.23482 0.15891,-0.0628 0.33875,-0.13997 0.39965,-0.17139 0.0609,-0.0314 0.29204,-0.11985 0.51365,-0.19649 0.22161,-0.0766 0.53002,-0.20687 0.68537,-0.2894 0.15534,-0.0825 0.32869,-0.15104 0.38523,-0.15224 0.0565,-10e-4 0.21837,-0.058 0.35962,-0.12623 0.14126,-0.0682 0.32184,-0.12504 0.40129,-0.12624 0.0795,-10e-4 0.14447,-0.0256 0.14447,-0.0542 0,-0.0286 0.17314,-0.10392 0.38476,-0.16731 l 0.38477,-0.11526 -0.14167,-0.20187 c -0.0779,-0.11103 -0.16439,-0.21151 -0.19215,-0.22328 -0.0278,-0.0118 -0.0505,-0.0599 -0.0505,-0.10701 0,-0.0471 -0.0217,-0.0952 -0.0482,-0.10701 -0.0703,-0.0313 -0.33708,-0.42298 -0.33708,-0.495 0,-0.0338 -0.0217,-0.0711 -0.0482,-0.0829 -0.0731,-0.0325 -0.33708,-0.42433 -0.33708,-0.50035 0,-0.0368 -0.0289,-0.0668 -0.0642,-0.0668 -0.0353,0 -0.0642,-0.0362 -0.0642,-0.0805 0,-0.0443 -0.10113,-0.2227 -0.22472,-0.39654 -0.1236,-0.17384 -0.22473,-0.35433 -0.22473,-0.40108 0,-0.0959 -0.29336,-0.11752 -0.35008,-0.0257 -0.0201,0.0326 -0.13008,0.0798 -0.2443,0.10488 -0.19761,0.0434 -0.28015,0.0745 -0.82785,0.31204 -0.12894,0.0559 -0.26287,0.10167 -0.29764,0.10167 -0.0348,0 -0.14598,0.0432 -0.24712,0.0959 -0.10115,0.0528 -0.23486,0.0961 -0.29714,0.0963 -0.0623,1.9e-4 -0.1634,0.0293 -0.22472,0.0646 -0.15762,0.0908 -2.60934,0.89888 -2.72717,0.89888 -0.19091,0 -0.2492,0.16013 -0.11192,0.30747 0.07,0.0751 0.12725,0.16429 0.12725,0.19814 0,0.0339 0.0217,0.0712 0.0482,0.0829 0.0703,0.0313 0.33708,0.42298 0.33708,0.495 0,0.0338 0.0217,0.0711 0.0481,0.0829 0.0703,0.0312 0.33708,0.42298 0.33708,0.49499 0,0.0338 0.0222,0.0711 0.0494,0.0829 0.0272,0.0118 0.21964,0.30428 0.42771,0.65003 0.20807,0.34574 0.39531,0.63842 0.4161,0.65039 0.0208,0.012 0.13891,-0.022 0.2625,-0.0756 z m 5.87108,-2.29697 c 0.0686,-0.0519 0.18556,-0.0943 0.26004,-0.0943 0.0745,0 0.16285,-0.0262 0.19639,-0.0582 0.0335,-0.032 0.16212,-0.0885 0.28572,-0.12539 0.24596,-0.0735 1.14519,-0.39544 1.43277,-0.51297 0.0994,-0.0406 0.23494,-0.0739 0.30119,-0.0739 0.0662,0 0.13692,-0.0267 0.15707,-0.0593 0.0201,-0.0326 0.12492,-0.0787 0.23283,-0.10236 0.10792,-0.0237 0.27372,-0.0835 0.36845,-0.13296 0.0947,-0.0494 0.21705,-0.09 0.2718,-0.0903 0.16293,-6.5e-4 0.44515,-0.15464 0.44569,-0.24319 2.6e-4,-0.0453 -0.0428,-0.0989 -0.0958,-0.11923 -0.053,-0.0203 -0.0963,-0.0772 -0.0963,-0.12639 0,-0.0492 -0.0233,-0.0894 -0.0518,-0.0894 -0.0285,0 -0.19038,-0.18871 -0.35973,-0.41936 -0.16935,-0.23064 -0.34106,-0.45534 -0.38157,-0.49933 -0.17226,-0.18704 -0.90244,-1.26106 -0.95876,-1.41024 -0.074,-0.1959 -0.21966,-0.19331 -0.65342,0.0116 -0.23106,0.10917 -0.43246,0.19849 -0.44756,0.19849 -0.0151,0 -0.22449,0.0887 -0.46532,0.19709 -1.05229,0.47363 -1.29546,0.57339 -1.39779,0.57339 -0.0488,0 -0.0984,0.0217 -0.11018,0.0482 -0.0186,0.0418 -0.50284,0.24952 -0.84003,0.36033 -0.13779,0.0453 -0.1456,0.19027 -0.016,0.29778 0.053,0.044 0.0963,0.11733 0.0963,0.16303 0,0.0457 0.0217,0.0927 0.0482,0.1045 0.056,0.0249 0.33708,0.41636 0.33708,0.46952 0,0.0198 0.0789,0.1582 0.17526,0.30758 0.25919,0.40168 0.29144,0.45666 0.46674,0.79584 0.0883,0.17074 0.18035,0.32547 0.20466,0.34385 0.0243,0.0184 0.0742,0.11228 0.11083,0.20867 0.0756,0.19894 0.27921,0.23133 0.48337,0.0769 z m 7.50811,-3.0317 c -0.26323,-0.24279 -0.66638,-0.75176 -0.66638,-0.84129 0,-0.0405 -0.0233,-0.0736 -0.0519,-0.0736 -0.0285,0 -0.0985,-0.10834 -0.15549,-0.24077 -0.35033,-0.81385 -0.34475,-0.94167 0.025,-0.57348 0.49089,0.48879 0.71554,0.83178 1.04434,1.59443 0.16303,0.37814 0.10876,0.41553 -0.19564,0.13476 z m 9.22136,2.09229 c 0.15891,-0.0754 0.39005,-0.18051 0.51364,-0.23358 0.1236,-0.0531 0.30142,-0.13544 0.39515,-0.18305 0.0937,-0.0476 0.21652,-0.0866 0.27287,-0.0866 0.0564,0 0.10246,-0.0289 0.10246,-0.0642 0,-0.0353 0.0347,-0.0642 0.0771,-0.0642 0.10107,0 3.33237,-1.61129 3.44273,-1.71671 0.0467,-0.0446 0.11064,-0.0811 0.14218,-0.0811 0.0315,0 0.2715,-0.13002 0.53325,-0.28893 0.26174,-0.15891 0.50836,-0.28893 0.54803,-0.28893 0.0397,0 0.0721,-0.0226 0.0721,-0.0501 0,-0.0276 0.0795,-0.0848 0.17657,-0.12726 0.0971,-0.0424 0.26325,-0.135 0.36919,-0.20574 0.10594,-0.0707 0.2504,-0.15505 0.32103,-0.18735 0.0706,-0.0323 0.23804,-0.13386 0.37203,-0.22567 0.134,-0.0918 0.27124,-0.16695 0.30498,-0.16695 0.0337,0 0.0614,-0.0269 0.0614,-0.0599 0,-0.0329 0.065,-0.0802 0.14446,-0.10496 0.0795,-0.0248 0.15891,-0.0629 0.17657,-0.0846 0.0661,-0.0813 0.44658,-0.32843 0.50569,-0.32843 0.0338,0 0.0711,-0.0217 0.0829,-0.0482 0.0313,-0.0703 0.42298,-0.33708 0.495,-0.33708 0.0338,0 0.0711,-0.0217 0.0829,-0.0482 0.0258,-0.058 0.41724,-0.33708 0.47283,-0.33708 0.0216,0 0.077,-0.0361 0.12314,-0.0803 0.0461,-0.0441 0.14859,-0.1236 0.2277,-0.17657 0.0791,-0.053 0.32956,-0.23355 0.55655,-0.40129 0.22699,-0.16774 0.43788,-0.30498 0.46864,-0.30498 0.0308,0 0.0656,-0.0258 0.0773,-0.0573 0.0118,-0.0315 0.23477,-0.21844 0.49555,-0.41541 0.26078,-0.19696 0.51523,-0.41678 0.56544,-0.48847 0.0502,-0.0717 0.12091,-0.13034 0.15711,-0.13034 0.0523,0 0.55114,-0.3674 0.69738,-0.51365 0.0177,-0.0177 0.17657,-0.14588 0.35313,-0.28494 0.17657,-0.13905 0.36789,-0.29796 0.42517,-0.35313 0.0573,-0.0552 0.33175,-0.30255 0.60995,-0.54974 0.67294,-0.59793 2.84475,-2.76796 3.36565,-3.36291 0.22808,-0.26049 0.45983,-0.52053 0.51499,-0.57785 0.0552,-0.0573 0.21407,-0.24869 0.35313,-0.42525 0.13906,-0.17657 0.26798,-0.33548 0.28648,-0.35314 0.0185,-0.0177 0.19164,-0.23435 0.38475,-0.48154 0.19312,-0.2472 0.39958,-0.50297 0.45881,-0.56838 0.0592,-0.0654 0.18799,-0.24599 0.28615,-0.40129 0.0982,-0.15529 0.20161,-0.28235 0.22988,-0.28235 0.0283,0 0.0514,-0.0398 0.0514,-0.0884 0,-0.0487 0.041,-0.12248 0.0911,-0.16409 0.11138,-0.0924 1.16033,-1.66013 1.26604,-1.89214 0.0418,-0.0917 0.0969,-0.16674 0.12238,-0.16674 0.0255,0 0.0639,-0.0506 0.0853,-0.11236 0.0214,-0.0618 0.0967,-0.19904 0.16732,-0.30498 0.0707,-0.10594 0.16431,-0.26485 0.20811,-0.35313 0.0438,-0.0883 0.0953,-0.17497 0.11435,-0.19262 0.0191,-0.0177 0.0692,-0.10434 0.11138,-0.19262 0.0422,-0.0883 0.16845,-0.31943 0.28063,-0.51365 0.35782,-0.61947 1.02652,-1.98265 1.46457,-2.985579 0.0617,-0.14126 0.16037,-0.36615 0.2193,-0.49978 0.12218,-0.27709 0.13892,-0.53239 0.039,-0.59417 -0.0375,-0.0232 -0.0952,-0.10433 -0.12826,-0.18036 -0.064,-0.14724 -0.19904,-0.37403 -0.25432,-0.42715 -0.0184,-0.0177 -0.0693,-0.10434 -0.11305,-0.19262 -0.0438,-0.0883 -0.13679,-0.24719 -0.20665,-0.35313 -0.0699,-0.10594 -0.14734,-0.23596 -0.17217,-0.28893 -0.0248,-0.053 -0.21294,-0.37471 -0.41804,-0.71497 -0.2051,-0.34027 -0.37291,-0.64846 -0.37291,-0.68487 0,-0.0364 -0.0217,-0.0758 -0.0482,-0.0876 -0.0691,-0.0307 -0.5297,-0.797541 -0.5297,-0.881811 0,-0.0388 -0.0261,-0.0706 -0.0579,-0.0706 -0.0319,0 -0.0897,-0.0795 -0.1286,-0.176567 -0.0389,-0.0971 -0.12795,-0.26325 -0.19795,-0.36919 -0.07,-0.10594 -0.15369,-0.2504 -0.186,-0.32103 -0.0323,-0.0706 -0.12803,-0.22953 -0.21273,-0.35313 -0.0847,-0.1236 -0.17465,-0.26806 -0.19989,-0.32103 -0.0252,-0.053 -0.13317,-0.24077 -0.23983,-0.41734 -0.10667,-0.17657 -0.22577,-0.38445 -0.26468,-0.46196 -0.0916,-0.18246 -0.2458,-0.24369 -0.24643,-0.0978 -5.8e-4,0.12686 -0.41797,1.40295 -0.51361,1.57017 -0.0351,0.0613 -0.0638,0.16414 -0.0638,0.2285 0,0.0643 -0.0424,0.17309 -0.0943,0.24164 -0.0519,0.0686 -0.0952,0.16551 -0.0963,0.21548 -0.002,0.0857 -0.29828,0.901148 -0.48034,1.321688 -0.0459,0.10594 -0.13303,0.32263 -0.1937,0.48154 -0.14039,0.36774 -0.27764,0.68909 -0.39297,0.92014 -0.0499,0.1 -0.0907,0.20769 -0.0907,0.23937 0,0.0317 -0.10269,0.28214 -0.22819,0.5566 -0.12551,0.27445 -0.2525,0.55679 -0.2822,0.62741 -0.0944,0.22451 -0.45715,1.01134 -0.68348,1.482609 -0.12027,0.25041 -0.21866,0.48878 -0.21866,0.5297 0,0.0409 -0.0266,0.0744 -0.0591,0.0744 -0.0325,0 -0.0781,0.0867 -0.10141,0.19262 -0.0233,0.10594 -0.0666,0.19262 -0.0963,0.19262 -0.0297,0 -0.073,0.0867 -0.0963,0.19262 -0.0233,0.10594 -0.0658,0.19262 -0.0944,0.19262 -0.0287,0 -0.072,0.0792 -0.0963,0.17592 -0.0243,0.0968 -0.0636,0.19066 -0.0873,0.20867 -0.0238,0.018 -0.19687,0.33612 -0.3847,0.70691 -0.18783,0.37079 -0.44245,0.84752 -0.56583,1.0594 -0.12339,0.21188 -0.25769,0.46469 -0.29846,0.5618 -0.0408,0.0971 -0.0967,0.17657 -0.12426,0.17657 -0.0276,0 -0.0501,0.0318 -0.0501,0.0706 0,0.0843 -0.46064,0.85112 -0.5297,0.88181 -0.0265,0.0118 -0.0481,0.0507 -0.0481,0.0866 0,0.0805 -0.46321,0.84691 -0.5297,0.87646 -0.0265,0.0118 -0.0482,0.0491 -0.0482,0.0829 0,0.072 -0.26675,0.46374 -0.33708,0.495 -0.0265,0.0118 -0.0482,0.0554 -0.0482,0.0969 0,0.10039 -1.01041,1.59352 -1.10756,1.6367 -0.0265,0.0118 -0.0482,0.0464 -0.0482,0.0769 0,0.0441 -0.65033,0.9637 -0.88401,1.25004 -0.0288,0.0353 -0.20664,0.26645 -0.39515,0.51364 -0.18851,0.2472 -0.36134,0.46389 -0.38406,0.48155 -0.0227,0.0177 -0.19909,0.23435 -0.39193,0.48155 -0.19284,0.24719 -0.42329,0.5247 -0.51212,0.61668 -0.0888,0.092 -0.29151,0.31989 -0.45042,0.50646 -0.97923,1.14972 -2.27528,2.44621 -3.46642,3.46759 -0.18532,0.15891 -0.40376,0.35071 -0.48543,0.42622 -0.0817,0.0755 -0.28049,0.2321 -0.44184,0.34797 -0.16134,0.11587 -0.29335,0.23467 -0.29335,0.26399 0,0.0293 -0.0409,0.0533 -0.091,0.0533 -0.05,0 -0.10059,0.0256 -0.11236,0.0569 -0.0302,0.0802 -0.61915,0.52099 -0.69612,0.52099 -0.035,0 -0.0637,0.024 -0.0637,0.0534 0,0.0612 -1.86648,1.31317 -2.183,1.46431 -0.053,0.0253 -0.11076,0.0631 -0.12841,0.0841 -0.0177,0.021 -0.10434,0.0748 -0.19262,0.11963 -0.0883,0.0448 -0.33387,0.1801 -0.54575,0.30056 -0.21188,0.12047 -0.60886,0.32878 -0.88216,0.46292 -0.27331,0.13413 -0.49723,0.27999 -0.4976,0.32414 -3.9e-4,0.0441 0.0228,0.0802 0.0515,0.0802 0.0287,0 0.11801,0.15079 0.19848,0.33508 0.12374,0.28339 0.14293,0.42203 0.12439,0.89891 -0.012,0.31012 -0.0219,0.56343 -0.0219,0.56292 0,-5.1e-4 0.13002,-0.0626 0.28893,-0.13801 z m -0.93099,-2.65777 c 0.17656,-0.0837 0.35714,-0.15329 0.40129,-0.15455 0.0441,-10e-4 0.0802,-0.0252 0.0802,-0.0531 0,-0.028 0.16614,-0.13047 0.36919,-0.22778 0.20305,-0.0973 0.51365,-0.26321 0.69021,-0.36866 0.17657,-0.10545 0.39327,-0.22628 0.48155,-0.26851 0.0883,-0.0422 0.17496,-0.0947 0.19262,-0.11664 0.0176,-0.0219 0.10433,-0.0771 0.19262,-0.12273 0.15845,-0.0818 1.43872,-0.92917 1.5697,-1.03891 0.0371,-0.0311 0.34203,-0.25951 0.67751,-0.5075 0.33548,-0.248 0.61959,-0.47836 0.63136,-0.51192 0.0118,-0.0336 0.0479,-0.061 0.0803,-0.061 0.0324,0 0.11123,-0.0506 0.17524,-0.11236 0.064,-0.0618 0.25705,-0.22793 0.42896,-0.36918 0.17191,-0.14126 0.41406,-0.34351 0.53812,-0.44945 0.28763,-0.24561 2.8331,-2.77827 2.8331,-2.81883 0,-0.0167 0.0891,-0.1261 0.19801,-0.24304 0.10891,-0.11695 0.30357,-0.34265 0.43259,-0.50156 0.12902,-0.15891 0.29362,-0.34672 0.36579,-0.41734 0.0722,-0.0706 0.28564,-0.33066 0.47438,-0.57786 0.18874,-0.24719 0.36842,-0.45907 0.39929,-0.47084 0.0309,-0.0118 0.0561,-0.0623 0.0561,-0.11236 0,-0.05 0.025,-0.091 0.0555,-0.091 0.0305,0 0.13886,-0.1228 0.24077,-0.27288 0.10192,-0.15008 0.25031,-0.34481 0.32976,-0.43273 0.0795,-0.0879 0.14447,-0.17741 0.14447,-0.19885 0,-0.0342 0.081,-0.14191 0.31984,-0.42511 0.036,-0.0426 0.0654,-0.10412 0.0654,-0.1366 0,-0.0325 0.0411,-0.0932 0.0914,-0.1349 0.11181,-0.0928 1.54406,-2.23503 1.65055,-2.46876 0.0421,-0.0923 0.0973,-0.16777 0.12286,-0.16777 0.0255,0 0.0639,-0.0506 0.0852,-0.11236 0.0214,-0.0618 0.0967,-0.19904 0.16733,-0.30498 0.0707,-0.10594 0.16431,-0.26485 0.20811,-0.35314 0.0438,-0.0883 0.0947,-0.17496 0.11304,-0.19261 0.0459,-0.0441 0.15576,-0.23064 0.35926,-0.60996 0.0947,-0.17657 0.19056,-0.33548 0.21298,-0.35314 0.0224,-0.0177 0.11949,-0.19101 0.2157,-0.38523 0.0962,-0.19423 0.26539,-0.51205 0.37595,-0.70627 0.11056,-0.19422 0.36372,-0.67095 0.56257,-1.0594 0.19885,-0.38845 0.38321,-0.7159 0.4097,-0.72767 0.0265,-0.0118 0.0482,-0.0599 0.0482,-0.10689 0,-0.047 0.1702,-0.42744 0.37821,-0.84538 0.37183,-0.747069 0.43785,-0.887809 0.83842,-1.787189 0.1101,-0.24719 0.22811,-0.49961 0.26225,-0.56093 0.0341,-0.0613 0.0621,-0.1407 0.0621,-0.1764 0,-0.0357 0.0822,-0.24556 0.1826,-0.46636 0.10042,-0.2208 0.2331,-0.53148 0.29484,-0.69039 0.0617,-0.15891 0.14929,-0.3756 0.19456,-0.48154 0.0453,-0.10594 0.13195,-0.32264 0.19261,-0.48155 0.0607,-0.158911 0.14649,-0.375601 0.19072,-0.481541 0.0826,-0.198 0.12635,-0.318697 0.39526,-1.091507 0.086,-0.24719 0.18487,-0.49961 0.21968,-0.56093 0.0348,-0.0613 0.0635,-0.16244 0.0637,-0.22472 1.9e-4,-0.0623 0.0436,-0.19599 0.0963,-0.29714 0.0528,-0.10115 0.0959,-0.22538 0.0959,-0.27606 0,-0.0507 0.0399,-0.17018 0.0887,-0.26554 0.0488,-0.0954 0.10912,-0.29617 0.13405,-0.44625 l 0.0453,-0.27288 -3.30487,0 -3.30487,0 -0.1037,0.15826 c -0.057,0.087 -0.10387,0.20983 -0.10408,0.27287 -2e-4,0.063 -0.0436,0.19738 -0.0963,0.29853 -0.0528,0.10115 -0.0959,0.2268 -0.0959,0.27922 0,0.0524 -0.0386,0.18636 -0.0857,0.29764 -0.0472,0.11128 -0.12035,0.30345 -0.16264,0.42704 -0.34042,0.99495 -0.41502,1.19527 -0.46507,1.24881 -0.0314,0.0335 -0.057,0.10142 -0.057,0.15081 0,0.0494 -0.0394,0.180867 -0.0876,0.292137 -0.0482,0.11128 -0.13751,0.33234 -0.19853,0.491251 -0.061,0.15891 -0.14799,0.37561 -0.19326,0.48155 -0.0453,0.10594 -0.13195,0.32263 -0.19262,0.48154 -0.0607,0.15891 -0.14885,0.37561 -0.19596,0.48155 -0.0471,0.10594 -0.13425,0.30819 -0.19365,0.44944 -0.2377,0.56529 -0.27821,0.65754 -0.46533,1.0594 -0.10688,0.22954 -0.30122,0.64848 -0.43186,0.93099 -0.20905,0.45205 -0.4946,1.028909 -1.20773,2.439829 -0.10709,0.21188 -0.21133,0.39968 -0.23164,0.41734 -0.0203,0.0177 -0.14697,0.2488 -0.28146,0.51365 -0.13449,0.26485 -0.30052,0.56822 -0.36896,0.67416 -0.0684,0.10594 -0.15623,0.27208 -0.1951,0.36919 -0.0389,0.0971 -0.0967,0.17656 -0.12861,0.17656 -0.0319,0 -0.0579,0.0318 -0.0579,0.0706 0,0.0843 -0.46064,0.85112 -0.5297,0.88181 -0.0265,0.0118 -0.0481,0.058 -0.0481,0.10273 0,0.0447 -0.086,0.19997 -0.191,0.34499 -0.10504,0.14501 -0.24431,0.35882 -0.30948,0.47512 -0.25863,0.46157 -0.36841,0.62802 -0.41446,0.62841 -0.0265,1.9e-4 -0.0482,0.0305 -0.0482,0.0672 0,0.076 -0.26398,0.46786 -0.33708,0.50035 -0.0265,0.0118 -0.0482,0.049 -0.0482,0.0828 0,0.0639 -0.22524,0.40175 -0.37486,0.56238 -0.0472,0.0507 -0.16024,0.21042 -0.25107,0.35486 -0.23565,0.37473 -1.86632,2.52546 -2.08233,2.74642 -0.0996,0.10185 -0.18102,0.21308 -0.18102,0.24718 0,0.0341 -0.0229,0.062 -0.051,0.062 -0.0281,0 -0.1653,0.14997 -0.30498,0.33328 -0.13968,0.1833 -0.34064,0.42646 -0.44658,0.54035 -0.10594,0.11388 -0.3651,0.40452 -0.57591,0.64586 -0.49559,0.56735 -2.69792,2.76973 -3.26574,3.26581 -0.2413,0.21081 -0.50968,0.44797 -0.59642,0.52702 -0.0867,0.079 -0.36603,0.31007 -0.62067,0.51338 -0.25464,0.20331 -0.47743,0.38795 -0.49509,0.4103 -0.0755,0.0956 -0.64873,0.50564 -0.70682,0.50564 -0.035,0 -0.0636,0.0368 -0.0636,0.0817 0,0.0799 0.28638,0.1754 0.93099,0.31038 0.17656,0.037 0.34847,0.0939 0.38202,0.12649 0.0335,0.0326 0.13968,0.0593 0.23584,0.0593 0.18322,0 0.33067,0.12445 0.80677,0.68089 0.14791,0.17287 0.3646,0.41997 0.48154,0.54911 l 0.21263,0.23481 0.32103,-0.15226 z"
       style="fill:#000000" /></g><g
     inkscape:groupmode="layer"
     id="layer3"
     inkscape:label="CARMA"
     style="display:inline"><text
       xml:space="preserve"
       style="font-style:normal;font-weight:normal;font-size:15px;line-height:125%;font-family:sans-serif;letter-spacing:0px;word-spacing:0px;display:inline;fill:#000000;fill-opacity:1;stroke:none;stroke-width:1px;stroke-linecap:butt;stroke-linejoin:miter;stroke-opacity:1"
       x="0.17855568"
       y="30.617113"
       id="text6141"
       sodipodi:linespacing="125%"><tspan
         sodipodi:role="line"
         id="tspan6143"
         x="0.17855568"
         y="30.617113"
         style="font-style:normal;font-variant:normal;font-weight:normal;font-stretch:normal;font-size:48.34999847px;font-family:Dyuthi;-inkscape-font-specification:Dyuthi;fill:#f5951c;fill-opacity:1">CAR</tspan></text>
<text
       sodipodi:linespacing="125%"
       id="text6145"
       y="30.536814"
       x="75.013466"
       style="font-style:normal;font-weight:normal;font-size:15px;line-height:125%;font-family:sans-serif;letter-spacing:0px;word-spacing:0px;display:inline;fill:#88ffab;fill-opacity:1;stroke:none;stroke-width:1px;stroke-linecap:butt;stroke-linejoin:miter;stroke-opacity:1;"
       xml:space="preserve"><tspan
         style="font-style:normal;font-variant:normal;font-weight:normal;font-stretch:normal;font-size:48.34999847px;font-family:Dyuthi;-inkscape-font-specification:Dyuthi;fill:#88ffab;fill-opacity:1;"
         y="30.536814"
         x="75.013466"
         id="tspan6147"
         sodipodi:role="line">MA</tspan></text>
</g><g
     inkscape:groupmode="layer"
     id="layer4"
     inkscape:label="MA - Celeste"
     style="display:none"
     sodipodi:insensitive="true"><text
       xml:space="preserve"
       style="font-style:normal;font-weight:normal;font-size:15px;line-height:125%;font-family:sans-serif;letter-spacing:0px;word-spacing:0px;display:inline;fill:#00ffff;fill-opacity:1;stroke:none;stroke-width:1px;stroke-linecap:butt;stroke-linejoin:miter;stroke-opacity:1"
       x="75.013466"
       y="30.536814"
       id="text4192"
       sodipodi:linespacing="125%"><tspan
         sodipodi:role="line"
         id="tspan4194"
         x="75.013466"
         y="30.536814"
         style="font-style:normal;font-variant:normal;font-weight:normal;font-stretch:normal;font-size:48.34999847px;font-family:Dyuthi;-inkscape-font-specification:Dyuthi;fill:#00ffff;fill-opacity:1">MA</tspan></text>
</g></svg>