<?xml version="1.0" encoding="UTF-8" standalone="no"?>
<!-- Created with Inkscape (http://www.inkscape.org/) -->

<svg
   xmlns:dc="http://purl.org/dc/elements/1.1/"
   xmlns:cc="http://creativecommons.org/ns#"
   xmlns:rdf="http://www.w3.org/1999/02/22-rdf-syntax-ns#"
   xmlns:svg="http://www.w3.org/2000/svg"
   xmlns="http://www.w3.org/2000/svg"
   xmlns:sodipodi="http://sodipodi.sourceforge.net/DTD/sodipodi-0.dtd"
   xmlns:inkscape="http://www.inkscape.org/namespaces/inkscape"
   id="svg2"
   version="1.1"
   inkscape:version="0.91 r13725"
   xml:space="preserve"
   width="168"
   height="64"
   viewBox="0 0 168 64"
   sodipodi:docname="lema.svg"
   inkscape:export-filename="/home/luis/Imágenes/logo-carro/lema.png"
   inkscape:export-xdpi="365"
   inkscape:export-ydpi="365"><metadata
     id="metadata8"><rdf:RDF><cc:Work
         rdf:about=""><dc:format>image/svg+xml</dc:format><dc:type
           rdf:resource="http://purl.org/dc/dcmitype/StillImage" /><dc:title /></cc:Work></rdf:RDF></metadata><defs
     id="defs6"><clipPath
       clipPathUnits="userSpaceOnUse"
       id="clipPath92"><path
         d="m 2116.17,1814.36 c 0,-474.97 -385.03,-860.001 -860,-860.001 -474.963,0 -859.998,385.031 -859.998,860.001 0,474.96 385.035,860 859.998,860 474.97,0 860,-385.04 860,-860 z"
         id="path94"
         inkscape:connector-curvature="0" /></clipPath></defs><sodipodi:namedview
     pagecolor="#ffffff"
     bordercolor="#666666"
     borderopacity="1"
     objecttolerance="10"
     gridtolerance="10"
     guidetolerance="10"
     inkscape:pageopacity="0"
     inkscape:pageshadow="2"
     inkscape:window-width="1366"
     inkscape:window-height="715"
     id="namedview4"
     showgrid="false"
     inkscape:zoom="3.0208604"
     inkscape:cx="71.854359"
     inkscape:cy="29.458175"
     inkscape:window-x="0"
     inkscape:window-y="0"
     inkscape:window-maximized="1"
     inkscape:current-layer="g4199"
     fit-margin-top="0"
     fit-margin-left="0"
     fit-margin-right="0"
     fit-margin-bottom="0" /><g
     inkscape:groupmode="layer"
     id="layer1"
     inkscape:label="Fondo"
     style="display:none"><rect
       style="opacity:1;fill:#007b00;fill-opacity:1;fill-rule:evenodd;stroke:none;stroke-width:0.1;stroke-linecap:round;stroke-linejoin:round;stroke-miterlimit:4;stroke-dasharray:none;stroke-opacity:1"
       id="rect4145"
       width="169.47003"
       height="64.838676"
       x="-0.7022239"
       y="-0.13644941" /></g><g
     inkscape:groupmode="layer"
     id="layer2"
     inkscape:label="slogan"
     style="display:none"
     sodipodi:insensitive="true"><text
       y="46.775902"
       x="103.81598"
       style="font-style:normal;font-variant:normal;font-weight:normal;font-stretch:normal;font-size:11.8009243px;font-family:Banksia;-inkscape-font-specification:Banksia;writing-mode:lr-tb;display:inline;fill:#256bb7;fill-opacity:1;fill-rule:nonzero;stroke:none"
       id="text68-6"><tspan
         y="46.775902"
         x="103.81598"
         sodipodi:role="line"
         id="tspan70-2"
         style="font-style:normal;font-variant:normal;font-weight:normal;font-stretch:normal;font-size:7.5px;font-family:Banksia;-inkscape-font-specification:Banksia;text-align:end;text-anchor:end">Si te pesan los pies...</tspan><tspan
         id="tspan4482"
         y="56.150902"
         x="103.81598"
         sodipodi:role="line"
         style="font-style:normal;font-variant:normal;font-weight:normal;font-stretch:normal;font-size:7.5px;font-family:Banksia;-inkscape-font-specification:Banksia;text-align:end;text-anchor:end">nuestros autos son para ti...</tspan></text>
<path
       style="fill:#000000"
       d="m 122.94757,61.712711 c 0.5872,-0.0535 0.992,-0.4052 1.4357,-1.24751 0.1743,-0.33088 0.37041,-0.70272 0.4358,-0.82632 0.0654,-0.12359 0.14056,-0.23435 0.16705,-0.24612 0.0265,-0.0118 0.0482,-0.0508 0.0482,-0.0868 0,-0.0675 1.01809,-1.7928 1.0917,-1.85005 0.0227,-0.0177 0.062,-0.0754 0.0873,-0.12842 0.14415,-0.30186 1.02254,-1.60515 1.08185,-1.60515 0.0278,0 0.0506,-0.0301 0.0506,-0.0668 0,-0.076 0.26398,-0.46786 0.33708,-0.50035 0.0265,-0.0118 0.0482,-0.0623 0.0482,-0.11236 0,-0.05 0.0217,-0.091 0.0482,-0.0911 0.0265,-6e-5 0.13026,-0.13008 0.23062,-0.28892 0.10035,-0.15885 0.2087,-0.28882 0.24077,-0.28882 0.0321,0 0.0583,-0.0303 0.0583,-0.0673 0,-0.0793 1.01585,-1.43168 1.09891,-1.46298 0.0312,-0.0118 0.0568,-0.0479 0.0568,-0.0803 0,-0.0324 0.0506,-0.11187 0.11236,-0.17667 0.0618,-0.0648 0.1557,-0.18462 0.20867,-0.26626 0.053,-0.0816 0.17576,-0.23186 0.27288,-0.33383 0.0971,-0.10198 0.17656,-0.20258 0.17656,-0.22357 0,-0.021 0.0939,-0.14502 0.20867,-0.27563 0.21196,-0.24122 0.55445,-0.65351 1.17176,-1.41058 0.0706,-0.0866 0.22232,-0.2541 0.33709,-0.37219 0.11476,-0.11809 0.20867,-0.24023 0.20867,-0.27142 0,-0.0312 0.0255,-0.0663 0.0567,-0.0781 0.0312,-0.0118 0.26724,-0.26699 0.52452,-0.56715 0.25727,-0.30017 0.57845,-0.65407 0.71373,-0.78646 0.13527,-0.13238 0.24595,-0.25465 0.24595,-0.27171 0,-0.017 0.0939,-0.12829 0.20867,-0.2472 0.11477,-0.11891 0.46871,-0.50101 0.78653,-0.84911 0.59176,-0.64815 4.3899,-4.46383 5.22371,-5.24783 0.25501,-0.23978 0.49044,-0.50643 0.52319,-0.59256 0.15731,-0.41375 0.0659,-1.02115 -0.19704,-1.309 -0.10376,-0.11361 -0.18866,-0.21826 -0.18866,-0.23256 0,-0.0143 -0.0939,-0.12215 -0.20867,-0.23967 -0.11476,-0.11752 -0.32424,-0.35499 -0.46549,-0.52773 -0.50013,-0.61159 -0.48388,-0.59917 -0.68498,-0.52327 -0.1,0.0377 -0.1818,0.0912 -0.1818,0.11876 0,0.0276 -0.0321,0.0501 -0.0713,0.0501 -0.0392,0 -0.31051,0.14446 -0.60283,0.32103 -0.29231,0.17656 -0.56117,0.32103 -0.59747,0.32103 -0.0363,0 -0.0756,0.0217 -0.0874,0.0481 -0.0313,0.0703 -0.42298,0.33708 -0.495,0.33708 -0.0338,0 -0.0711,0.0217 -0.0829,0.0482 -0.0253,0.0569 -0.41674,0.33708 -0.47095,0.33708 -0.0206,0 -0.0723,0.0296 -0.11496,0.0657 -0.25581,0.21686 -1.21793,0.89735 -1.26873,0.89735 -0.0335,0 -0.0608,0.0233 -0.0608,0.0518 0,0.0285 -0.18871,0.19039 -0.41935,0.35974 -0.23065,0.16935 -0.46021,0.34876 -0.51013,0.39869 -0.0499,0.0499 -0.22961,0.19631 -0.39928,0.32529 -0.16967,0.12898 -0.38072,0.30061 -0.46901,0.38139 -0.18055,0.16521 -0.28044,0.25434 -0.99832,0.8908 -0.27882,0.24719 -0.65614,0.5939 -0.83848,0.77047 -0.18235,0.17657 -0.39985,0.38106 -0.48334,0.45442 -0.16553,0.14547 -1.72217,1.78315 -2.03973,2.14593 -0.10819,0.12359 -0.19717,0.25619 -0.19773,0.29466 -5.8e-4,0.0385 -0.0949,0.15759 -0.2097,0.26472 -0.11477,0.10713 -0.36758,0.37482 -0.5618,0.59487 -0.19423,0.22005 -0.40255,0.45371 -0.46294,0.51924 -0.0604,0.0655 -0.4719,0.60426 -0.91447,1.19717 -0.44257,0.59291 -0.83378,1.11291 -0.86934,1.15556 -0.0356,0.0427 -0.0647,0.10525 -0.0647,0.13911 0,0.0339 -0.0238,0.0712 -0.0529,0.083 -0.0642,0.026 -0.78624,1.08255 -1.13345,1.65866 -0.13834,0.22953 -0.27472,0.42697 -0.30307,0.43874 -0.0283,0.0118 -0.0515,0.0509 -0.0515,0.087 0,0.0361 -0.0867,0.19403 -0.19262,0.351 -0.10594,0.15697 -0.19261,0.31079 -0.19261,0.34181 0,0.031 -0.0365,0.0946 -0.081,0.14124 -0.0446,0.0467 -0.11581,0.15708 -0.15835,0.24536 -0.0425,0.0883 -0.16265,0.30498 -0.26692,0.48155 -0.10427,0.17656 -0.27109,0.47994 -0.3707,0.67416 -0.0996,0.19422 -0.19595,0.36758 -0.21407,0.38524 -0.0667,0.065 -0.89934,1.77903 -0.89934,1.85135 0,0.0412 -0.0258,0.0748 -0.0573,0.0748 -0.0315,0 -0.076,0.0746 -0.0989,0.16585 -0.0611,0.24333 -0.31604,0.6225 -0.55225,0.82125 -0.11365,0.0956 -0.18857,0.19196 -0.16648,0.21405 0.0221,0.0221 0.0402,0.0164 0.0402,-0.0126 0,-0.029 0.0578,-4.5e-4 0.12841,0.0635 0.0706,0.0639 0.12777,0.14785 0.12699,0.18652 -7.8e-4,0.0387 0.17133,0.24366 0.38245,0.45554 1.15369,1.15782 1.41674,1.43208 1.41674,1.47714 0,0.0273 0.0505,0.0866 0.11226,0.13173 0.0617,0.0451 0.0941,0.10027 0.0719,0.1225 -0.0222,0.0222 -0.0851,-0.004 -0.13977,-0.059 -0.0547,-0.0546 -0.11991,-0.0994 -0.14501,-0.0994 -0.0428,0 -0.80043,-0.59412 -0.99741,-0.78215 -0.0494,-0.0471 -0.15141,-0.12875 -0.2268,-0.18145 -0.0754,-0.0527 -0.4142,-0.31972 -0.75291,-0.5934 l -0.61585,-0.4976 -0.65962,-0.002 c -0.48341,-0.002 -0.75395,-0.0353 -1.01275,-0.12632 -0.19422,-0.0683 -0.39211,-0.12516 -0.43974,-0.12632 -0.0476,-0.001 -0.17765,-0.0411 -0.28893,-0.0889 -0.11127,-0.0477 -0.33234,-0.12119 -0.49125,-0.16322 -0.15891,-0.042 -0.43339,-0.12056 -0.60995,-0.1745 -0.17657,-0.054 -0.43661,-0.12662 -0.57786,-0.16149 -0.14125,-0.0349 -0.28427,-0.0906 -0.31782,-0.12393 -0.0335,-0.0333 -0.13031,-0.0605 -0.21502,-0.0605 -0.0847,0 -0.24506,-0.0397 -0.35634,-0.0882 -0.22201,-0.0968 -1.2084,-0.39944 -1.61486,-0.49547 -0.14125,-0.0334 -0.31461,-0.085 -0.38523,-0.11475 -0.0706,-0.0297 -0.30177,-0.10489 -0.51365,-0.16702 -0.39838,-0.11681 -0.83921,-0.24886 -1.28412,-0.38467 -0.14126,-0.0431 -0.43018,-0.12924 -0.64206,-0.19139 -0.21188,-0.0621 -0.50979,-0.15633 -0.66202,-0.20932 -0.15223,-0.053 -0.28746,-0.0857 -0.30052,-0.0726 -0.0235,0.0235 0.16277,0.2295 1.49605,1.65444 0.37752,0.40348 0.8742,0.93644 1.10374,1.18436 0.62504,0.67509 0.9744,1.00343 1.06769,1.00343 0.0252,0 0.0914,0.0386 0.14717,0.0857 0.11679,0.0988 1.04117,0.49423 1.5139,0.64768 0.17657,0.0573 0.37881,0.1284 0.44944,0.15796 0.0706,0.0296 0.30177,0.10457 0.51365,0.16667 0.21188,0.0621 0.47192,0.14098 0.57786,0.17526 0.48021,0.1554 1.75078,0.41299 2.66455,0.5402 1.14733,0.15972 3.13316,0.24619 3.94867,0.17193 z m -3.35848,-3.86314 c 0.28105,-0.0659 0.58155,-0.39326 0.83839,-0.9132 0.13243,-0.26808 0.24078,-0.52089 0.24078,-0.56181 0,-0.0409 0.0266,-0.0744 0.0591,-0.0744 0.0325,0 0.0781,-0.0867 0.10141,-0.19262 0.0233,-0.10594 0.0658,-0.19262 0.0944,-0.19262 0.0287,0 0.072,-0.0792 0.0963,-0.17592 0.0243,-0.0968 0.0636,-0.19066 0.0873,-0.20867 0.0237,-0.018 0.15171,-0.24944 0.28446,-0.51429 0.13275,-0.26485 0.34182,-0.65491 0.46461,-0.86679 0.12279,-0.21188 0.25535,-0.46469 0.29458,-0.5618 0.0392,-0.0971 0.0974,-0.17657 0.12926,-0.17657 0.0319,0 0.0579,-0.0318 0.0579,-0.0706 0,-0.0843 0.46064,-0.85111 0.5297,-0.88181 0.0265,-0.0118 0.0482,-0.0535 0.0482,-0.0928 0,-0.0984 1.80759,-2.80721 1.87327,-2.80721 0.0291,0 0.0529,-0.0279 0.0529,-0.0621 0,-0.0769 1.01843,-1.43859 1.09803,-1.46813 0.0317,-0.0118 0.0577,-0.0623 0.0577,-0.11236 0,-0.05 0.0239,-0.091 0.0531,-0.091 0.0292,0 0.17866,-0.17335 0.33216,-0.38523 0.15349,-0.21188 0.30297,-0.38524 0.33216,-0.38524 0.0292,0 0.0531,-0.0323 0.0531,-0.0718 0,-0.0792 0.14041,-0.24729 0.95682,-1.14555 0.64823,-0.71322 3.30701,-3.40551 3.36312,-3.40551 0.0212,0 0.16517,-0.12279 0.31996,-0.27287 0.31707,-0.30743 0.51564,-0.48068 0.97551,-0.85109 0.17512,-0.14106 0.36377,-0.30066 0.41923,-0.35467 0.0555,-0.054 0.23723,-0.19616 0.40392,-0.31587 0.1667,-0.11971 0.30308,-0.24165 0.30308,-0.27098 0,-0.0293 0.0409,-0.0533 0.091,-0.0533 0.05,0 0.10059,-0.0259 0.11236,-0.0577 0.0283,-0.0762 1.38956,-1.09803 1.46278,-1.09803 0.0312,0 0.0664,-0.0217 0.0782,-0.0481 0.0233,-0.0525 0.25887,-0.2234 0.85942,-0.62345 0.55487,-0.36962 0.62714,-0.41537 0.73503,-0.46523 0.053,-0.0245 0.1252,-0.0701 0.16051,-0.10138 0.0353,-0.0313 0.21746,-0.15048 0.40476,-0.2649 l 0.34055,-0.20802 -0.40476,-0.11124 c -0.22261,-0.0612 -0.54922,-0.15152 -0.72578,-0.20075 -0.60602,-0.16896 -1.45834,-0.39802 -2.15091,-0.57805 -0.22953,-0.0597 -0.54735,-0.14667 -0.70626,-0.19333 -0.15891,-0.0467 -0.3976,-0.1048 -0.53041,-0.12919 -0.13282,-0.0244 -0.25732,-0.07 -0.27667,-0.10127 -0.0193,-0.0313 -0.0959,-0.0569 -0.17021,-0.0569 -0.0743,0 -0.28204,-0.0424 -0.46171,-0.0941 -0.17967,-0.0518 -0.48558,-0.13681 -0.6798,-0.18897 -0.19423,-0.0522 -0.51909,-0.14041 -0.72192,-0.19608 -0.20283,-0.0557 -0.5351,-0.14538 -0.73837,-0.19934 -0.48029,-0.1275 -0.96191,-0.25878 -1.38127,-0.37651 -0.36452,-0.10233 -0.80494,-0.22009 -1.46025,-0.39044 -0.22954,-0.0597 -0.54736,-0.14604 -0.70627,-0.19194 -0.15891,-0.0459 -0.3891,-0.10443 -0.51154,-0.13007 -0.12244,-0.0256 -0.2669,-0.0684 -0.32103,-0.0951 -0.0541,-0.0267 -0.24288,-0.0838 -0.41945,-0.12698 -0.17656,-0.0432 -0.49438,-0.12246 -0.70626,-0.17616 -0.60693,-0.15381 -2.44745,-0.18293 -3.04979,-0.0482 -0.79112,0.17689 -1.9133,0.60387 -1.97969,0.75325 -0.0118,0.0265 -0.059,0.0482 -0.10496,0.0482 -0.0814,0 -0.99405,0.66275 -1.3952,1.01312 -1.21173,1.05836 -2.03732,1.92093 -3.3902,3.54207 -0.15891,0.19042 -0.33949,0.39911 -0.40129,0.46376 -0.0618,0.0646 -0.11236,0.14289 -0.11236,0.17388 0,0.031 -0.0406,0.09 -0.0902,0.13123 -0.0913,0.0757 -1.39375,2.01013 -1.47328,2.18805 -0.0237,0.053 -0.10009,0.18299 -0.1698,0.28893 -0.0697,0.10594 -0.15788,0.26426 -0.19593,0.35182 -0.038,0.0876 -0.0891,0.17425 -0.11355,0.19262 -0.0673,0.0507 -1.1033,2.15199 -1.1033,2.23784 0,0.0412 -0.0289,0.0749 -0.0642,0.0749 -0.0353,0 -0.0642,0.0461 -0.0642,0.10245 0,0.0563 -0.0407,0.17915 -0.0905,0.27288 -0.0498,0.0937 -0.15242,0.32933 -0.22816,0.52355 -0.0757,0.19423 -0.16158,0.41092 -0.19078,0.48155 -0.0292,0.0706 -0.10303,0.25843 -0.16409,0.41734 -0.061,0.15891 -0.1365,0.35475 -0.16765,0.43521 -0.15821,0.40859 -0.50718,1.50576 -0.50718,1.59459 0,0.0559 -0.0408,0.19274 -0.0906,0.30402 -0.0856,0.19123 -0.40835,1.33797 -0.45447,1.61485 -0.0118,0.0706 -0.0544,0.25843 -0.0948,0.41734 -0.19741,0.77675 -0.44552,2.19736 -0.49621,2.84112 -0.034,0.43238 -0.0337,0.43339 0.13234,0.43339 0.0916,0 0.27539,0.0405 0.40853,0.0901 0.35679,0.13281 0.89732,0.29513 0.98281,0.29513 0.041,0 0.16558,0.0391 0.27686,0.0868 0.11128,0.0478 0.31789,0.11679 0.45915,0.15342 0.42416,0.11001 1.40347,0.40659 1.54094,0.46666 0.0706,0.0309 0.22859,0.0759 0.35103,0.10012 0.12244,0.0242 0.2669,0.0656 0.32103,0.0921 0.0541,0.0264 0.27177,0.098 0.48365,0.15912 0.21188,0.0611 0.50081,0.14916 0.64206,0.19571 0.14126,0.0465 0.357,0.10497 0.47944,0.12981 0.12244,0.0248 0.2669,0.0668 0.32103,0.0932 0.0541,0.0264 0.27177,0.098 0.48365,0.15912 0.21188,0.0611 0.50178,0.15136 0.64421,0.20061 0.14244,0.0493 0.34133,0.0895 0.44199,0.0895 0.2006,0 0.69259,0.12962 0.74368,0.19593 0.0862,0.11186 0.37174,0.20465 0.68862,0.22378 0.21848,0.0132 0.39777,0.0633 0.47436,0.13262 0.0731,0.0662 0.2662,0.1233 0.47527,0.14064 0.19367,0.0161 0.35214,0.0545 0.35214,0.0855 0,0.0621 0.13419,0.0623 0.39757,5.2e-4 z m -1.64987,-3.56998 c -0.23984,-0.37184 -0.47415,-0.67608 -0.5207,-0.67608 -0.08,0 -0.37413,0.11495 -0.73104,0.28574 -0.0883,0.0422 -0.33387,0.13127 -0.54575,0.19783 -0.21188,0.0666 -0.42972,0.15731 -0.48408,0.20167 -0.0544,0.0444 -0.19882,0.0935 -0.32103,0.10931 -0.1222,0.0157 -0.30026,0.0589 -0.39568,0.0958 -0.14322,0.0555 -0.16723,0.0509 -0.1376,-0.0264 0.0197,-0.0515 0.0626,-0.0936 0.0952,-0.0936 0.0326,0 0.0783,-0.0506 0.10151,-0.11236 0.0577,-0.15366 0.21623,-0.26838 0.37436,-0.27083 0.0724,-10e-4 0.16387,-0.0343 0.20327,-0.0737 0.0877,-0.0877 0.33195,-0.23308 0.48374,-0.28796 0.0618,-0.0223 0.11236,-0.0661 0.11236,-0.0973 0,-0.0312 0.0361,-0.0577 0.0803,-0.059 0.0441,-10e-4 0.25935,-0.11137 0.47825,-0.24473 l 0.398,-0.24247 -0.18905,-0.28496 c -0.10398,-0.15674 -0.18918,-0.32109 -0.18933,-0.36523 -1.3e-4,-0.0441 -0.0263,-0.0803 -0.0582,-0.0803 -0.0319,0 -0.0897,-0.0795 -0.1286,-0.17656 -0.0389,-0.0971 -0.12681,-0.26325 -0.19541,-0.36919 -0.0686,-0.10594 -0.19128,-0.32263 -0.27262,-0.48154 -0.0814,-0.15891 -0.16238,-0.30338 -0.18006,-0.32103 -0.0177,-0.0177 -0.1038,-0.16935 -0.19134,-0.33709 -0.0875,-0.16773 -0.17423,-0.30498 -0.19262,-0.30499 -0.0717,-3e-5 -0.86996,0.2912 -0.90023,0.32844 -0.0177,0.0217 -0.10433,0.0595 -0.19261,0.084 -0.16781,0.0465 -0.53227,0.18566 -0.87649,0.33469 -0.11128,0.0482 -0.24681,0.0876 -0.30119,0.0876 -0.0544,0 -0.11453,0.0253 -0.13367,0.0563 -0.0191,0.031 -0.16649,0.0895 -0.32744,0.13 -0.16095,0.0405 -0.30865,0.11541 -0.32822,0.16639 -0.0309,0.0805 0.32896,1.30824 0.48941,1.6698 0.10563,0.23801 0.13484,0.40632 0.0767,0.44222 -0.0509,0.0314 -0.76431,-0.97876 -1.16258,-1.64609 -0.079,-0.13242 -0.16301,-0.23983 -0.18661,-0.23867 -0.0668,0.003 -0.67704,0.22053 -0.75163,0.26762 -0.14698,0.0928 -0.87533,0.31854 -0.91138,0.28249 -0.0212,-0.0212 0.01,-0.0386 0.0684,-0.0386 0.0589,0 0.10701,-0.0261 0.10701,-0.0581 0,-0.0865 0.98565,-0.64816 1.13744,-0.64816 0.20928,0 0.28892,-0.14431 0.17187,-0.31142 -0.0974,-0.139 -0.66336,-1.82521 -0.66594,-1.98395 -7.2e-4,-0.0441 0.0265,-0.0802 0.0606,-0.0802 0.0965,0 1.13806,1.63211 1.26028,1.97491 0.003,0.009 0.16885,-0.0703 0.36797,-0.17657 0.19912,-0.10625 0.40593,-0.19319 0.45957,-0.19319 0.0536,0 0.0975,-0.0266 0.0975,-0.0591 0,-0.0325 0.0867,-0.0781 0.19262,-0.10141 0.10594,-0.0233 0.19261,-0.0689 0.19261,-0.10141 0,-0.0325 0.0305,-0.0591 0.0677,-0.0591 0.0372,0 0.36226,-0.14094 0.72232,-0.3132 0.36006,-0.17226 0.71966,-0.33311 0.79911,-0.35746 0.0795,-0.0243 0.14447,-0.0695 0.14447,-0.10026 0,-0.0308 -0.12707,-0.31056 -0.28238,-0.62168 -0.15532,-0.31113 -0.3755,-0.76794 -0.4893,-1.01513 -0.1138,-0.24719 -0.29718,-0.63725 -0.4075,-0.86678 l -0.20059,-0.41734 -0.89922,0.30312 c -0.99314,0.33479 -1.35002,0.39442 -0.8029,0.13416 1.20343,-0.57247 1.40194,-0.662 1.46783,-0.662 0.0889,0 0.0959,-0.21698 0.012,-0.37006 -0.0336,-0.0613 -0.10347,-0.21261 -0.15526,-0.33621 -0.0518,-0.1236 -0.15268,-0.36196 -0.22422,-0.5297 -0.106,-0.24856 -0.11291,-0.30498 -0.0374,-0.30498 0.051,0 0.0927,0.0316 0.0927,0.0703 0,0.0672 0.51014,0.87623 0.6893,1.0931 0.0937,0.1134 0.18061,0.0935 0.78744,-0.18027 0.15891,-0.0717 0.43339,-0.19469 0.60995,-0.27332 0.17657,-0.0786 0.43661,-0.19638 0.57786,-0.26167 0.61318,-0.28338 1.01737,-0.44812 1.09949,-0.44812 0.0486,0 0.0883,-0.0289 0.0883,-0.0642 0,-0.0353 0.0361,-0.0644 0.0803,-0.0646 0.0441,-1.9e-4 0.15692,-0.0404 0.25062,-0.0893 0.0937,-0.0489 0.27427,-0.12318 0.40128,-0.1651 0.12701,-0.0419 0.23093,-0.11492 0.23093,-0.16224 0,-0.0473 -0.12387,-0.29788 -0.27527,-0.55682 -0.15141,-0.25894 -0.37533,-0.67305 -0.4976,-0.92024 -0.12228,-0.24719 -0.2417,-0.46418 -0.26539,-0.48219 -0.0237,-0.018 -0.0629,-0.11191 -0.0872,-0.20867 -0.0243,-0.0968 -0.0676,-0.17592 -0.0963,-0.17592 -0.0287,0 -0.0712,-0.0867 -0.0944,-0.19262 -0.0233,-0.10594 -0.0666,-0.19262 -0.0963,-0.19262 -0.0297,0 -0.073,-0.0867 -0.0963,-0.19262 -0.0484,-0.22028 -0.0768,-0.22862 -0.32974,-0.0967 -0.10115,0.0528 -0.22725,0.0965 -0.28022,0.0971 -0.053,6.8e-4 -0.27946,0.0586 -0.50332,0.12881 -0.5523,0.17313 -0.77152,0.16844 -0.39556,-0.008 0.15891,-0.0748 0.47673,-0.22426 0.70626,-0.33218 0.60012,-0.28216 0.58267,-0.25167 0.38409,-0.67137 -0.0961,-0.20308 -0.1962,-0.44147 -0.22248,-0.52975 l -0.0478,-0.16052 0.13571,0.14178 c 0.0746,0.078 0.1357,0.17188 0.1357,0.20867 0,0.0368 0.0217,0.0677 0.0482,0.0686 0.0265,9.5e-4 0.11826,0.11538 0.20393,0.25429 0.15112,0.24502 0.32577,0.38206 0.32577,0.25562 0,-0.0342 0.0361,-0.0624 0.0803,-0.0626 0.0441,-1.9e-4 0.16694,-0.0459 0.27288,-0.10157 0.10594,-0.0556 0.35806,-0.17111 0.56027,-0.25659 0.31503,-0.13319 0.67757,-0.29154 1.2375,-0.54055 0.0706,-0.0314 0.28732,-0.1196 0.48154,-0.19598 0.19423,-0.0764 0.43982,-0.17639 0.54576,-0.22224 0.10594,-0.0459 0.32263,-0.1333 0.48154,-0.19432 0.15891,-0.061 0.37997,-0.15036 0.49125,-0.19854 0.11128,-0.0482 0.24681,-0.0876 0.30119,-0.0876 0.0544,0 0.11535,-0.0267 0.1355,-0.0593 0.0201,-0.0326 0.12264,-0.0782 0.22777,-0.10125 0.10513,-0.0231 0.20796,-0.0692 0.2285,-0.10242 0.0351,-0.0568 -0.4028,-1.01505 -0.49625,-1.08604 -0.0237,-0.018 -0.063,-0.11191 -0.0872,-0.20867 -0.0243,-0.0968 -0.0676,-0.17592 -0.0963,-0.17592 -0.0287,0 -0.0712,-0.0867 -0.0945,-0.19262 -0.0233,-0.10594 -0.0689,-0.19262 -0.10141,-0.19262 -0.0325,0 -0.0591,-0.0329 -0.0591,-0.0732 0,-0.059 -0.2301,-0.58445 -0.30302,-0.692 -0.01,-0.0148 -0.0832,0.007 -0.16257,0.0486 -0.1458,0.0762 -0.49307,0.15968 -1.13956,0.27403 -0.19422,0.0344 -0.4687,0.0883 -0.60996,0.11998 -0.34632,0.0776 -0.41901,-0.0184 -0.1161,-0.15331 0.13448,-0.0599 0.32121,-0.15067 0.41494,-0.20171 0.0937,-0.0511 0.22519,-0.0928 0.29214,-0.0928 0.0669,0 0.14916,-0.0248 0.18271,-0.055 0.16828,-0.15181 2.23926,-0.67574 2.94975,-0.74624 0.35222,-0.035 0.37392,-0.03 0.25683,0.0585 -0.0704,0.0532 -0.15679,0.0977 -0.19211,0.0991 -0.0353,10e-4 -0.15088,0.0479 -0.25682,0.10347 -0.10594,0.0556 -0.36598,0.1591 -0.57786,0.23007 -0.21188,0.071 -0.50738,0.17347 -0.65666,0.22777 l -0.27143,0.0987 0.12142,0.1684 c 0.0668,0.0926 0.1817,0.23219 0.25537,0.31017 0.0737,0.078 0.13396,0.16147 0.13396,0.18554 0,0.0241 0.0396,0.0758 0.088,0.11505 0.12329,0.0999 1.06773,1.37985 1.06773,1.44704 0,0.1295 0.36123,0.13345 0.54576,0.006 0.0353,-0.0244 0.80097,-0.28478 1.70146,-0.57863 0.90049,-0.29385 1.71671,-0.5657 1.81382,-0.60411 0.17627,-0.0697 0.23017,-0.1904 0.11643,-0.26069 -0.0331,-0.0204 -0.10156,-0.11605 -0.15218,-0.21246 -0.83905,-1.59806 -0.83651,-1.61657 0.084,-0.61299 0.12363,0.13479 0.33636,0.38205 0.47274,0.54946 0.27099,0.33267 0.29196,0.33591 0.85475,0.13205 0.42275,-0.15314 0.47703,-0.0545 0.073,0.13275 -0.20079,0.0931 -0.39581,0.16919 -0.43339,0.16919 -0.0823,0 -0.092,0.17299 -0.0115,0.20332 0.0802,0.0302 0.52098,0.61915 0.52098,0.69612 0,0.035 0.0242,0.0636 0.0537,0.0636 0.047,0 0.24558,0.28877 0.90503,1.31623 0.0907,0.14125 0.22263,0.37239 0.29325,0.51365 0.0706,0.14125 0.15328,0.27495 0.18368,0.29711 0.0685,0.0499 0.26457,0.008 0.54118,-0.1151 0.11617,-0.0518 0.26063,-0.0828 0.32103,-0.069 0.10855,0.0249 -0.53738,0.3685 -0.69268,0.3685 -0.0398,0 0.0448,0.21981 0.18802,0.48845 0.14322,0.26865 0.24512,0.51317 0.22645,0.54337 -0.0187,0.0302 -0.14125,-0.0664 -0.2724,-0.21471 -0.13115,-0.1483 -0.3091,-0.34365 -0.39544,-0.43412 l -0.15699,-0.16448 -0.35666,0.17626 c -0.33079,0.16348 -0.52594,0.25248 -1.38396,0.63115 -0.17656,0.0779 -0.47994,0.21417 -0.67416,0.30278 -0.63622,0.29023 -0.86317,0.39159 -1.12361,0.50181 -0.14125,0.0598 -0.36055,0.15633 -0.48733,0.21455 l -0.23052,0.10585 0.29032,0.57785 c 0.43775,0.87133 0.46544,0.93099 0.4321,0.93099 -0.0455,0 -0.30666,-0.27843 -0.45401,-0.48406 -0.0706,-0.0986 -0.16453,-0.21571 -0.20867,-0.26032 -0.0441,-0.0446 -0.0803,-0.0976 -0.0803,-0.11782 0,-0.0202 -0.0545,-0.0912 -0.12117,-0.15785 -0.0666,-0.0666 -0.15137,-0.17499 -0.1883,-0.24078 -0.0644,-0.11476 -0.0749,-0.11505 -0.25792,-0.007 -0.10493,0.0618 -0.22307,0.11236 -0.26252,0.11236 -0.0394,0 -0.17946,0.0703 -0.31112,0.15617 -0.23197,0.15133 -0.80404,0.38562 -1.3309,0.54507 -0.14126,0.0427 -0.31461,0.10313 -0.38524,0.13418 -0.39884,0.17535 -0.7428,0.31648 -1.0273,0.42151 -0.17656,0.0652 -0.39326,0.15558 -0.48154,0.20087 -0.0883,0.0453 -0.2053,0.0825 -0.26004,0.0828 -0.0547,1.9e-4 -0.12696,0.0235 -0.16051,0.0518 -0.0335,0.0283 -0.23435,0.11945 -0.44623,0.20266 -0.21188,0.0832 -0.39559,0.15952 -0.40823,0.16958 -0.0126,0.0101 0.0758,0.18613 0.19654,0.39125 0.12074,0.20512 0.27555,0.48852 0.34402,0.62977 0.0685,0.14126 0.14046,0.27127 0.15999,0.28893 0.0195,0.0177 0.1553,0.26852 0.30173,0.55747 0.40903,0.80717 0.39251,0.78778 0.5877,0.68975 0.26272,-0.13194 0.63052,-0.28413 0.68669,-0.28413 0.0609,0 1.06185,-0.36234 1.35156,-0.48924 0.11128,-0.0487 0.23077,-0.0886 0.26554,-0.0886 0.0348,0 0.14597,-0.0432 0.24712,-0.0959 0.10115,-0.0528 0.24314,-0.0961 0.31553,-0.0963 0.0724,-1.9e-4 0.15907,-0.0247 0.19262,-0.0544 0.0867,-0.0767 0.9317,-0.3487 0.96865,-0.31175 0.0169,0.0169 -0.0576,0.0698 -0.1656,0.11759 -0.10797,0.0478 -0.19631,0.10644 -0.19631,0.13033 0,0.0239 -0.0867,0.0625 -0.19261,0.0857 -0.10594,0.0233 -0.19262,0.0666 -0.19262,0.0963 0,0.0297 -0.0867,0.0731 -0.19262,0.0963 -0.10594,0.0233 -0.19262,0.0666 -0.19262,0.0963 0,0.0297 -0.0867,0.073 -0.19262,0.0963 -0.10594,0.0233 -0.19261,0.0666 -0.19261,0.0963 0,0.0297 -0.0867,0.073 -0.19262,0.0963 -0.10594,0.0233 -0.19262,0.0666 -0.19262,0.0963 0,0.0297 -0.0867,0.073 -0.19262,0.0963 -0.10594,0.0233 -0.19262,0.0689 -0.19262,0.10141 0,0.0325 -0.0322,0.0591 -0.0716,0.0591 -0.0839,0 -1.52495,0.70442 -1.56073,0.7629 -0.0134,0.0218 0.0879,0.27082 0.22499,0.55333 0.13709,0.2825 0.24979,0.54735 0.25044,0.58855 6.5e-4,0.0412 0.0279,0.0845 0.0606,0.0963 0.0327,0.0118 0.0783,0.10808 0.10123,0.21402 l 0.0418,0.19262 -0.19581,-0.22472 c -0.10769,-0.1236 -0.19658,-0.26084 -0.19753,-0.30498 -9.5e-4,-0.0441 -0.0266,-0.0803 -0.057,-0.0803 -0.0304,0 -0.1782,-0.19009 -0.32846,-0.42243 -0.23529,-0.36382 -0.29388,-0.41725 -0.42227,-0.38502 -0.14041,0.0352 -0.48636,0.18605 -1.42534,0.62134 -0.2208,0.10236 -0.41381,0.18611 -0.42891,0.18611 -0.0151,0 -0.22449,0.0885 -0.46532,0.1967 -0.6452,0.28982 -0.66407,0.29792 -1.04783,0.45011 -0.19422,0.077 -0.45445,0.18704 -0.57828,0.24448 l -0.22514,0.10443 0.14013,0.25656 c 0.17799,0.32589 1.01727,2.06517 1.21735,2.52279 0.005,0.0105 0.22127,-0.0801 0.48155,-0.20114 0.26028,-0.12108 0.6177,-0.2829 0.79426,-0.3596 0.17657,-0.0767 0.37882,-0.16628 0.44945,-0.19908 0.53423,-0.24811 2.20119,-0.80335 2.25382,-0.75072 0.0565,0.0565 -1.68082,1.15344 -2.31803,1.46358 -0.17657,0.0859 -0.33577,0.17565 -0.35378,0.19937 -0.018,0.0237 -0.11191,0.063 -0.20867,0.0873 -0.0968,0.0243 -0.17592,0.0668 -0.17592,0.0944 0,0.0277 -0.0752,0.0692 -0.1672,0.0922 -0.092,0.0231 -0.23485,0.0863 -0.31751,0.14045 -0.16355,0.10716 -0.16215,0.11787 0.0872,0.66821 0.5783,1.27633 0.53843,1.35386 -0.14853,0.28882 z m -1.94611,-4.96544 c 0.0183,-0.0405 0.63037,-0.30847 1.11171,-0.48682 0.10594,-0.0393 0.20706,-0.0861 0.22472,-0.10408 0.0177,-0.018 0.20546,-0.1 0.41734,-0.18219 0.21188,-0.0822 0.44302,-0.17426 0.51365,-0.20456 0.55951,-0.24 0.74637,-0.31643 1.0273,-0.42014 0.17656,-0.0652 0.39326,-0.15558 0.48154,-0.20087 0.0883,-0.0453 0.19663,-0.0825 0.24077,-0.0828 0.11462,-5.8e-4 0.0994,-0.0871 -0.0482,-0.27474 -0.0706,-0.0898 -0.12841,-0.19481 -0.12841,-0.23338 0,-0.0386 -0.0217,-0.0703 -0.0482,-0.0705 -0.0461,-3.9e-4 -0.15583,-0.16684 -0.41446,-0.62841 -0.0652,-0.11631 -0.20444,-0.33011 -0.30948,-0.47513 -0.10505,-0.14501 -0.19099,-0.30266 -0.19099,-0.35033 0,-0.0477 -0.0236,-0.0867 -0.0523,-0.0867 -0.0288,0 -0.10157,-0.1033 -0.16178,-0.22955 -0.0995,-0.2087 -0.12723,-0.22564 -0.30514,-0.18657 -0.10762,0.0236 -0.27319,0.0834 -0.36792,0.13284 -0.0947,0.0494 -0.2211,0.09 -0.28082,0.0903 -0.0597,1.9e-4 -0.12445,0.0261 -0.14385,0.0575 -0.0194,0.0314 -0.11502,0.0762 -0.21246,0.0996 -0.17897,0.0429 -1.15987,0.38718 -1.39709,0.49027 -0.17054,0.0741 -0.67368,0.25172 -0.83468,0.29464 -0.0706,0.0188 -0.21946,0.0747 -0.33073,0.12416 -0.11128,0.0495 -0.25988,0.0899 -0.33022,0.0899 -0.12482,0 -0.24594,0.16438 -0.15069,0.20452 0.0684,0.0288 0.52271,0.79313 0.52271,0.87933 0,0.0395 0.0235,0.0719 0.0523,0.0719 0.0288,0 0.10007,0.0939 0.15845,0.20867 0.0584,0.11476 0.22438,0.41091 0.3689,0.65811 0.14452,0.24719 0.29595,0.52812 0.33652,0.62429 0.0726,0.17218 0.21192,0.27784 0.25142,0.19073 z m 3.06999,-5.26173 c 0.1236,-0.0535 0.28251,-0.12072 0.35314,-0.14928 0.0706,-0.0286 0.25843,-0.10619 0.41734,-0.1725 0.15891,-0.0663 0.41894,-0.17198 0.57785,-0.23482 0.15891,-0.0628 0.33875,-0.13997 0.39965,-0.17139 0.0609,-0.0314 0.29204,-0.11985 0.51365,-0.19649 0.22161,-0.0766 0.53002,-0.20687 0.68537,-0.2894 0.15534,-0.0825 0.32869,-0.15104 0.38523,-0.15224 0.0565,-10e-4 0.21837,-0.058 0.35962,-0.12623 0.14126,-0.0682 0.32184,-0.12504 0.40129,-0.12624 0.0795,-10e-4 0.14447,-0.0256 0.14447,-0.0542 0,-0.0286 0.17314,-0.10392 0.38476,-0.16731 l 0.38477,-0.11526 -0.14167,-0.20187 c -0.0779,-0.11103 -0.16439,-0.21151 -0.19215,-0.22328 -0.0278,-0.0118 -0.0505,-0.0599 -0.0505,-0.10701 0,-0.0471 -0.0217,-0.0952 -0.0482,-0.10701 -0.0703,-0.0313 -0.33708,-0.42298 -0.33708,-0.495 0,-0.0338 -0.0217,-0.0711 -0.0482,-0.0829 -0.0731,-0.0325 -0.33708,-0.42433 -0.33708,-0.50035 0,-0.0368 -0.0289,-0.0668 -0.0642,-0.0668 -0.0353,0 -0.0642,-0.0362 -0.0642,-0.0805 0,-0.0443 -0.10113,-0.2227 -0.22472,-0.39654 -0.1236,-0.17384 -0.22473,-0.35433 -0.22473,-0.40108 0,-0.0959 -0.29336,-0.11752 -0.35008,-0.0257 -0.0201,0.0326 -0.13008,0.0798 -0.2443,0.10488 -0.19761,0.0434 -0.28015,0.0745 -0.82785,0.31204 -0.12894,0.0559 -0.26287,0.10167 -0.29764,0.10167 -0.0348,0 -0.14598,0.0432 -0.24712,0.0959 -0.10115,0.0528 -0.23486,0.0961 -0.29714,0.0963 -0.0623,1.9e-4 -0.1634,0.0293 -0.22472,0.0646 -0.15762,0.0908 -2.60934,0.89888 -2.72717,0.89888 -0.19091,0 -0.2492,0.16013 -0.11192,0.30747 0.07,0.0751 0.12725,0.16429 0.12725,0.19814 0,0.0339 0.0217,0.0712 0.0482,0.0829 0.0703,0.0313 0.33708,0.42298 0.33708,0.495 0,0.0338 0.0217,0.0711 0.0481,0.0829 0.0703,0.0312 0.33708,0.42298 0.33708,0.49499 0,0.0338 0.0222,0.0711 0.0494,0.0829 0.0272,0.0118 0.21964,0.30428 0.42771,0.65003 0.20807,0.34574 0.39531,0.63842 0.4161,0.65039 0.0208,0.012 0.13891,-0.022 0.2625,-0.0756 z m 5.87108,-2.29697 c 0.0686,-0.0519 0.18556,-0.0943 0.26004,-0.0943 0.0745,0 0.16285,-0.0262 0.19639,-0.0582 0.0335,-0.032 0.16212,-0.0885 0.28572,-0.12539 0.24596,-0.0735 1.14519,-0.39544 1.43277,-0.51297 0.0994,-0.0406 0.23494,-0.0739 0.30119,-0.0739 0.0662,0 0.13692,-0.0267 0.15707,-0.0593 0.0201,-0.0326 0.12492,-0.0787 0.23283,-0.10236 0.10792,-0.0237 0.27372,-0.0835 0.36845,-0.13296 0.0947,-0.0494 0.21705,-0.09 0.2718,-0.0903 0.16293,-6.5e-4 0.44515,-0.15464 0.44569,-0.24319 2.6e-4,-0.0453 -0.0428,-0.0989 -0.0958,-0.11923 -0.053,-0.0203 -0.0963,-0.0772 -0.0963,-0.12639 0,-0.0492 -0.0233,-0.0894 -0.0518,-0.0894 -0.0285,0 -0.19038,-0.18871 -0.35973,-0.41936 -0.16935,-0.23064 -0.34106,-0.45534 -0.38157,-0.49933 -0.17226,-0.18704 -0.90244,-1.26106 -0.95876,-1.41024 -0.074,-0.1959 -0.21966,-0.19331 -0.65342,0.0116 -0.23106,0.10917 -0.43246,0.19849 -0.44756,0.19849 -0.0151,0 -0.22449,0.0887 -0.46532,0.19709 -1.05229,0.47363 -1.29546,0.57339 -1.39779,0.57339 -0.0488,0 -0.0984,0.0217 -0.11018,0.0482 -0.0186,0.0418 -0.50284,0.24952 -0.84003,0.36033 -0.13779,0.0453 -0.1456,0.19027 -0.016,0.29778 0.053,0.044 0.0963,0.11733 0.0963,0.16303 0,0.0457 0.0217,0.0927 0.0482,0.1045 0.056,0.0249 0.33708,0.41636 0.33708,0.46952 0,0.0198 0.0789,0.1582 0.17526,0.30758 0.25919,0.40168 0.29144,0.45666 0.46674,0.79584 0.0883,0.17074 0.18035,0.32547 0.20466,0.34385 0.0243,0.0184 0.0742,0.11228 0.11083,0.20867 0.0756,0.19894 0.27921,0.23133 0.48337,0.0769 z m 7.50811,-3.0317 c -0.26323,-0.24279 -0.66638,-0.75176 -0.66638,-0.84129 0,-0.0405 -0.0233,-0.0736 -0.0519,-0.0736 -0.0285,0 -0.0985,-0.10834 -0.15549,-0.24077 -0.35033,-0.81385 -0.34475,-0.94167 0.025,-0.57348 0.49089,0.48879 0.71554,0.83178 1.04434,1.59443 0.16303,0.37814 0.10876,0.41553 -0.19564,0.13476 z m 9.22136,2.09229 c 0.15891,-0.0754 0.39005,-0.18051 0.51364,-0.23358 0.1236,-0.0531 0.30142,-0.13544 0.39515,-0.18305 0.0937,-0.0476 0.21652,-0.0866 0.27287,-0.0866 0.0564,0 0.10246,-0.0289 0.10246,-0.0642 0,-0.0353 0.0347,-0.0642 0.0771,-0.0642 0.10107,0 3.33237,-1.61129 3.44273,-1.71671 0.0467,-0.0446 0.11064,-0.0811 0.14218,-0.0811 0.0315,0 0.2715,-0.13002 0.53325,-0.28893 0.26174,-0.15891 0.50836,-0.28893 0.54803,-0.28893 0.0397,0 0.0721,-0.0226 0.0721,-0.0501 0,-0.0276 0.0795,-0.0848 0.17657,-0.12726 0.0971,-0.0424 0.26325,-0.135 0.36919,-0.20574 0.10594,-0.0707 0.2504,-0.15505 0.32103,-0.18735 0.0706,-0.0323 0.23804,-0.13386 0.37203,-0.22567 0.134,-0.0918 0.27124,-0.16695 0.30498,-0.16695 0.0337,0 0.0614,-0.0269 0.0614,-0.0599 0,-0.0329 0.065,-0.0802 0.14446,-0.10496 0.0795,-0.0248 0.15891,-0.0629 0.17657,-0.0846 0.0661,-0.0813 0.44658,-0.32843 0.50569,-0.32843 0.0338,0 0.0711,-0.0217 0.0829,-0.0482 0.0313,-0.0703 0.42298,-0.33708 0.495,-0.33708 0.0338,0 0.0711,-0.0217 0.0829,-0.0482 0.0258,-0.058 0.41724,-0.33708 0.47283,-0.33708 0.0216,0 0.077,-0.0361 0.12314,-0.0803 0.0461,-0.0441 0.14859,-0.1236 0.2277,-0.17657 0.0791,-0.053 0.32956,-0.23355 0.55655,-0.40129 0.22699,-0.16774 0.43788,-0.30498 0.46864,-0.30498 0.0308,0 0.0656,-0.0258 0.0773,-0.0573 0.0118,-0.0315 0.23477,-0.21844 0.49555,-0.41541 0.26078,-0.19696 0.51523,-0.41678 0.56544,-0.48847 0.0502,-0.0717 0.12091,-0.13034 0.15711,-0.13034 0.0523,0 0.55114,-0.3674 0.69738,-0.51365 0.0177,-0.0177 0.17657,-0.14588 0.35313,-0.28494 0.17657,-0.13905 0.36789,-0.29796 0.42517,-0.35313 0.0573,-0.0552 0.33175,-0.30255 0.60995,-0.54974 0.67294,-0.59793 2.84475,-2.76796 3.36565,-3.36291 0.22808,-0.26049 0.45983,-0.52053 0.51499,-0.57785 0.0552,-0.0573 0.21407,-0.24869 0.35313,-0.42525 0.13906,-0.17657 0.26798,-0.33548 0.28648,-0.35314 0.0185,-0.0177 0.19164,-0.23435 0.38475,-0.48154 0.19312,-0.2472 0.39958,-0.50297 0.45881,-0.56838 0.0592,-0.0654 0.18799,-0.24599 0.28615,-0.40129 0.0982,-0.15529 0.20161,-0.28235 0.22988,-0.28235 0.0283,0 0.0514,-0.0398 0.0514,-0.0884 0,-0.0487 0.041,-0.12248 0.0911,-0.16409 0.11138,-0.0924 1.16033,-1.66013 1.26604,-1.89214 0.0418,-0.0917 0.0969,-0.16674 0.12238,-0.16674 0.0255,0 0.0639,-0.0506 0.0853,-0.11236 0.0214,-0.0618 0.0967,-0.19904 0.16732,-0.30498 0.0707,-0.10594 0.16431,-0.26485 0.20811,-0.35313 0.0438,-0.0883 0.0953,-0.17497 0.11435,-0.19262 0.0191,-0.0177 0.0692,-0.10434 0.11138,-0.19262 0.0422,-0.0883 0.16845,-0.31943 0.28063,-0.51365 0.35782,-0.61947 1.02652,-1.98265 1.46457,-2.985579 0.0617,-0.14126 0.16037,-0.36615 0.2193,-0.49978 0.12218,-0.27709 0.13892,-0.53239 0.039,-0.59417 -0.0375,-0.0232 -0.0952,-0.10433 -0.12826,-0.18036 -0.064,-0.14724 -0.19904,-0.37403 -0.25432,-0.42715 -0.0184,-0.0177 -0.0693,-0.10434 -0.11305,-0.19262 -0.0438,-0.0883 -0.13679,-0.24719 -0.20665,-0.35313 -0.0699,-0.10594 -0.14734,-0.23596 -0.17217,-0.28893 -0.0248,-0.053 -0.21294,-0.37471 -0.41804,-0.71497 -0.2051,-0.34027 -0.37291,-0.64846 -0.37291,-0.68487 0,-0.0364 -0.0217,-0.0758 -0.0482,-0.0876 -0.0691,-0.0307 -0.5297,-0.797541 -0.5297,-0.881811 0,-0.0388 -0.0261,-0.0706 -0.0579,-0.0706 -0.0319,0 -0.0897,-0.0795 -0.1286,-0.176567 -0.0389,-0.0971 -0.12795,-0.26325 -0.19795,-0.36919 -0.07,-0.10594 -0.15369,-0.2504 -0.186,-0.32103 -0.0323,-0.0706 -0.12803,-0.22953 -0.21273,-0.35313 -0.0847,-0.1236 -0.17465,-0.26806 -0.19989,-0.32103 -0.0252,-0.053 -0.13317,-0.24077 -0.23983,-0.41734 -0.10667,-0.17657 -0.22577,-0.38445 -0.26468,-0.46196 -0.0916,-0.18246 -0.2458,-0.24369 -0.24643,-0.0978 -5.8e-4,0.12686 -0.41797,1.40295 -0.51361,1.57017 -0.0351,0.0613 -0.0638,0.16414 -0.0638,0.2285 0,0.0643 -0.0424,0.17309 -0.0943,0.24164 -0.0519,0.0686 -0.0952,0.16551 -0.0963,0.21548 -0.002,0.0857 -0.29828,0.901148 -0.48034,1.321688 -0.0459,0.10594 -0.13303,0.32263 -0.1937,0.48154 -0.14039,0.36774 -0.27764,0.68909 -0.39297,0.92014 -0.0499,0.1 -0.0907,0.20769 -0.0907,0.23937 0,0.0317 -0.10269,0.28214 -0.22819,0.5566 -0.12551,0.27445 -0.2525,0.55679 -0.2822,0.62741 -0.0944,0.22451 -0.45715,1.01134 -0.68348,1.482609 -0.12027,0.25041 -0.21866,0.48878 -0.21866,0.5297 0,0.0409 -0.0266,0.0744 -0.0591,0.0744 -0.0325,0 -0.0781,0.0867 -0.10141,0.19262 -0.0233,0.10594 -0.0666,0.19262 -0.0963,0.19262 -0.0297,0 -0.073,0.0867 -0.0963,0.19262 -0.0233,0.10594 -0.0658,0.19262 -0.0944,0.19262 -0.0287,0 -0.072,0.0792 -0.0963,0.17592 -0.0243,0.0968 -0.0636,0.19066 -0.0873,0.20867 -0.0238,0.018 -0.19687,0.33612 -0.3847,0.70691 -0.18783,0.37079 -0.44245,0.84752 -0.56583,1.0594 -0.12339,0.21188 -0.25769,0.46469 -0.29846,0.5618 -0.0408,0.0971 -0.0967,0.17657 -0.12426,0.17657 -0.0276,0 -0.0501,0.0318 -0.0501,0.0706 0,0.0843 -0.46064,0.85112 -0.5297,0.88181 -0.0265,0.0118 -0.0481,0.0507 -0.0481,0.0866 0,0.0805 -0.46321,0.84691 -0.5297,0.87646 -0.0265,0.0118 -0.0482,0.0491 -0.0482,0.0829 0,0.072 -0.26675,0.46374 -0.33708,0.495 -0.0265,0.0118 -0.0482,0.0554 -0.0482,0.0969 0,0.10039 -1.01041,1.59352 -1.10756,1.6367 -0.0265,0.0118 -0.0482,0.0464 -0.0482,0.0769 0,0.0441 -0.65033,0.9637 -0.88401,1.25004 -0.0288,0.0353 -0.20664,0.26645 -0.39515,0.51364 -0.18851,0.2472 -0.36134,0.46389 -0.38406,0.48155 -0.0227,0.0177 -0.19909,0.23435 -0.39193,0.48155 -0.19284,0.24719 -0.42329,0.5247 -0.51212,0.61668 -0.0888,0.092 -0.29151,0.31989 -0.45042,0.50646 -0.97923,1.14972 -2.27528,2.44621 -3.46642,3.46759 -0.18532,0.15891 -0.40376,0.35071 -0.48543,0.42622 -0.0817,0.0755 -0.28049,0.2321 -0.44184,0.34797 -0.16134,0.11587 -0.29335,0.23467 -0.29335,0.26399 0,0.0293 -0.0409,0.0533 -0.091,0.0533 -0.05,0 -0.10059,0.0256 -0.11236,0.0569 -0.0302,0.0802 -0.61915,0.52099 -0.69612,0.52099 -0.035,0 -0.0637,0.024 -0.0637,0.0534 0,0.0612 -1.86648,1.31317 -2.183,1.46431 -0.053,0.0253 -0.11076,0.0631 -0.12841,0.0841 -0.0177,0.021 -0.10434,0.0748 -0.19262,0.11963 -0.0883,0.0448 -0.33387,0.1801 -0.54575,0.30056 -0.21188,0.12047 -0.60886,0.32878 -0.88216,0.46292 -0.27331,0.13413 -0.49723,0.27999 -0.4976,0.32414 -3.9e-4,0.0441 0.0228,0.0802 0.0515,0.0802 0.0287,0 0.11801,0.15079 0.19848,0.33508 0.12374,0.28339 0.14293,0.42203 0.12439,0.89891 -0.012,0.31012 -0.0219,0.56343 -0.0219,0.56292 0,-5.1e-4 0.13002,-0.0626 0.28893,-0.13801 z m -0.93099,-2.65777 c 0.17656,-0.0837 0.35714,-0.15329 0.40129,-0.15455 0.0441,-10e-4 0.0802,-0.0252 0.0802,-0.0531 0,-0.028 0.16614,-0.13047 0.36919,-0.22778 0.20305,-0.0973 0.51365,-0.26321 0.69021,-0.36866 0.17657,-0.10545 0.39327,-0.22628 0.48155,-0.26851 0.0883,-0.0422 0.17496,-0.0947 0.19262,-0.11664 0.0176,-0.0219 0.10433,-0.0771 0.19262,-0.12273 0.15845,-0.0818 1.43872,-0.92917 1.5697,-1.03891 0.0371,-0.0311 0.34203,-0.25951 0.67751,-0.5075 0.33548,-0.248 0.61959,-0.47836 0.63136,-0.51192 0.0118,-0.0336 0.0479,-0.061 0.0803,-0.061 0.0324,0 0.11123,-0.0506 0.17524,-0.11236 0.064,-0.0618 0.25705,-0.22793 0.42896,-0.36918 0.17191,-0.14126 0.41406,-0.34351 0.53812,-0.44945 0.28763,-0.24561 2.8331,-2.77827 2.8331,-2.81883 0,-0.0167 0.0891,-0.1261 0.19801,-0.24304 0.10891,-0.11695 0.30357,-0.34265 0.43259,-0.50156 0.12902,-0.15891 0.29362,-0.34672 0.36579,-0.41734 0.0722,-0.0706 0.28564,-0.33066 0.47438,-0.57786 0.18874,-0.24719 0.36842,-0.45907 0.39929,-0.47084 0.0309,-0.0118 0.0561,-0.0623 0.0561,-0.11236 0,-0.05 0.025,-0.091 0.0555,-0.091 0.0305,0 0.13886,-0.1228 0.24077,-0.27288 0.10192,-0.15008 0.25031,-0.34481 0.32976,-0.43273 0.0795,-0.0879 0.14447,-0.17741 0.14447,-0.19885 0,-0.0342 0.081,-0.14191 0.31984,-0.42511 0.036,-0.0426 0.0654,-0.10412 0.0654,-0.1366 0,-0.0325 0.0411,-0.0932 0.0914,-0.1349 0.11181,-0.0928 1.54406,-2.23503 1.65055,-2.46876 0.0421,-0.0923 0.0973,-0.16777 0.12286,-0.16777 0.0255,0 0.0639,-0.0506 0.0852,-0.11236 0.0214,-0.0618 0.0967,-0.19904 0.16733,-0.30498 0.0707,-0.10594 0.16431,-0.26485 0.20811,-0.35314 0.0438,-0.0883 0.0947,-0.17496 0.11304,-0.19261 0.0459,-0.0441 0.15576,-0.23064 0.35926,-0.60996 0.0947,-0.17657 0.19056,-0.33548 0.21298,-0.35314 0.0224,-0.0177 0.11949,-0.19101 0.2157,-0.38523 0.0962,-0.19423 0.26539,-0.51205 0.37595,-0.70627 0.11056,-0.19422 0.36372,-0.67095 0.56257,-1.0594 0.19885,-0.38845 0.38321,-0.7159 0.4097,-0.72767 0.0265,-0.0118 0.0482,-0.0599 0.0482,-0.10689 0,-0.047 0.1702,-0.42744 0.37821,-0.84538 0.37183,-0.747069 0.43785,-0.887809 0.83842,-1.787189 0.1101,-0.24719 0.22811,-0.49961 0.26225,-0.56093 0.0341,-0.0613 0.0621,-0.1407 0.0621,-0.1764 0,-0.0357 0.0822,-0.24556 0.1826,-0.46636 0.10042,-0.2208 0.2331,-0.53148 0.29484,-0.69039 0.0617,-0.15891 0.14929,-0.3756 0.19456,-0.48154 0.0453,-0.10594 0.13195,-0.32264 0.19261,-0.48155 0.0607,-0.158911 0.14649,-0.375601 0.19072,-0.481541 0.0826,-0.198 0.12635,-0.318697 0.39526,-1.091507 0.086,-0.24719 0.18487,-0.49961 0.21968,-0.56093 0.0348,-0.0613 0.0635,-0.16244 0.0637,-0.22472 1.9e-4,-0.0623 0.0436,-0.19599 0.0963,-0.29714 0.0528,-0.10115 0.0959,-0.22538 0.0959,-0.27606 0,-0.0507 0.0399,-0.17018 0.0887,-0.26554 0.0488,-0.0954 0.10912,-0.29617 0.13405,-0.44625 l 0.0453,-0.27288 -3.30487,0 -3.30487,0 -0.1037,0.15826 c -0.057,0.087 -0.10387,0.20983 -0.10408,0.27287 -2e-4,0.063 -0.0436,0.19738 -0.0963,0.29853 -0.0528,0.10115 -0.0959,0.2268 -0.0959,0.27922 0,0.0524 -0.0386,0.18636 -0.0857,0.29764 -0.0472,0.11128 -0.12035,0.30345 -0.16264,0.42704 -0.34042,0.99495 -0.41502,1.19527 -0.46507,1.24881 -0.0314,0.0335 -0.057,0.10142 -0.057,0.15081 0,0.0494 -0.0394,0.180867 -0.0876,0.292137 -0.0482,0.11128 -0.13751,0.33234 -0.19853,0.491251 -0.061,0.15891 -0.14799,0.37561 -0.19326,0.48155 -0.0453,0.10594 -0.13195,0.32263 -0.19262,0.48154 -0.0607,0.15891 -0.14885,0.37561 -0.19596,0.48155 -0.0471,0.10594 -0.13425,0.30819 -0.19365,0.44944 -0.2377,0.56529 -0.27821,0.65754 -0.46533,1.0594 -0.10688,0.22954 -0.30122,0.64848 -0.43186,0.93099 -0.20905,0.45205 -0.4946,1.028909 -1.20773,2.439829 -0.10709,0.21188 -0.21133,0.39968 -0.23164,0.41734 -0.0203,0.0177 -0.14697,0.2488 -0.28146,0.51365 -0.13449,0.26485 -0.30052,0.56822 -0.36896,0.67416 -0.0684,0.10594 -0.15623,0.27208 -0.1951,0.36919 -0.0389,0.0971 -0.0967,0.17656 -0.12861,0.17656 -0.0319,0 -0.0579,0.0318 -0.0579,0.0706 0,0.0843 -0.46064,0.85112 -0.5297,0.88181 -0.0265,0.0118 -0.0481,0.058 -0.0481,0.10273 0,0.0447 -0.086,0.19997 -0.191,0.34499 -0.10504,0.14501 -0.24431,0.35882 -0.30948,0.47512 -0.25863,0.46157 -0.36841,0.62802 -0.41446,0.62841 -0.0265,1.9e-4 -0.0482,0.0305 -0.0482,0.0672 0,0.076 -0.26398,0.46786 -0.33708,0.50035 -0.0265,0.0118 -0.0482,0.049 -0.0482,0.0828 0,0.0639 -0.22524,0.40175 -0.37486,0.56238 -0.0472,0.0507 -0.16024,0.21042 -0.25107,0.35486 -0.23565,0.37473 -1.86632,2.52546 -2.08233,2.74642 -0.0996,0.10185 -0.18102,0.21308 -0.18102,0.24718 0,0.0341 -0.0229,0.062 -0.051,0.062 -0.0281,0 -0.1653,0.14997 -0.30498,0.33328 -0.13968,0.1833 -0.34064,0.42646 -0.44658,0.54035 -0.10594,0.11388 -0.3651,0.40452 -0.57591,0.64586 -0.49559,0.56735 -2.69792,2.76973 -3.26574,3.26581 -0.2413,0.21081 -0.50968,0.44797 -0.59642,0.52702 -0.0867,0.079 -0.36603,0.31007 -0.62067,0.51338 -0.25464,0.20331 -0.47743,0.38795 -0.49509,0.4103 -0.0755,0.0956 -0.64873,0.50564 -0.70682,0.50564 -0.035,0 -0.0636,0.0368 -0.0636,0.0817 0,0.0799 0.28638,0.1754 0.93099,0.31038 0.17656,0.037 0.34847,0.0939 0.38202,0.12649 0.0335,0.0326 0.13968,0.0593 0.23584,0.0593 0.18322,0 0.33067,0.12445 0.80677,0.68089 0.14791,0.17287 0.3646,0.41997 0.48154,0.54911 l 0.21263,0.23481 0.32103,-0.15226 z"
       id="path4147"
       inkscape:connector-curvature="0" /></g><g
     inkscape:groupmode="layer"
     id="layer3"
     inkscape:label="CARMA"
     style="display:inline"><text
       xml:space="preserve"
       style="font-style:normal;font-weight:normal;font-size:15px;line-height:125%;font-family:sans-serif;letter-spacing:0px;word-spacing:0px;display:inline;fill:#000000;fill-opacity:1;stroke:none;stroke-width:1px;stroke-linecap:butt;stroke-linejoin:miter;stroke-opacity:1"
       x="10.788199"
       y="32.27227"
       id="text6141"
       sodipodi:linespacing="125%"><tspan
         sodipodi:role="line"
         id="tspan6143"
         x="10.788199"
         y="32.27227"
         style="font-style:normal;font-variant:normal;font-weight:bold;font-stretch:normal;font-size:30px;font-family:Nulshock;-inkscape-font-specification:'Nulshock Bold';fill:#f50001;fill-opacity:1">CAR</tspan></text>
<text
       sodipodi:linespacing="125%"
       id="text6145"
       y="32.191971"
       x="90.531776"
       style="font-style:normal;font-weight:normal;font-size:15px;line-height:125%;font-family:sans-serif;letter-spacing:0px;word-spacing:0px;display:inline;fill:#88ffab;fill-opacity:1;stroke:none;stroke-width:1px;stroke-linecap:butt;stroke-linejoin:miter;stroke-opacity:1"
       xml:space="preserve"><tspan
         style="font-style:normal;font-variant:normal;font-weight:bold;font-stretch:normal;font-size:30px;font-family:Nulshock;-inkscape-font-specification:'Nulshock Bold';fill:#88ffab;fill-opacity:1"
         y="32.191971"
         x="90.531776"
         id="tspan6147"
         sodipodi:role="line">MA</tspan></text>
</g><g
     inkscape:groupmode="layer"
     id="layer4"
     inkscape:label="MA - Celeste"
     style="display:none"
     sodipodi:insensitive="true"><text
       xml:space="preserve"
       style="font-style:normal;font-weight:normal;font-size:15px;line-height:125%;font-family:sans-serif;letter-spacing:0px;word-spacing:0px;display:inline;fill:#00ffff;fill-opacity:1;stroke:none;stroke-width:1px;stroke-linecap:butt;stroke-linejoin:miter;stroke-opacity:1"
       x="75.013466"
       y="30.536814"
       id="text4192"
       sodipodi:linespacing="125%"><tspan
         sodipodi:role="line"
         id="tspan4194"
         x="75.013466"
         y="30.536814"
         style="font-style:normal;font-variant:normal;font-weight:normal;font-stretch:normal;font-size:48.34999847px;font-family:Dyuthi;-inkscape-font-specification:Dyuthi;fill:#00ffff;fill-opacity:1">MA</tspan></text>
</g><g
     inkscape:label="slogan mas claro"
     id="g4199"
     inkscape:groupmode="layer"
     style="display:inline"><text
       id="text4201"
       style="font-style:normal;font-variant:normal;font-weight:normal;font-stretch:normal;font-size:16.73392296px;font-family:Banksia;-inkscape-font-specification:Banksia;writing-mode:lr-tb;display:inline;fill:#000000;fill-opacity:1;fill-rule:nonzero;stroke:none"
       x="137.35847"
       y="50.698765"
       transform="scale(1.1100914,0.90082672)"><tspan
         style="font-style:normal;font-variant:normal;font-weight:normal;font-stretch:normal;font-size:8.47662163px;font-family:Banksia;-inkscape-font-specification:Banksia;text-align:end;text-anchor:end;fill:#000000;fill-opacity:1"
         sodipodi:role="line"
         x="139.64319"
         y="50.698765"
         id="tspan4160">La carretera no es un circuito... </tspan><tspan
         style="font-style:normal;font-variant:normal;font-weight:normal;font-stretch:normal;font-size:8.47662163px;font-family:Banksia;-inkscape-font-specification:Banksia;text-align:end;text-anchor:end;fill:#000000;fill-opacity:1"
         sodipodi:role="line"
         x="139.64319"
         y="61.29454"
         id="tspan4164">pero nos apañamos... </tspan></text>
<path
       inkscape:connector-curvature="0"
       id="path4207"
       d="m 139.41277,27.962431 c 0.26089,-0.02371 0.44073,-0.179622 0.63786,-0.553008 0.0774,-0.146675 0.16456,-0.311508 0.19362,-0.366298 0.029,-0.05479 0.0625,-0.103887 0.0743,-0.109105 0.0118,-0.0053 0.0215,-0.02251 0.0215,-0.03848 0,-0.02993 0.45231,-0.794728 0.48503,-0.820106 0.0103,-0.0078 0.0275,-0.03342 0.0388,-0.05693 0.0641,-0.133811 0.45428,-0.711547 0.48064,-0.711547 0.0124,0 0.0225,-0.01334 0.0225,-0.02961 0,-0.03369 0.11728,-0.207398 0.14975,-0.2218 0.0118,-0.0053 0.0215,-0.02762 0.0215,-0.04981 0,-0.02216 0.009,-0.04034 0.0215,-0.04039 0.0118,-2.8e-5 0.0579,-0.05766 0.10241,-0.128076 0.0447,-0.07042 0.0928,-0.128031 0.107,-0.128031 0.0142,0 0.0259,-0.01342 0.0259,-0.02984 0,-0.03516 0.45132,-0.634648 0.48823,-0.648524 0.0139,-0.0053 0.0253,-0.02123 0.0253,-0.03559 0,-0.01436 0.0225,-0.04959 0.0499,-0.07831 0.0274,-0.02872 0.0691,-0.08183 0.0928,-0.11803 0.0235,-0.03617 0.0781,-0.102783 0.12123,-0.147982 0.0432,-0.0452 0.0784,-0.08981 0.0784,-0.09911 0,-0.0093 0.0418,-0.06428 0.0926,-0.122183 0.0941,-0.106933 0.24633,-0.289694 0.52058,-0.625296 0.0314,-0.03839 0.0987,-0.112644 0.14977,-0.164987 0.051,-0.05234 0.0926,-0.106496 0.0926,-0.120318 0,-0.01383 0.0115,-0.02939 0.0251,-0.03462 0.0139,-0.0053 0.11873,-0.118354 0.23303,-0.251412 0.11434,-0.133062 0.25699,-0.289942 0.31709,-0.348628 0.0601,-0.05867 0.10929,-0.112886 0.10929,-0.120447 0,-0.0076 0.0418,-0.05687 0.0927,-0.109576 0.051,-0.05271 0.20824,-0.222092 0.34944,-0.376401 0.2629,-0.287319 1.95032,-1.978767 2.32076,-2.326306 0.11331,-0.106289 0.21789,-0.224495 0.23243,-0.262675 0.0699,-0.183411 0.0293,-0.452665 -0.0876,-0.580267 -0.046,-0.05036 -0.0838,-0.09675 -0.0838,-0.103093 0,-0.0063 -0.0418,-0.05414 -0.0926,-0.106243 -0.051,-0.0521 -0.14405,-0.157363 -0.20682,-0.233937 -0.22219,-0.271111 -0.21497,-0.265606 -0.30431,-0.23196 -0.0444,0.01671 -0.0808,0.04043 -0.0808,0.05264 0,0.01223 -0.0142,0.02221 -0.0317,0.02221 -0.0173,0 -0.13795,0.06404 -0.26781,0.142309 -0.12987,0.07827 -0.24931,0.142309 -0.26544,0.142309 -0.0162,0 -0.0336,0.0097 -0.0388,0.02132 -0.0139,0.03116 -0.18792,0.149425 -0.21992,0.149425 -0.015,0 -0.0316,0.0097 -0.0369,0.02137 -0.0115,0.02523 -0.18514,0.149423 -0.20923,0.149423 -0.009,0 -0.0321,0.01313 -0.0511,0.02912 -0.11365,0.09613 -0.54108,0.397786 -0.56365,0.397786 -0.0148,0 -0.027,0.01034 -0.027,0.02296 0,0.01263 -0.0838,0.08439 -0.18631,0.159468 -0.10252,0.07507 -0.20445,0.154602 -0.22663,0.176735 -0.0222,0.02212 -0.10206,0.08703 -0.1774,0.144197 -0.0754,0.05718 -0.16914,0.133257 -0.20837,0.169066 -0.0803,0.07324 -0.1246,0.112748 -0.44352,0.394882 -0.12388,0.109576 -0.2915,0.263269 -0.37252,0.341541 -0.0811,0.07827 -0.17765,0.168919 -0.21473,0.201439 -0.0736,0.06449 -0.76512,0.790451 -0.9062,0.951268 -0.0481,0.05479 -0.0876,0.113564 -0.0878,0.13062 -2.6e-4,0.01707 -0.0421,0.06986 -0.0932,0.117347 -0.051,0.04749 -0.16329,0.166153 -0.24958,0.263699 -0.0863,0.09754 -0.17885,0.201126 -0.20567,0.230173 -0.0269,0.02903 -0.20966,0.267862 -0.40628,0.530693 -0.19663,0.26283 -0.37042,0.49334 -0.38623,0.512247 -0.0158,0.01893 -0.0287,0.04666 -0.0287,0.06167 0,0.01503 -0.0103,0.03156 -0.0235,0.0368 -0.0286,0.01152 -0.3493,0.479882 -0.50355,0.735265 -0.0614,0.101749 -0.12206,0.189272 -0.13466,0.194489 -0.0125,0.0053 -0.0228,0.02256 -0.0228,0.03857 0,0.01601 -0.0386,0.08601 -0.0857,0.155595 -0.0471,0.06959 -0.0855,0.13777 -0.0855,0.15152 0,0.01375 -0.0163,0.04194 -0.036,0.06262 -0.0199,0.0207 -0.0514,0.06964 -0.0704,0.10876 -0.0188,0.03915 -0.0722,0.135195 -0.11858,0.213467 -0.0464,0.07827 -0.12044,0.212752 -0.1647,0.298847 -0.0443,0.0861 -0.087,0.162944 -0.0951,0.170772 -0.0296,0.02881 -0.39955,0.788626 -0.39955,0.820684 0,0.01826 -0.0115,0.03316 -0.0254,0.03316 -0.014,0 -0.0338,0.03307 -0.044,0.07352 -0.0272,0.107863 -0.14042,0.275947 -0.24536,0.364052 -0.0505,0.04237 -0.0838,0.0851 -0.0739,0.09489 0.0103,0.0098 0.0179,0.0072 0.0179,-0.0055 0,-0.01285 0.0257,-2e-4 0.0571,0.02815 0.0313,0.02832 0.0567,0.06555 0.0564,0.08268 -3.5e-4,0.01716 0.0761,0.108012 0.16992,0.201936 0.51256,0.513249 0.62942,0.634825 0.62942,0.6548 0,0.0121 0.0225,0.03839 0.0498,0.0584 0.0274,0.02 0.0418,0.04444 0.0319,0.05429 -0.0103,0.0099 -0.0378,-0.0018 -0.0621,-0.02616 -0.0243,-0.0242 -0.0533,-0.04406 -0.0644,-0.04406 -0.0191,0 -0.35562,-0.263366 -0.44313,-0.346718 -0.0219,-0.02087 -0.0673,-0.05708 -0.1008,-0.08044 -0.0334,-0.02335 -0.18402,-0.141728 -0.33451,-0.263047 l -0.2736,-0.220581 -0.29305,-8.86e-4 c -0.21476,-8.86e-4 -0.33496,-0.01565 -0.44994,-0.05599 -0.0863,-0.03027 -0.1742,-0.05549 -0.19536,-0.05599 -0.0211,-4.43e-4 -0.0789,-0.01822 -0.12838,-0.0394 -0.0495,-0.02115 -0.14765,-0.05372 -0.21824,-0.07236 -0.0706,-0.01862 -0.19255,-0.05344 -0.27099,-0.07735 -0.0784,-0.02393 -0.19397,-0.05613 -0.25672,-0.07159 -0.0628,-0.01547 -0.1263,-0.04016 -0.14121,-0.05494 -0.0148,-0.01476 -0.0579,-0.02681 -0.0955,-0.02681 -0.0377,0 -0.10883,-0.0176 -0.15831,-0.0391 -0.0986,-0.04292 -0.53686,-0.177067 -0.71745,-0.219637 -0.0627,-0.0148 -0.13976,-0.03767 -0.17115,-0.05087 -0.0313,-0.01317 -0.13407,-0.0465 -0.2282,-0.07404 -0.17699,-0.05178 -0.37284,-0.110312 -0.5705,-0.170521 -0.0628,-0.0191 -0.19111,-0.05729 -0.28525,-0.08484 -0.0941,-0.02753 -0.22649,-0.0693 -0.29412,-0.0928 -0.0676,-0.02349 -0.12771,-0.038 -0.13351,-0.03219 -0.0103,0.01046 0.0723,0.101737 0.66467,0.733395 0.16771,0.178858 0.38837,0.415114 0.49035,0.525014 0.2777,0.29926 0.4329,0.444809 0.47435,0.444809 0.0115,0 0.0406,0.01711 0.0653,0.038 0.0519,0.04379 0.46257,0.219086 0.6726,0.287109 0.0784,0.0254 0.16829,0.05691 0.19967,0.07002 0.0314,0.01313 0.13407,0.04635 0.2282,0.07388 0.0941,0.02753 0.20967,0.06249 0.25674,0.07768 0.21334,0.06889 0.77782,0.183073 1.18378,0.239464 0.50973,0.07081 1.39198,0.109128 1.7543,0.07622 z m -1.49208,-1.712489 c 0.12487,-0.02922 0.25837,-0.174327 0.37249,-0.404811 0.0588,-0.118837 0.107,-0.230904 0.107,-0.249044 0,-0.01814 0.0118,-0.03299 0.0263,-0.03299 0.0145,0 0.0347,-0.03843 0.045,-0.08538 0.0103,-0.04696 0.0292,-0.08538 0.0419,-0.08538 0.0127,0 0.032,-0.03511 0.0428,-0.07798 0.0103,-0.04292 0.0283,-0.08452 0.0388,-0.09251 0.0103,-0.0079 0.0674,-0.110575 0.12638,-0.227979 0.059,-0.117405 0.15185,-0.290314 0.20641,-0.384238 0.0545,-0.09392 0.11343,-0.205993 0.13087,-0.249041 0.0173,-0.04304 0.0433,-0.07827 0.0574,-0.07827 0.0142,0 0.0257,-0.0141 0.0257,-0.0313 0,-0.03738 0.20466,-0.377288 0.23534,-0.390897 0.0118,-0.0053 0.0214,-0.02371 0.0214,-0.04113 0,-0.04362 0.80307,-1.244405 0.83225,-1.244405 0.013,0 0.0234,-0.01237 0.0234,-0.02753 0,-0.03409 0.45247,-0.637712 0.48783,-0.650806 0.0141,-0.0053 0.0257,-0.02762 0.0257,-0.0498 0,-0.02217 0.0103,-0.04034 0.0237,-0.04034 0.013,0 0.0794,-0.07684 0.14757,-0.170767 0.0682,-0.09392 0.13459,-0.170772 0.14757,-0.170772 0.013,0 0.0236,-0.01432 0.0236,-0.03184 0,-0.03511 0.0625,-0.109622 0.42509,-0.507811 0.28799,-0.316162 1.46922,-1.509624 1.49416,-1.509624 0.009,0 0.0734,-0.05443 0.14214,-0.120961 0.14088,-0.13628 0.22909,-0.213081 0.4334,-0.377279 0.0778,-0.06253 0.16161,-0.133279 0.18626,-0.157222 0.0247,-0.02393 0.10539,-0.08696 0.17944,-0.140022 0.074,-0.05306 0.13465,-0.107116 0.13465,-0.120122 0,-0.01299 0.0181,-0.02363 0.0404,-0.02363 0.0223,0 0.0447,-0.01149 0.0499,-0.02558 0.0125,-0.03378 0.61735,-0.486745 0.64989,-0.486745 0.0139,0 0.0295,-0.0097 0.0348,-0.02132 0.0103,-0.02327 0.11501,-0.09903 0.38182,-0.276368 0.24652,-0.163848 0.27862,-0.184129 0.32655,-0.206231 0.0235,-0.0108 0.0556,-0.03108 0.0714,-0.04494 0.0156,-0.01388 0.0966,-0.06671 0.17982,-0.117427 l 0.1513,-0.09222 -0.17983,-0.04932 c -0.0988,-0.02712 -0.24401,-0.06717 -0.32244,-0.08899 -0.26924,-0.0749 -0.64791,-0.176438 -0.9556,-0.256243 -0.10195,-0.02647 -0.24318,-0.06502 -0.31379,-0.08569 -0.0706,-0.0207 -0.17662,-0.04646 -0.23563,-0.05727 -0.059,-0.0108 -0.11435,-0.03103 -0.12292,-0.04489 -0.008,-0.01388 -0.0426,-0.02523 -0.0757,-0.02523 -0.0329,0 -0.12531,-0.01879 -0.20513,-0.04171 -0.0798,-0.02296 -0.21573,-0.06065 -0.30202,-0.08377 -0.0863,-0.02313 -0.23062,-0.06225 -0.32073,-0.08691 -0.0901,-0.02469 -0.23773,-0.06445 -0.32804,-0.08836 -0.21338,-0.05652 -0.42735,-0.114714 -0.61366,-0.166903 -0.16195,-0.04536 -0.35762,-0.09756 -0.64875,-0.173078 -0.10195,-0.02646 -0.24318,-0.06474 -0.31378,-0.08508 -0.0706,-0.02034 -0.17287,-0.0463 -0.22726,-0.05766 -0.0544,-0.01138 -0.11858,-0.03032 -0.14262,-0.04216 -0.024,-0.01184 -0.10792,-0.03716 -0.18637,-0.05629 -0.0784,-0.01915 -0.21963,-0.05429 -0.31377,-0.07808 -0.26964,-0.06818 -1.08733,-0.08109 -1.35494,-0.02137 -0.35147,0.07842 -0.85003,0.267689 -0.87953,0.333908 -0.005,0.01175 -0.0263,0.02137 -0.0466,0.02137 -0.0362,0 -0.44165,0.293789 -0.61987,0.449104 -0.53834,0.46916 -0.90513,0.851528 -1.50618,1.570162 -0.0706,0.08442 -0.15081,0.176921 -0.17828,0.20558 -0.0274,0.02864 -0.0499,0.06335 -0.0499,0.07708 0,0.01375 -0.018,0.03989 -0.0401,0.05817 -0.0406,0.03356 -0.6192,0.891069 -0.65454,0.96994 -0.0103,0.02349 -0.0444,0.08112 -0.0754,0.128078 -0.031,0.04696 -0.0701,0.117144 -0.087,0.155959 -0.0169,0.03882 -0.0396,0.07724 -0.0504,0.08538 -0.03,0.02248 -0.49017,0.953952 -0.49017,0.992008 0,0.01827 -0.0129,0.0332 -0.0286,0.0332 -0.0156,0 -0.0286,0.02043 -0.0286,0.04541 0,0.02496 -0.018,0.07942 -0.0402,0.120966 -0.0222,0.04154 -0.0677,0.145988 -0.10137,0.232083 -0.0336,0.08611 -0.0718,0.182158 -0.0847,0.213466 -0.013,0.0313 -0.0458,0.114564 -0.0729,0.185003 -0.0271,0.07044 -0.0606,0.157256 -0.0745,0.192924 -0.0703,0.181123 -0.22531,0.667487 -0.22531,0.706864 0,0.02478 -0.0181,0.08544 -0.0403,0.134769 -0.0381,0.08477 -0.18142,0.593107 -0.2019,0.715845 -0.005,0.0313 -0.0242,0.114564 -0.0421,0.185003 -0.0877,0.344324 -0.19794,0.974065 -0.22046,1.259437 -0.015,0.19167 -0.015,0.192117 0.0588,0.192117 0.0406,0 0.12235,0.01795 0.1815,0.03994 0.15851,0.05887 0.39866,0.130828 0.43665,0.130828 0.0182,0 0.0736,0.01733 0.12299,0.03848 0.0495,0.02119 0.14124,0.05177 0.20399,0.06802 0.18844,0.04877 0.62353,0.180237 0.68459,0.206865 0.0315,0.0137 0.1016,0.03364 0.15596,0.04438 0.0544,0.01069 0.11859,0.02908 0.14263,0.04082 0.024,0.0117 0.12074,0.04344 0.21488,0.07053 0.0941,0.02709 0.22249,0.06612 0.28524,0.08675 0.0628,0.02061 0.15861,0.04654 0.21301,0.05754 0.0544,0.01103 0.11857,0.02961 0.14262,0.04131 0.024,0.0117 0.12074,0.04343 0.21488,0.07053 0.0941,0.02709 0.22293,0.0671 0.28619,0.08893 0.0634,0.02185 0.15165,0.03967 0.19638,0.03967 0.0891,0 0.3077,0.05747 0.33039,0.08685 0.0384,0.04958 0.16515,0.09073 0.30595,0.0992 0.097,0.0059 0.17671,0.02807 0.21074,0.05879 0.0325,0.02935 0.11826,0.05465 0.21115,0.06234 0.086,0.0071 0.15645,0.02416 0.15645,0.0379 0,0.02753 0.0596,0.02762 0.17662,2.3e-4 z m -0.73299,-1.582533 c -0.10654,-0.164831 -0.21065,-0.299698 -0.23134,-0.299698 -0.0355,0 -0.1662,0.05095 -0.32477,0.126666 -0.0393,0.01871 -0.14834,0.05819 -0.24247,0.08769 -0.0941,0.02953 -0.19091,0.06973 -0.21506,0.08939 -0.0242,0.01968 -0.0883,0.04144 -0.14262,0.04846 -0.0543,0.007 -0.13341,0.02611 -0.1758,0.04247 -0.0636,0.02461 -0.0743,0.02256 -0.0611,-0.0117 0.009,-0.02284 0.0278,-0.04149 0.0424,-0.04149 0.0145,0 0.0348,-0.02242 0.0451,-0.0498 0.0256,-0.06812 0.0961,-0.11897 0.16632,-0.120056 0.0321,-4.44e-4 0.0728,-0.01521 0.0904,-0.03266 0.0389,-0.03888 0.14748,-0.103323 0.21491,-0.127649 0.0274,-0.0099 0.0499,-0.02931 0.0499,-0.04313 0,-0.01383 0.0161,-0.02558 0.0357,-0.02616 0.0196,-4.43e-4 0.11523,-0.04937 0.21247,-0.108484 l 0.17683,-0.107484 -0.084,-0.126319 c -0.0462,-0.06948 -0.084,-0.142335 -0.0841,-0.161901 -6e-5,-0.01955 -0.0117,-0.03559 -0.0258,-0.03559 -0.0141,0 -0.0398,-0.03524 -0.0571,-0.07827 -0.0173,-0.04304 -0.0564,-0.116696 -0.0868,-0.163658 -0.0305,-0.04696 -0.085,-0.143018 -0.12112,-0.213461 -0.0362,-0.07044 -0.0722,-0.134485 -0.08,-0.142309 -0.008,-0.0078 -0.046,-0.07507 -0.0849,-0.14943 -0.0389,-0.07435 -0.0774,-0.135194 -0.0855,-0.135197 -0.0318,-1.4e-5 -0.3865,0.129085 -0.39995,0.145594 -0.008,0.0097 -0.0464,0.02638 -0.0855,0.03724 -0.0745,0.02061 -0.23647,0.08229 -0.3894,0.148364 -0.0495,0.02136 -0.10964,0.03882 -0.13382,0.03882 -0.0242,0 -0.0509,0.01126 -0.0593,0.02496 -0.008,0.01375 -0.0739,0.03967 -0.14548,0.05763 -0.0715,0.01795 -0.13712,0.05116 -0.14583,0.07375 -0.0137,0.03569 0.14616,0.579928 0.21744,0.740204 0.047,0.105507 0.0598,0.180117 0.0341,0.196032 -0.0226,0.01392 -0.33956,-0.433875 -0.5165,-0.729695 -0.0351,-0.0587 -0.0724,-0.106312 -0.0829,-0.105794 -0.0297,0.0014 -0.30079,0.09776 -0.33392,0.118632 -0.0653,0.04113 -0.38889,0.141205 -0.40491,0.125225 -0.009,-0.0094 0.005,-0.01711 0.0303,-0.01711 0.0262,0 0.0475,-0.01157 0.0475,-0.02576 0,-0.03835 0.4379,-0.287322 0.50533,-0.287322 0.093,0 0.12837,-0.06397 0.0763,-0.138049 -0.0433,-0.06163 -0.2947,-0.809095 -0.29586,-0.879463 -3.1e-4,-0.01955 0.0118,-0.03555 0.0269,-0.03555 0.0429,0 0.50561,0.723498 0.55991,0.875457 0.001,0.004 0.0751,-0.03116 0.16349,-0.07827 0.0885,-0.0471 0.18034,-0.08563 0.20416,-0.08563 0.0238,0 0.0433,-0.01179 0.0433,-0.02619 0,-0.0144 0.0386,-0.03462 0.0855,-0.04495 0.0471,-0.01034 0.0855,-0.03055 0.0855,-0.04495 0,-0.0144 0.0136,-0.02619 0.0301,-0.02619 0.0165,0 0.16095,-0.06248 0.32092,-0.138838 0.15995,-0.07636 0.31972,-0.147665 0.35502,-0.158458 0.0354,-0.0108 0.0642,-0.0308 0.0642,-0.04444 0,-0.01365 -0.0565,-0.137669 -0.12545,-0.275584 -0.069,-0.137922 -0.16684,-0.34042 -0.21739,-0.449996 -0.0505,-0.109576 -0.13203,-0.282486 -0.18104,-0.384235 l -0.0891,-0.185002 -0.3995,0.13437 c -0.44123,0.148409 -0.59977,0.174842 -0.35671,0.05948 0.53466,-0.253769 0.62285,-0.293456 0.65213,-0.293456 0.0395,0 0.0426,-0.09619 0.006,-0.164044 -0.0149,-0.02717 -0.0459,-0.09424 -0.069,-0.149038 -0.0231,-0.05479 -0.0678,-0.160453 -0.0996,-0.23481 -0.0471,-0.110185 -0.0502,-0.135194 -0.0166,-0.135194 0.0226,0 0.0412,0.014 0.0412,0.03116 0,0.02979 0.22663,0.388422 0.30623,0.484558 0.0417,0.05027 0.0802,0.04144 0.34983,-0.07991 0.0706,-0.03178 0.19255,-0.0863 0.27099,-0.12116 0.0784,-0.03485 0.19398,-0.08705 0.25673,-0.115995 0.27242,-0.125619 0.45199,-0.198647 0.48848,-0.198647 0.0216,0 0.0392,-0.01281 0.0392,-0.02846 0,-0.01564 0.0161,-0.02855 0.0357,-0.02864 0.0196,-8.5e-5 0.0697,-0.01792 0.11136,-0.03958 0.0416,-0.02168 0.12185,-0.0546 0.17827,-0.07319 0.0565,-0.01857 0.10264,-0.05094 0.10264,-0.07191 0,-0.02097 -0.055,-0.132049 -0.1223,-0.246833 -0.0673,-0.114782 -0.16676,-0.298357 -0.22107,-0.407932 -0.0543,-0.109576 -0.10734,-0.205767 -0.1179,-0.21375 -0.0103,-0.0079 -0.028,-0.04962 -0.0387,-0.09251 -0.0103,-0.04292 -0.0301,-0.07798 -0.0428,-0.07798 -0.0127,0 -0.0317,-0.03843 -0.0419,-0.08538 -0.0103,-0.04696 -0.0296,-0.08538 -0.0428,-0.08538 -0.0132,0 -0.0324,-0.03843 -0.0428,-0.08538 -0.0215,-0.09765 -0.0341,-0.101347 -0.14649,-0.04287 -0.0449,0.02341 -0.10092,0.04278 -0.1245,0.04304 -0.0235,3.02e-4 -0.12416,0.02597 -0.22361,0.0571 -0.24538,0.07675 -0.34278,0.07467 -0.17574,-0.0036 0.0706,-0.03316 0.2118,-0.09942 0.31378,-0.147251 0.26662,-0.125079 0.25886,-0.111564 0.17063,-0.297612 -0.0427,-0.09003 -0.0871,-0.195699 -0.0988,-0.234833 l -0.0212,-0.07115 0.0603,0.06284 c 0.0332,0.03457 0.0603,0.07619 0.0603,0.09251 0,0.01631 0.009,0.03001 0.0213,0.03041 0.0118,4.21e-4 0.0526,0.05114 0.0906,0.112725 0.0672,0.10861 0.14473,0.169363 0.14473,0.113311 0,-0.01516 0.0161,-0.02766 0.0357,-0.02774 0.0196,-8.4e-5 0.0742,-0.02034 0.12123,-0.04502 0.0471,-0.02464 0.15908,-0.07585 0.24892,-0.113748 0.13996,-0.05904 0.30102,-0.129236 0.54979,-0.239619 0.0313,-0.01392 0.12765,-0.05302 0.21394,-0.08688 0.0863,-0.03386 0.1954,-0.07819 0.24247,-0.09852 0.0471,-0.02034 0.14333,-0.05909 0.21392,-0.08614 0.0706,-0.02704 0.16882,-0.06665 0.21826,-0.088 0.0495,-0.02137 0.10964,-0.03882 0.13381,-0.03882 0.0242,0 0.0512,-0.01184 0.0602,-0.0263 0.009,-0.01446 0.0544,-0.03466 0.10126,-0.04488 0.0466,-0.01023 0.0924,-0.03068 0.10149,-0.04541 0.0156,-0.02518 -0.17896,-0.449961 -0.22047,-0.48143 -0.0103,-0.0079 -0.028,-0.04962 -0.0387,-0.09251 -0.0103,-0.04291 -0.0301,-0.07798 -0.0428,-0.07798 -0.0127,0 -0.0317,-0.03843 -0.042,-0.08538 -0.0103,-0.04696 -0.0305,-0.08538 -0.045,-0.08538 -0.0145,0 -0.0263,-0.01459 -0.0263,-0.03245 0,-0.02616 -0.10229,-0.25908 -0.13463,-0.306756 -0.005,-0.0066 -0.037,0.0031 -0.0722,0.02155 -0.0648,0.03378 -0.21906,0.07079 -0.50628,0.121474 -0.0863,0.01525 -0.20823,0.03915 -0.27098,0.05319 -0.15386,0.0344 -0.18617,-0.0082 -0.0515,-0.06796 0.0597,-0.02655 0.1427,-0.06679 0.18434,-0.08942 0.0417,-0.02265 0.1,-0.04113 0.12979,-0.04113 0.0297,0 0.0662,-0.01103 0.0812,-0.02439 0.0748,-0.06729 0.99485,-0.299549 1.3105,-0.3308 0.15648,-0.01552 0.16612,-0.0133 0.11412,0.02594 -0.0312,0.02357 -0.0697,0.04331 -0.0854,0.04393 -0.0156,4.44e-4 -0.067,0.02123 -0.11411,0.04586 -0.0471,0.02464 -0.1626,0.07052 -0.25673,0.10199 -0.0941,0.03148 -0.22542,0.0769 -0.29174,0.100967 l -0.12059,0.04376 0.054,0.07465 c 0.0297,0.04105 0.0807,0.102921 0.11342,0.137495 0.0327,0.03457 0.0596,0.07158 0.0596,0.08225 0,0.01069 0.0176,0.03361 0.0392,0.05101 0.0548,0.04428 0.47437,0.611674 0.47437,0.641459 0,0.05741 0.16047,0.05916 0.24247,0.0026 0.0156,-0.0108 0.35584,-0.126241 0.7559,-0.256501 0.40007,-0.130261 0.76269,-0.250769 0.80584,-0.267795 0.0783,-0.03091 0.10229,-0.08441 0.0518,-0.115561 -0.0147,-0.009 -0.0451,-0.05144 -0.0676,-0.09419 -0.37277,-0.708402 -0.37165,-0.716608 0.0373,-0.271731 0.055,0.05975 0.14943,0.169358 0.21001,0.243568 0.12039,0.14747 0.12972,0.148906 0.37975,0.05853 0.18782,-0.06788 0.21193,-0.02416 0.0324,0.05886 -0.0892,0.04127 -0.17584,0.075 -0.19253,0.075 -0.0366,0 -0.0409,0.07668 -0.005,0.09013 0.0356,0.01339 0.23146,0.274464 0.23146,0.308582 0,0.01552 0.0103,0.02819 0.0239,0.02819 0.0209,0 0.10906,0.12801 0.40208,0.583471 0.0403,0.06261 0.099,0.165076 0.13029,0.227695 0.0313,0.06262 0.0681,0.121883 0.0816,0.131706 0.0304,0.02212 0.11755,0.0036 0.24043,-0.05102 0.0515,-0.02296 0.11579,-0.0367 0.14262,-0.03058 0.0482,0.01103 -0.23874,0.163353 -0.30773,0.163353 -0.0177,0 0.02,0.09744 0.0835,0.216524 0.0636,0.11909 0.10895,0.227483 0.10057,0.24087 -0.008,0.01339 -0.0628,-0.02943 -0.12102,-0.09518 -0.0582,-0.06574 -0.13732,-0.152337 -0.17568,-0.192441 l -0.0697,-0.07291 -0.15846,0.07814 c -0.14696,0.07248 -0.23366,0.11192 -0.61486,0.279783 -0.0784,0.03454 -0.21322,0.09494 -0.29951,0.134219 -0.28266,0.128655 -0.38348,0.173587 -0.49919,0.222446 -0.0628,0.02651 -0.16018,0.0693 -0.2165,0.09511 l -0.10241,0.04691 0.12899,0.256154 c 0.19447,0.386252 0.20677,0.412698 0.19196,0.412698 -0.0202,0 -0.13624,-0.123425 -0.2017,-0.214578 -0.0313,-0.04371 -0.0731,-0.09562 -0.0927,-0.115397 -0.0196,-0.01977 -0.0357,-0.04326 -0.0357,-0.05222 0,-0.009 -0.0242,-0.04043 -0.0538,-0.06997 -0.0296,-0.02953 -0.0673,-0.07757 -0.0837,-0.106737 -0.0286,-0.05087 -0.0333,-0.05101 -0.11457,-0.0031 -0.0466,0.02739 -0.0991,0.04981 -0.11664,0.04981 -0.0176,0 -0.0797,0.03116 -0.13823,0.06923 -0.10309,0.06708 -0.35721,0.170942 -0.59129,0.241624 -0.0628,0.01893 -0.13976,0.04572 -0.17114,0.05949 -0.1772,0.07774 -0.33,0.140292 -0.4564,0.186851 -0.0784,0.02889 -0.17472,0.06896 -0.21394,0.08905 -0.0393,0.02008 -0.0913,0.03657 -0.11553,0.0367 -0.0243,8.5e-5 -0.0565,0.01046 -0.0713,0.02296 -0.0148,0.01255 -0.10413,0.05295 -0.19825,0.08984 -0.0941,0.03688 -0.17575,0.07072 -0.18136,0.07518 -0.006,0.0045 0.0337,0.08251 0.0874,0.173438 0.0536,0.09092 0.12242,0.216555 0.15284,0.279168 0.0304,0.06262 0.0625,0.120252 0.0711,0.128081 0.009,0.0078 0.069,0.119031 0.13405,0.24712 0.18172,0.35781 0.17438,0.349214 0.2611,0.305758 0.11671,-0.05849 0.28013,-0.125951 0.30507,-0.125951 0.0271,0 0.47176,-0.160621 0.60047,-0.216874 0.0495,-0.02158 0.10252,-0.03928 0.11797,-0.03928 0.0154,0 0.0649,-0.01915 0.10975,-0.04251 0.045,-0.02341 0.10803,-0.04261 0.14018,-0.0427 0.0321,-8.4e-5 0.0707,-0.01092 0.0855,-0.02411 0.0386,-0.034 0.41392,-0.154575 0.43034,-0.138195 0.007,0.0075 -0.0256,0.03094 -0.0736,0.05212 -0.048,0.02119 -0.0872,0.04719 -0.0872,0.05778 0,0.01057 -0.0386,0.02771 -0.0855,0.03798 -0.0471,0.01034 -0.0855,0.02953 -0.0855,0.04268 0,0.01317 -0.0386,0.03241 -0.0855,0.0427 -0.0471,0.01034 -0.0855,0.02953 -0.0855,0.0427 0,0.01317 -0.0386,0.03235 -0.0855,0.04269 -0.0471,0.01034 -0.0855,0.02953 -0.0855,0.0427 0,0.01317 -0.0386,0.03235 -0.0855,0.0427 -0.0471,0.01034 -0.0855,0.02953 -0.0855,0.04269 0,0.01317 -0.0386,0.03236 -0.0855,0.0427 -0.0471,0.01034 -0.0855,0.03055 -0.0855,0.04495 0,0.0144 -0.0142,0.02619 -0.0318,0.02619 -0.0372,0 -0.6775,0.312262 -0.69339,0.338185 -0.006,0.0097 0.039,0.120052 0.1,0.245286 0.061,0.125229 0.11101,0.242633 0.11124,0.260898 2.9e-4,0.01826 0.0124,0.03746 0.0269,0.04269 0.0146,0.0053 0.0348,0.04791 0.045,0.09488 l 0.0185,0.08538 -0.087,-0.09961 c -0.0479,-0.05479 -0.0874,-0.115627 -0.0877,-0.135194 -4.4e-4,-0.01955 -0.0118,-0.03559 -0.0254,-0.03559 -0.0135,0 -0.0791,-0.08426 -0.14593,-0.187258 -0.10447,-0.161278 -0.13056,-0.184963 -0.1876,-0.170675 -0.0623,0.01561 -0.21608,0.08246 -0.63324,0.275433 -0.0982,0.04537 -0.18385,0.0825 -0.19055,0.0825 -0.007,0 -0.0998,0.03923 -0.20674,0.0872 -0.28664,0.128474 -0.29503,0.132064 -0.46552,0.199529 -0.0863,0.03413 -0.2019,0.08291 -0.25691,0.108369 l -0.1,0.0463 0.0622,0.113724 c 0.0791,0.144465 0.45195,0.915468 0.54084,1.118326 0.002,0.0047 0.0983,-0.0355 0.21394,-0.08916 0.11563,-0.05367 0.27443,-0.125407 0.35287,-0.159407 0.0784,-0.034 0.16829,-0.07371 0.19967,-0.08824 0.23735,-0.10999 0.97794,-0.356117 1.00133,-0.332786 0.0251,0.02504 -0.74675,0.511308 -1.02986,0.648789 -0.0784,0.03808 -0.14916,0.07787 -0.15717,0.08838 -0.008,0.01046 -0.0497,0.02793 -0.0928,0.03871 -0.0429,0.0108 -0.0782,0.02961 -0.0782,0.04185 0,0.01227 -0.0334,0.03067 -0.0743,0.04087 -0.0409,0.01023 -0.10436,0.03825 -0.14106,0.06227 -0.0727,0.0475 -0.072,0.05225 0.0387,0.29621 0.25692,0.565783 0.23921,0.600152 -0.0659,0.12803 z m -0.8646,-2.201125 c 0.008,-0.01795 0.28005,-0.136741 0.4939,-0.215802 0.0471,-0.01741 0.092,-0.03817 0.0999,-0.04613 0.008,-0.0079 0.0913,-0.04433 0.18541,-0.08076 0.0941,-0.03645 0.19682,-0.07725 0.22821,-0.09068 0.24857,-0.106392 0.33159,-0.140271 0.4564,-0.186244 0.0784,-0.02889 0.17471,-0.06896 0.21394,-0.08904 0.0391,-0.02008 0.0874,-0.03657 0.107,-0.0367 0.051,-2.58e-4 0.0441,-0.03861 -0.0214,-0.121789 -0.0315,-0.03981 -0.0571,-0.08636 -0.0571,-0.103461 0,-0.01711 -0.009,-0.03116 -0.0215,-0.03125 -0.0206,-1.74e-4 -0.0692,-0.07396 -0.18414,-0.278568 -0.0289,-0.05156 -0.0908,-0.146334 -0.13749,-0.21062 -0.0466,-0.06428 -0.0848,-0.134166 -0.0848,-0.155296 0,-0.02115 -0.0103,-0.03843 -0.0232,-0.03843 -0.0129,0 -0.0451,-0.0458 -0.0719,-0.101761 -0.0442,-0.09251 -0.0565,-0.100025 -0.13556,-0.08271 -0.0479,0.01046 -0.12137,0.03697 -0.16346,0.05889 -0.042,0.02191 -0.0983,0.03989 -0.12475,0.04003 -0.0265,8.3e-5 -0.0552,0.01157 -0.064,0.02548 -0.008,0.01392 -0.0511,0.03378 -0.0944,0.04415 -0.0794,0.01902 -0.51531,0.171633 -0.62069,0.217332 -0.0758,0.03285 -0.29931,0.111587 -0.37083,0.13061 -0.0315,0.0084 -0.0975,0.03311 -0.14694,0.05504 -0.0495,0.02194 -0.11546,0.03986 -0.14671,0.03986 -0.0555,0 -0.10929,0.07287 -0.0669,0.09066 0.0303,0.01277 0.23223,0.351586 0.23223,0.389797 0,0.01752 0.0103,0.03187 0.0232,0.03187 0.0127,0 0.0444,0.04163 0.0704,0.09251 0.0259,0.05087 0.0996,0.182152 0.1639,0.291733 0.0642,0.109576 0.13148,0.23411 0.14951,0.27674 0.0323,0.07633 0.0941,0.123165 0.1117,0.08454 z m 1.36391,-2.332468 c 0.0549,-0.02371 0.12552,-0.05351 0.15689,-0.06618 0.0313,-0.01268 0.11482,-0.04708 0.18542,-0.07646 0.0706,-0.02939 0.18611,-0.07623 0.25672,-0.104094 0.0706,-0.02784 0.15049,-0.06204 0.17755,-0.07597 0.0271,-0.01392 0.12976,-0.05313 0.2282,-0.0871 0.0985,-0.03396 0.23549,-0.0917 0.3045,-0.128289 0.069,-0.03657 0.14603,-0.06695 0.17115,-0.06749 0.0251,-4.44e-4 0.097,-0.02571 0.15977,-0.05596 0.0627,-0.03023 0.14298,-0.05543 0.17828,-0.05596 0.0354,-4.44e-4 0.0642,-0.01138 0.0642,-0.02403 0,-0.01268 0.0769,-0.04606 0.17093,-0.07417 l 0.17094,-0.0511 -0.0629,-0.08949 c -0.0346,-0.04921 -0.073,-0.09376 -0.0854,-0.09898 -0.0124,-0.0053 -0.0225,-0.02655 -0.0225,-0.04743 0,-0.02087 -0.009,-0.0422 -0.0215,-0.04743 -0.0312,-0.01387 -0.14976,-0.187501 -0.14976,-0.219427 0,-0.01499 -0.009,-0.03151 -0.0215,-0.03674 -0.0325,-0.0144 -0.14976,-0.1881 -0.14976,-0.221799 0,-0.01631 -0.0128,-0.02962 -0.0286,-0.02962 -0.0157,0 -0.0286,-0.01604 -0.0286,-0.03569 0,-0.01964 -0.0449,-0.09871 -0.0999,-0.175781 -0.0549,-0.07706 -0.0999,-0.157071 -0.0999,-0.177795 0,-0.04251 -0.13032,-0.0521 -0.15552,-0.01138 -0.009,0.01446 -0.0579,0.03538 -0.10849,0.0465 -0.0878,0.01924 -0.12446,0.03303 -0.3678,0.138324 -0.0573,0.02478 -0.11678,0.04507 -0.13223,0.04507 -0.0155,0 -0.0649,0.01915 -0.10976,0.04251 -0.045,0.02341 -0.10436,0.04261 -0.13201,0.0427 -0.0277,8.5e-5 -0.0726,0.01299 -0.0999,0.02864 -0.07,0.04025 -1.15927,0.398464 -1.21161,0.398464 -0.0848,0 -0.11068,0.07098 -0.0497,0.136297 0.0311,0.03328 0.0565,0.07282 0.0565,0.08784 0,0.01503 0.009,0.03156 0.0214,0.03674 0.0312,0.01388 0.14975,0.187502 0.14975,0.219427 0,0.01499 0.009,0.03151 0.0214,0.03674 0.0312,0.01383 0.14976,0.187503 0.14976,0.219424 0,0.01499 0.0103,0.03151 0.0219,0.03674 0.012,0.0053 0.0976,0.134884 0.19001,0.288152 0.0924,0.153263 0.17563,0.283004 0.18487,0.288311 0.009,0.0053 0.0618,-0.0098 0.11662,-0.03351 z m 2.60837,-1.018222 c 0.0305,-0.02301 0.0824,-0.0418 0.11554,-0.0418 0.0331,0 0.0723,-0.01162 0.0872,-0.0258 0.0148,-0.01418 0.072,-0.03923 0.12693,-0.05558 0.10929,-0.03258 0.50878,-0.175294 0.63654,-0.227394 0.0441,-0.018 0.10436,-0.03277 0.13382,-0.03277 0.0295,0 0.0609,-0.01184 0.0698,-0.0263 0.009,-0.01446 0.0556,-0.03489 0.10344,-0.04537 0.048,-0.01046 0.12161,-0.03702 0.1637,-0.05894 0.0421,-0.02191 0.0964,-0.03989 0.12075,-0.04003 0.0724,-2.89e-4 0.19777,-0.06856 0.19802,-0.107806 1.1e-4,-0.02008 -0.0191,-0.04385 -0.0426,-0.05286 -0.0235,-0.009 -0.0428,-0.03421 -0.0428,-0.05603 0,-0.0218 -0.0103,-0.03963 -0.0231,-0.03963 -0.0126,0 -0.0846,-0.08366 -0.15981,-0.185898 -0.0752,-0.102243 -0.15153,-0.201847 -0.16953,-0.221347 -0.0765,-0.08291 -0.40092,-0.559014 -0.42595,-0.625145 -0.0328,-0.08684 -0.0976,-0.08569 -0.29031,0.0052 -0.10263,0.0484 -0.19212,0.08799 -0.19883,0.08799 -0.007,0 -0.0998,0.03932 -0.20674,0.08737 -0.46749,0.209956 -0.57554,0.254177 -0.621,0.254177 -0.0217,0 -0.0437,0.0097 -0.049,0.02137 -0.008,0.01853 -0.2234,0.11061 -0.37321,0.159731 -0.0612,0.02008 -0.0647,0.08435 -0.007,0.132003 0.0235,0.0195 0.0428,0.05201 0.0428,0.07227 0,0.02026 0.009,0.04109 0.0214,0.04633 0.0248,0.01103 0.14976,0.184566 0.14976,0.208131 0,0.0088 0.035,0.07013 0.0778,0.136347 0.11516,0.178061 0.12949,0.202432 0.20736,0.352787 0.0392,0.07568 0.0801,0.144278 0.0909,0.152426 0.0103,0.0082 0.0329,0.04978 0.0493,0.09251 0.0335,0.08819 0.12404,0.102542 0.21475,0.03409 z m 3.33567,-1.343918 c -0.11695,-0.107622 -0.29606,-0.333248 -0.29606,-0.372935 0,-0.01795 -0.0103,-0.03263 -0.0231,-0.03263 -0.0126,0 -0.0437,-0.04803 -0.069,-0.106725 -0.15565,-0.36077 -0.15317,-0.417432 0.0115,-0.254219 0.21809,0.216676 0.3179,0.36872 0.46398,0.706795 0.0724,0.167624 0.0483,0.1842 -0.0869,0.05974 z m 4.09681,0.927488 c 0.0706,-0.03342 0.1733,-0.08001 0.2282,-0.103542 0.0549,-0.02354 0.13392,-0.06004 0.17556,-0.08114 0.0417,-0.0211 0.0962,-0.03839 0.12123,-0.03839 0.0251,0 0.0455,-0.01281 0.0455,-0.02846 0,-0.01565 0.0154,-0.02846 0.0343,-0.02846 0.0449,0 1.48049,-0.714266 1.52952,-0.760998 0.0208,-0.01977 0.0491,-0.03595 0.0631,-0.03595 0.014,0 0.12062,-0.05764 0.23692,-0.128078 0.11627,-0.07044 0.22584,-0.12808 0.24347,-0.12808 0.0177,0 0.032,-0.01 0.032,-0.0222 0,-0.01224 0.0354,-0.03759 0.0785,-0.05642 0.0432,-0.01879 0.11695,-0.05984 0.16402,-0.0912 0.0471,-0.03134 0.11125,-0.06873 0.14263,-0.08305 0.0313,-0.01432 0.10573,-0.05934 0.16528,-0.100036 0.0596,-0.0407 0.12051,-0.074 0.13549,-0.074 0.015,0 0.0273,-0.01192 0.0273,-0.02655 0,-0.01458 0.0288,-0.03555 0.0642,-0.04652 0.0354,-0.01103 0.0706,-0.02788 0.0784,-0.0375 0.0294,-0.03604 0.19841,-0.145588 0.22466,-0.145588 0.015,0 0.0316,-0.0097 0.0369,-0.02137 0.014,-0.03116 0.18791,-0.149424 0.2199,-0.149424 0.015,0 0.0316,-0.0097 0.0369,-0.02137 0.0115,-0.02571 0.18536,-0.149423 0.21007,-0.149423 0.009,0 0.0342,-0.016 0.0548,-0.03559 0.0205,-0.01955 0.066,-0.05479 0.10114,-0.07827 0.0351,-0.02349 0.14641,-0.10353 0.24725,-0.177887 0.10092,-0.07436 0.19454,-0.135194 0.20821,-0.135194 0.0137,0 0.0292,-0.01138 0.0343,-0.0254 0.005,-0.01396 0.10424,-0.09683 0.22016,-0.184147 0.11586,-0.08731 0.22891,-0.184754 0.25122,-0.216533 0.0223,-0.03178 0.0537,-0.05778 0.0698,-0.05778 0.0232,0 0.24485,-0.162863 0.30982,-0.227694 0.008,-0.0078 0.0784,-0.06467 0.15689,-0.126311 0.0784,-0.06164 0.16345,-0.132081 0.18889,-0.156539 0.0255,-0.02447 0.14739,-0.134117 0.27098,-0.243694 0.29898,-0.265055 1.26385,-1.227005 1.49528,-1.490741 0.10137,-0.115472 0.20429,-0.230744 0.22879,-0.256154 0.0246,-0.0254 0.0952,-0.110242 0.15689,-0.188508 0.0618,-0.07827 0.11907,-0.148715 0.12727,-0.156544 0.008,-0.0078 0.0852,-0.103886 0.17095,-0.213461 0.0858,-0.109576 0.17752,-0.222962 0.20383,-0.251956 0.0263,-0.029 0.0836,-0.109047 0.12713,-0.177888 0.0436,-0.06884 0.0895,-0.125163 0.10217,-0.125163 0.0125,0 0.0229,-0.01764 0.0229,-0.03918 0,-0.02158 0.0182,-0.05429 0.0405,-0.07274 0.0495,-0.04095 0.5155,-0.735917 0.56247,-0.838765 0.0185,-0.04065 0.0431,-0.07391 0.0544,-0.07391 0.0115,0 0.0284,-0.02243 0.0379,-0.0498 0.009,-0.02739 0.0429,-0.08823 0.0743,-0.135194 0.0315,-0.04696 0.073,-0.117406 0.0924,-0.156539 0.0194,-0.03915 0.0424,-0.07757 0.0507,-0.08538 0.008,-0.0078 0.0308,-0.04626 0.0495,-0.08538 0.0188,-0.03915 0.0748,-0.141599 0.12468,-0.227696 0.15897,-0.274604 0.45605,-0.8788872 0.65066,-1.3234746 0.0274,-0.062615 0.0713,-0.1623098 0.0975,-0.2215466 0.0543,-0.1228308 0.0618,-0.2360028 0.0173,-0.2633886 -0.0166,-0.010229 -0.0424,-0.046248 -0.0569,-0.079946 -0.0285,-0.06527 -0.0884,-0.1658037 -0.11297,-0.189352 -0.008,-0.00782 -0.0308,-0.04626 -0.0502,-0.085383 -0.0194,-0.039146 -0.0607,-0.1095757 -0.0918,-0.156539 -0.0311,-0.046973 -0.0654,-0.1045992 -0.0765,-0.12808 -0.0115,-0.023492 -0.0946,-0.1661048 -0.18573,-0.3169386 -0.0911,-0.1508385 -0.16566,-0.2874553 -0.16566,-0.3035952 0,-0.016136 -0.009,-0.033606 -0.0215,-0.038824 -0.0307,-0.013608 -0.23532,-0.3535409 -0.23532,-0.3908971 0,-0.017194 -0.0116,-0.031296 -0.0257,-0.031296 -0.0142,0 -0.0398,-0.035249 -0.0572,-0.078268 -0.0173,-0.043042 -0.0568,-0.1166957 -0.0879,-0.1636579 -0.0311,-0.046961 -0.0683,-0.1110009 -0.0827,-0.1423094 -0.0144,-0.031296 -0.057,-0.1017489 -0.0945,-0.156539 -0.0376,-0.054788 -0.0776,-0.1188278 -0.0889,-0.1423094 -0.0115,-0.023492 -0.0591,-0.1067255 -0.10653,-0.1850007 -0.0474,-0.078268 -0.10034,-0.1704228 -0.11759,-0.2047816 -0.0406,-0.080889 -0.10918,-0.1080242 -0.10952,-0.043352 -2.5e-4,0.056236 -0.1857,0.621913 -0.22819,0.6960392 -0.0156,0.02717 -0.0283,0.072763 -0.0283,0.1012892 0,0.028503 -0.0188,0.076728 -0.0419,0.1071162 -0.0231,0.030411 -0.0424,0.073372 -0.0428,0.09552 -8.1e-4,0.037996 -0.13251,0.3994687 -0.2134,0.5858888 -0.0204,0.046972 -0.0591,0.1430185 -0.0861,0.2134624 -0.0623,0.1630143 -0.12335,0.3054662 -0.17458,0.4078874 -0.0222,0.044329 -0.0403,0.09206 -0.0403,0.1061048 0,0.014056 -0.0456,0.1250697 -0.10137,0.2467339 -0.0558,0.1216619 -0.11217,0.2468189 -0.12537,0.2781251 -0.0419,0.099519 -0.2031,0.4483146 -0.30366,0.6572245 -0.0534,0.1110009 -0.0971,0.2166701 -0.0971,0.2348098 0,0.018125 -0.0118,0.032985 -0.0263,0.032985 -0.0145,0 -0.0347,0.038433 -0.045,0.085383 -0.0103,0.046961 -0.0296,0.085382 -0.0428,0.085382 -0.0132,0 -0.0325,0.03843 -0.0428,0.08538 -0.0103,0.04697 -0.0292,0.08538 -0.0419,0.08538 -0.0128,0 -0.032,0.03511 -0.0428,0.07798 -0.0103,0.04292 -0.0284,0.08452 -0.0388,0.09251 -0.0103,0.0079 -0.0875,0.148999 -0.17091,0.313366 -0.0835,0.1643684 -0.19657,0.3756974 -0.25139,0.4696214 -0.0548,0.09392 -0.11446,0.205993 -0.13259,0.24904 -0.0181,0.04304 -0.0429,0.07827 -0.0552,0.07827 -0.0122,0 -0.0223,0.0141 -0.0223,0.0313 0,0.03738 -0.20465,0.377293 -0.23534,0.390897 -0.0118,0.0053 -0.0214,0.02248 -0.0214,0.03839 0,0.03569 -0.2058,0.375426 -0.23534,0.388525 -0.0118,0.0053 -0.0215,0.02177 -0.0215,0.03674 0,0.03192 -0.1185,0.205571 -0.14975,0.219429 -0.0118,0.0053 -0.0214,0.02456 -0.0214,0.04295 0,0.0445 -0.44891,0.706389 -0.49206,0.725531 -0.0118,0.0053 -0.0215,0.02057 -0.0215,0.03409 0,0.01955 -0.28893,0.427197 -0.39274,0.554129 -0.0129,0.01565 -0.0918,0.118114 -0.17556,0.22769 -0.0838,0.109576 -0.16053,0.205638 -0.17063,0.213466 -0.0103,0.0078 -0.0884,0.103887 -0.17412,0.213466 -0.0856,0.109576 -0.18805,0.232594 -0.22752,0.273367 -0.0395,0.04079 -0.12951,0.141805 -0.20011,0.224508 -0.43505,0.509659 -1.01085,1.084378 -1.54004,1.537144 -0.0823,0.07044 -0.17939,0.155466 -0.21566,0.18894 -0.0363,0.03347 -0.12462,0.102886 -0.19631,0.154251 -0.0716,0.05136 -0.13032,0.104024 -0.13032,0.117024 0,0.01299 -0.0183,0.02363 -0.0404,0.02363 -0.0223,0 -0.0447,0.01138 -0.0499,0.02523 -0.0134,0.03555 -0.27508,0.23095 -0.30928,0.23095 -0.0156,0 -0.0284,0.01069 -0.0284,0.02367 0,0.02712 -0.82924,0.582114 -0.96986,0.649113 -0.0235,0.01126 -0.0493,0.02797 -0.0571,0.03727 -0.008,0.0093 -0.0464,0.03316 -0.0855,0.05303 -0.0392,0.01986 -0.14834,0.07983 -0.24246,0.133235 -0.0941,0.05341 -0.27051,0.145745 -0.39192,0.205207 -0.12143,0.05945 -0.22091,0.124117 -0.22107,0.143688 -1.7e-4,0.01955 0.0103,0.03555 0.0228,0.03555 0.0127,0 0.0523,0.06684 0.0882,0.148537 0.055,0.125623 0.0635,0.187081 0.0552,0.398477 -0.006,0.137473 -0.009,0.249763 -0.009,0.249537 0,-2.26e-4 0.0577,-0.02774 0.12836,-0.06118 z m -0.41361,-1.17816 c 0.0784,-0.0371 0.15866,-0.06796 0.17828,-0.06851 0.0196,-4.43e-4 0.0356,-0.01115 0.0356,-0.02354 0,-0.01241 0.0738,-0.05783 0.16402,-0.100967 0.0902,-0.04313 0.2282,-0.116678 0.30663,-0.163423 0.0785,-0.04674 0.17474,-0.100313 0.21395,-0.119028 0.0392,-0.01871 0.0777,-0.04199 0.0855,-0.0517 0.008,-0.0097 0.0464,-0.03418 0.0855,-0.05441 0.0704,-0.03626 0.63919,-0.41189 0.69738,-0.460536 0.0165,-0.01378 0.15196,-0.115039 0.30101,-0.22497 0.14904,-0.109932 0.27525,-0.212052 0.28049,-0.226928 0.005,-0.0149 0.0212,-0.02704 0.0357,-0.02704 0.0143,0 0.0494,-0.02243 0.0778,-0.04981 0.0285,-0.02739 0.11423,-0.101036 0.19059,-0.163653 0.0763,-0.06262 0.18395,-0.152276 0.23907,-0.199237 0.12777,-0.108874 1.25867,-1.231575 1.25867,-1.249556 0,-0.0074 0.0396,-0.0559 0.0879,-0.107737 0.0485,-0.05185 0.13487,-0.151893 0.19219,-0.222336 0.0573,-0.07044 0.13044,-0.153698 0.16251,-0.185003 0.032,-0.0313 0.1269,-0.146578 0.21076,-0.256158 0.0838,-0.109576 0.16367,-0.203502 0.17738,-0.208719 0.0137,-0.0053 0.0249,-0.02762 0.0249,-0.04981 0,-0.02216 0.0115,-0.04034 0.0247,-0.04034 0.0135,0 0.0616,-0.05443 0.10699,-0.120964 0.0452,-0.06653 0.11125,-0.152851 0.14651,-0.191824 0.0354,-0.03896 0.0642,-0.07865 0.0642,-0.08815 0,-0.01516 0.0361,-0.0629 0.1421,-0.188447 0.016,-0.01888 0.029,-0.04616 0.029,-0.06056 0,-0.0144 0.0183,-0.04131 0.0406,-0.0598 0.0497,-0.04113 0.68598,-0.990763 0.73329,-1.094373 0.0187,-0.04092 0.0432,-0.07437 0.0546,-0.07437 0.0115,0 0.0284,-0.02243 0.0378,-0.0498 0.009,-0.0274 0.0429,-0.08823 0.0743,-0.135194 0.0315,-0.04696 0.073,-0.117405 0.0924,-0.156543 0.0194,-0.03914 0.0421,-0.07755 0.0502,-0.08538 0.0204,-0.01955 0.0692,-0.102243 0.1596,-0.270389 0.0421,-0.07827 0.0847,-0.148715 0.0946,-0.156543 0.0103,-0.0078 0.053,-0.08467 0.0959,-0.170769 0.0427,-0.08611 0.11791,-0.226985 0.16703,-0.313081 0.0491,-0.0861 0.16158,-0.297425 0.24994,-0.46962 0.0884,-0.172196 0.17025,-0.317351 0.18201,-0.3225677 0.0118,-0.00529 0.0215,-0.026549 0.0215,-0.047386 0,-0.020837 0.0756,-0.1894796 0.16803,-0.3747469 0.16519,-0.3311672 0.19452,-0.3935555 0.37248,-0.7922415 0.0489,-0.1095758 0.10137,-0.221472 0.11651,-0.2486544 0.0152,-0.02717 0.0276,-0.062373 0.0276,-0.078188 0,-0.015826 0.0365,-0.1088517 0.0812,-0.2067322 0.0447,-0.097876 0.10356,-0.2355994 0.13101,-0.306042 0.0274,-0.070442 0.0663,-0.1664991 0.0864,-0.2134612 0.0201,-0.046973 0.0587,-0.1430232 0.0855,-0.2134658 0.027,-0.070442 0.0651,-0.1665002 0.0847,-0.2134624 0.0366,-0.087773 0.0561,-0.141275 0.17561,-0.4838526 0.0382,-0.1095757 0.0821,-0.2214719 0.0976,-0.2486544 0.0155,-0.02717 0.0282,-0.072016 0.0284,-0.099611 8e-5,-0.027618 0.0194,-0.086877 0.0428,-0.1317196 0.0234,-0.044835 0.0426,-0.09991 0.0426,-0.1223734 0,-0.022481 0.0177,-0.075441 0.0395,-0.1177117 0.0217,-0.042295 0.0484,-0.1312886 0.0596,-0.1978179 l 0.0201,-0.1209643 -1.46827,0 -1.46827,0 -0.046,0.070154 c -0.0254,0.038571 -0.0461,0.093014 -0.0463,0.1209597 -1e-4,0.027928 -0.0194,0.087497 -0.0428,0.1323356 -0.0234,0.044835 -0.0426,0.1005421 -0.0426,0.1237756 0,0.023228 -0.0171,0.082613 -0.0381,0.1319402 -0.021,0.049329 -0.0535,0.1345159 -0.0722,0.1893026 -0.15124,0.4410498 -0.18438,0.5298494 -0.20662,0.5535827 -0.0139,0.014849 -0.0254,0.044961 -0.0254,0.066856 0,0.021906 -0.0174,0.080176 -0.0389,0.1295003 -0.0214,0.049329 -0.0611,0.1473227 -0.0882,0.2177665 -0.0272,0.070442 -0.0658,0.1665036 -0.0859,0.2134658 -0.0201,0.046961 -0.0587,0.1430185 -0.0855,0.2134612 -0.027,0.070442 -0.0661,0.1665036 -0.087,0.2134669 -0.0209,0.046961 -0.0596,0.1366157 -0.086,0.1992304 -0.10562,0.2505878 -0.12359,0.2914804 -0.20674,0.4696209 -0.0475,0.1017489 -0.13381,0.2874644 -0.19186,0.4126985 -0.0929,0.2003888 -0.21974,0.4561035 -0.53657,1.0815495 -0.0475,0.09392 -0.0939,0.177174 -0.10286,0.185002 -0.009,0.0078 -0.0653,0.110288 -0.12506,0.227695 -0.0597,0.1174046 -0.13351,0.2518846 -0.16391,0.2988476 -0.0303,0.04697 -0.0693,0.12061 -0.0867,0.163658 -0.0173,0.04304 -0.0429,0.07827 -0.0572,0.07827 -0.0142,0 -0.0257,0.0141 -0.0257,0.0313 0,0.03738 -0.20465,0.377291 -0.23534,0.390896 -0.0118,0.0053 -0.0214,0.02572 -0.0214,0.04554 0,0.01981 -0.0382,0.08864 -0.0848,0.15293 -0.0466,0.06428 -0.10849,0.159061 -0.13749,0.210614 -0.11489,0.204611 -0.16367,0.278394 -0.18413,0.278568 -0.0118,8.5e-5 -0.0213,0.01353 -0.0213,0.02979 0,0.03369 -0.11729,0.207398 -0.14977,0.2218 -0.0117,0.0053 -0.0215,0.02172 -0.0215,0.0367 0,0.02832 -0.1001,0.178091 -0.16653,0.249296 -0.021,0.02248 -0.0712,0.09328 -0.11148,0.157306 -0.1047,0.166115 -0.82916,1.119509 -0.92513,1.217458 -0.0442,0.04514 -0.0805,0.09446 -0.0805,0.109576 0,0.01511 -0.0103,0.02748 -0.0226,0.02748 -0.0125,0 -0.0734,0.06648 -0.13549,0.14774 -0.0621,0.08126 -0.15134,0.189045 -0.19841,0.239531 -0.0471,0.05049 -0.1622,0.179318 -0.25586,0.286302 -0.22017,0.2515 -1.19861,1.22779 -1.45088,1.447698 -0.10723,0.09345 -0.22644,0.198579 -0.26498,0.233621 -0.0386,0.03502 -0.16261,0.137451 -0.27575,0.227577 -0.11308,0.09013 -0.21211,0.171973 -0.21995,0.181881 -0.0335,0.04238 -0.28822,0.224145 -0.31402,0.224145 -0.0156,0 -0.0282,0.01631 -0.0282,0.03621 0,0.03542 0.12723,0.07775 0.41361,0.13759 0.0784,0.0164 0.15482,0.04163 0.16973,0.05607 0.0148,0.01446 0.0621,0.0263 0.10481,0.0263 0.0815,0 0.14692,0.05517 0.35843,0.301832 0.0657,0.07664 0.16199,0.186167 0.21394,0.243415 l 0.0945,0.104082 0.14262,-0.0675 z"
       style="fill:#000000" /></g></svg>